{"glyphs":{"0":{"ha":806,"x_min":28,"x_max":778,"o":"m 778 506 q 749 276 778 374 q 670 115 721 179 q 551 20 620 51 q 401 -11 482 -11 q 252 20 321 -11 q 134 115 184 51 q 56 276 84 179 q 28 506 28 374 q 56 736 28 639 q 134 897 84 833 q 252 992 184 961 q 401 1023 321 1023 q 551 992 482 1023 q 670 897 620 961 q 749 736 721 833 q 778 506 778 639 m 556 506 q 542 678 556 611 q 507 783 529 745 q 458 836 485 822 q 401 850 430 850 q 345 836 373 850 q 297 783 318 822 q 263 678 276 745 q 250 506 250 611 q 263 334 250 401 q 297 229 276 267 q 345 176 318 190 q 401 162 373 162 q 458 176 430 162 q 507 229 485 190 q 542 334 529 267 q 556 506 556 401 z "},"1":{"ha":806,"x_min":70,"x_max":730,"o":"m 730 156 l 730 0 l 153 0 l 153 156 l 348 156 l 348 666 q 349 705 348 685 q 351 745 349 725 l 235 649 q 205 635 220 638 q 177 635 190 633 q 153 644 164 638 q 138 658 143 651 l 70 748 l 385 1013 l 563 1013 l 563 156 l 730 156 z "},"2":{"ha":806,"x_min":42,"x_max":753,"o":"m 678 194 q 733 175 713 194 q 753 125 753 156 l 753 0 l 42 0 l 42 69 q 50 113 42 90 q 79 154 58 135 l 371 448 q 436 519 408 485 q 482 586 464 553 q 509 652 500 619 q 518 722 518 685 q 489 815 518 783 q 401 847 460 847 q 320 822 353 847 q 275 759 288 797 q 237 708 260 721 q 169 703 213 696 l 56 723 q 98 855 67 799 q 177 949 130 911 q 284 1005 224 986 q 414 1023 344 1023 q 549 1001 489 1023 q 651 940 609 979 q 716 848 694 901 q 739 729 739 794 q 723 626 739 674 q 681 536 708 579 q 618 454 653 494 q 542 373 582 414 l 344 170 q 419 188 382 182 q 489 194 457 194 l 678 194 z "},"3":{"ha":806,"x_min":33,"x_max":751,"o":"m 61 723 q 104 855 72 799 q 182 949 135 911 q 290 1005 229 986 q 419 1023 350 1023 q 553 1002 494 1023 q 651 944 611 981 q 713 861 692 908 q 733 760 733 813 q 724 676 733 713 q 695 613 714 640 q 648 568 676 586 q 583 537 619 549 q 751 308 751 478 q 722 167 751 227 q 644 68 693 108 q 531 9 595 28 q 396 -11 466 -11 q 267 5 324 -11 q 167 53 211 20 q 91 138 124 86 q 33 260 58 189 l 129 299 q 199 306 167 313 q 244 274 231 299 q 311 191 276 217 q 393 165 346 165 q 456 177 429 165 q 500 208 483 189 q 527 251 518 227 q 536 301 536 276 q 532 359 536 333 q 506 404 527 385 q 443 433 485 423 q 326 443 401 443 l 326 592 q 428 601 390 592 q 489 628 467 611 q 517 669 510 645 q 524 723 524 694 q 495 815 524 783 q 407 847 466 847 q 326 822 359 847 q 281 759 293 797 q 242 708 266 721 q 175 703 219 696 l 61 723 z "},"4":{"ha":806,"x_min":-3,"x_max":774,"o":"m 483 393 l 483 657 q 484 709 483 681 q 490 768 486 738 l 222 393 l 483 393 m 774 393 l 774 272 q 764 244 774 256 q 733 233 753 233 l 670 233 l 670 0 l 483 0 l 483 233 l 76 233 q 39 245 56 233 q 19 276 23 258 l -3 383 l 465 1012 l 670 1012 l 670 393 l 774 393 z "},"5":{"ha":806,"x_min":44,"x_max":742,"o":"m 308 656 q 363 663 337 661 q 415 665 390 665 q 556 641 494 665 q 658 575 617 617 q 721 476 700 533 q 742 355 742 419 q 714 207 742 274 q 633 91 685 140 q 511 16 582 42 q 355 -11 440 -11 q 261 -1 306 -11 q 177 27 216 10 q 104 68 138 45 q 44 118 71 92 l 110 207 q 135 228 121 221 q 165 235 149 235 q 204 224 185 235 q 244 199 222 213 q 295 174 266 185 q 367 163 324 163 q 441 177 410 163 q 491 216 472 192 q 518 274 510 241 q 527 344 527 307 q 485 457 527 418 q 367 495 444 495 q 234 469 299 495 l 101 506 l 187 1012 l 705 1012 l 705 923 q 698 883 705 901 q 676 851 691 865 q 637 830 661 838 q 578 823 613 823 l 337 823 l 308 656 z "},"6":{"ha":806,"x_min":43,"x_max":774,"o":"m 401 159 q 464 172 435 159 q 513 206 492 184 q 546 257 534 228 q 558 322 558 287 q 547 391 558 360 q 515 442 535 422 q 464 474 494 463 q 399 485 435 485 q 339 474 366 485 q 292 441 312 463 q 261 390 272 419 q 250 322 250 360 q 259 255 250 285 q 287 203 268 225 q 334 170 306 182 q 401 159 363 159 m 367 623 q 475 641 415 641 q 583 623 530 641 q 679 567 637 605 q 748 473 722 530 q 774 338 774 415 q 747 203 774 267 q 673 92 721 140 q 556 17 624 44 q 406 -11 488 -11 q 253 16 321 -11 q 139 90 186 42 q 68 205 92 138 q 43 351 43 272 q 158 655 43 501 l 386 963 q 432 997 402 983 q 501 1012 463 1012 l 693 1012 l 393 653 l 367 623 z "},"7":{"ha":806,"x_min":55,"x_max":766,"o":"m 766 1012 l 766 922 q 757 857 766 881 q 740 815 748 832 l 388 71 q 347 21 374 42 q 276 0 320 0 l 119 0 l 480 724 q 512 777 496 753 q 549 823 528 801 l 103 823 q 85 827 94 823 q 70 837 76 831 q 59 852 63 844 q 55 870 55 861 l 55 1012 l 766 1012 z "},"8":{"ha":806,"x_min":42,"x_max":764,"o":"m 403 151 q 465 163 439 151 q 509 193 492 174 q 534 238 526 212 q 542 294 542 264 q 535 353 542 326 q 512 400 528 381 q 469 430 496 419 q 403 440 442 440 q 336 430 363 440 q 294 400 310 419 q 271 353 278 381 q 264 294 264 326 q 272 238 264 264 q 297 193 280 212 q 340 163 314 174 q 403 151 366 151 m 403 866 q 348 856 370 866 q 311 828 326 845 q 291 789 297 811 q 285 743 285 767 q 290 692 285 717 q 308 647 294 667 q 344 616 321 628 q 403 604 367 604 q 462 616 439 604 q 498 647 485 628 q 516 692 511 667 q 521 743 521 717 q 515 789 521 767 q 494 828 508 811 q 457 856 480 845 q 403 866 435 866 m 594 528 q 671 488 639 512 q 724 434 703 465 q 754 367 744 403 q 764 290 764 331 q 738 166 764 222 q 664 71 712 110 q 550 10 617 32 q 403 -11 483 -11 q 256 10 322 -11 q 141 71 189 32 q 68 166 94 110 q 42 290 42 222 q 51 367 42 331 q 82 434 61 403 q 134 488 102 465 q 212 528 167 512 q 109 614 143 559 q 75 747 75 669 q 99 857 75 806 q 167 944 124 907 q 271 1002 211 981 q 403 1023 331 1023 q 534 1002 474 1023 q 638 944 594 981 q 706 857 682 907 q 731 747 731 806 q 697 614 731 669 q 594 528 663 559 z "},"9":{"ha":806,"x_min":44,"x_max":748,"o":"m 259 703 q 399 551 259 551 q 505 593 468 551 q 542 703 542 634 q 532 768 542 740 q 502 815 521 796 q 456 843 483 833 q 397 853 428 853 q 339 841 364 853 q 295 810 313 830 q 268 762 278 790 q 259 703 259 735 m 431 383 q 450 406 441 395 q 467 428 459 417 q 322 394 403 394 q 223 412 272 394 q 134 466 174 430 q 69 557 94 502 q 44 687 44 612 q 69 817 44 756 q 141 924 94 878 q 253 996 188 969 q 399 1023 319 1023 q 546 998 481 1023 q 655 928 610 973 q 724 820 700 883 q 748 683 748 758 q 718 506 748 584 q 638 358 688 427 l 420 48 q 376 14 406 28 q 309 0 347 0 l 110 0 l 431 383 z "},"\u0000":{"ha":0,"x_min":0,"x_max":0,"o":""}," ":{"ha":321,"x_min":0,"x_max":0,"o":""},"A":{"ha":988,"x_min":-18,"x_max":1006,"o":"m 633 387 l 539 664 q 517 726 528 690 q 493 803 505 762 q 471 725 483 761 q 449 663 459 689 l 356 387 l 633 387 m 1006 0 l 824 0 q 774 14 793 0 q 746 51 756 28 l 686 227 l 301 227 l 242 51 q 214 16 234 31 q 165 0 194 0 l -18 0 l 374 1012 l 614 1012 l 1006 0 z "},"Ą":{"ha":985,"x_min":-19,"x_max":1021,"o":"m 631 387 l 538 664 q 515 726 527 690 q 492 803 503 762 q 469 725 481 761 q 447 663 458 689 l 354 387 l 631 387 m 1021 -206 q 960 -231 997 -221 q 883 -241 924 -241 q 770 -212 809 -241 q 732 -137 732 -183 q 756 -67 732 -102 q 831 0 779 -31 l 822 0 q 773 14 792 0 q 744 51 754 28 l 685 227 l 300 227 l 240 51 q 213 16 233 31 q 164 0 193 0 l -19 0 l 372 1012 l 613 1012 l 1004 0 l 957 0 q 911 -36 930 -15 q 892 -85 892 -58 q 901 -111 892 -101 q 929 -122 910 -122 q 946 -121 940 -122 q 956 -119 952 -120 q 963 -117 960 -118 q 969 -116 966 -116 q 989 -129 984 -116 l 1021 -206 z "},"Æ":{"ha":1299,"x_min":-23,"x_max":1252,"o":"m 636 387 l 581 840 q 554 764 568 799 q 526 698 540 728 l 390 387 l 636 387 m 804 831 l 833 595 l 1155 595 l 1155 422 l 854 422 l 883 181 l 1252 181 l 1252 0 l 683 0 l 655 227 l 319 227 l 242 51 q 209 14 231 28 q 155 0 186 0 l -23 0 l 474 1012 l 1252 1012 l 1252 831 l 804 831 z "},"B":{"ha":930,"x_min":98,"x_max":881,"o":"m 498 177 q 574 189 544 177 q 620 219 603 201 q 643 262 637 238 q 649 310 649 285 q 642 360 649 338 q 617 397 635 382 q 570 421 599 413 q 497 429 541 429 l 333 429 l 333 177 l 498 177 m 333 836 l 333 586 l 455 586 q 525 592 494 586 q 578 611 556 597 q 611 649 600 625 q 623 710 623 674 q 614 770 623 747 q 586 809 605 794 q 539 830 567 824 q 470 836 510 836 l 333 836 m 470 1012 q 649 992 575 1012 q 769 938 722 973 q 836 851 815 902 q 858 738 858 801 q 848 673 858 704 q 817 614 838 641 q 764 563 797 586 q 685 524 731 540 q 833 445 785 499 q 881 305 881 391 q 856 185 881 240 q 783 88 831 129 q 664 23 735 47 q 502 0 593 0 l 98 0 l 98 1012 l 470 1012 z "},"C":{"ha":910,"x_min":42,"x_max":906,"o":"m 780 262 q 797 259 788 262 q 813 248 805 256 l 906 150 q 752 30 844 70 q 535 -11 660 -11 q 328 28 419 -11 q 173 136 237 67 q 76 300 110 206 q 42 506 42 395 q 78 714 42 619 q 182 878 115 809 q 342 985 249 947 q 547 1023 435 1023 q 654 1013 603 1023 q 748 985 704 1003 q 828 942 792 967 q 894 888 865 917 l 815 782 q 797 764 807 772 q 767 756 786 756 q 744 762 755 756 q 720 775 733 767 q 693 793 708 783 q 657 810 678 802 q 609 824 637 818 q 545 829 582 829 q 439 808 487 829 q 355 745 390 786 q 301 643 320 703 q 282 506 282 583 q 303 368 282 428 q 361 266 324 308 q 446 203 397 225 q 550 182 494 182 q 608 185 582 182 q 658 195 635 188 q 701 215 681 203 q 742 246 721 227 q 760 257 750 253 q 780 262 769 262 z "},"Ç":{"ha":910,"x_min":42,"x_max":906,"o":"m 906 150 q 774 40 852 80 q 592 -9 696 0 l 585 -35 q 641 -54 619 -43 q 675 -79 663 -65 q 694 -108 688 -92 q 699 -142 699 -124 q 686 -185 699 -166 q 648 -219 672 -205 q 589 -240 624 -233 q 513 -247 555 -247 q 461 -244 485 -247 q 410 -236 437 -242 l 430 -172 q 453 -153 434 -153 q 474 -155 464 -153 q 498 -158 483 -158 q 524 -151 516 -158 q 531 -137 531 -145 q 510 -115 531 -122 q 438 -101 489 -108 l 470 -8 q 290 46 369 3 q 155 157 210 89 q 71 314 100 225 q 42 506 42 403 q 78 714 42 619 q 182 878 115 809 q 342 985 249 947 q 547 1023 435 1023 q 654 1013 603 1023 q 748 985 704 1003 q 828 942 792 967 q 894 888 865 917 l 815 782 q 797 764 807 772 q 767 756 786 756 q 744 762 755 756 q 720 775 733 767 q 693 793 708 783 q 657 810 678 802 q 609 824 637 818 q 545 829 582 829 q 439 808 487 829 q 355 745 390 786 q 301 643 320 703 q 282 506 282 583 q 303 368 282 428 q 361 266 324 308 q 446 203 397 225 q 550 182 494 182 q 608 185 582 182 q 658 195 635 188 q 701 215 681 203 q 742 246 721 227 q 760 257 750 253 q 780 262 769 262 q 797 259 788 262 q 813 248 805 256 l 906 150 z "},"D":{"ha":1057,"x_min":98,"x_max":1016,"o":"m 1016 506 q 978 304 1016 397 q 872 143 940 211 q 706 38 803 76 q 491 0 609 0 l 98 0 l 98 1012 l 491 1012 q 706 974 609 1012 q 872 868 803 935 q 978 708 940 801 q 1016 506 1016 615 m 776 506 q 756 642 776 581 q 700 744 737 702 q 611 809 664 786 q 491 831 558 831 l 334 831 l 334 181 l 491 181 q 611 203 558 181 q 700 268 664 226 q 756 370 737 310 q 776 506 776 431 z "},"Ð":{"ha":1072,"x_min":-3,"x_max":1031,"o":"m 506 181 q 626 203 573 181 q 715 268 678 226 q 771 370 751 310 q 790 506 790 431 q 771 642 790 581 q 715 744 751 702 q 626 809 678 786 q 506 831 573 831 l 349 831 l 349 572 l 518 572 l 518 444 l 349 444 l 349 181 l 506 181 m 506 1012 q 720 974 624 1012 q 886 868 817 935 q 993 708 955 801 q 1031 506 1031 615 q 993 304 1031 397 q 886 143 955 211 q 720 38 817 76 q 506 0 624 0 l 113 0 l 113 444 l -3 444 l -3 572 l 113 572 l 113 1012 l 506 1012 z "},"E":{"ha":796,"x_min":98,"x_max":749,"o":"m 334 831 l 334 595 l 652 595 l 652 422 l 334 422 l 334 181 l 749 181 l 749 0 l 98 0 l 98 1012 l 749 1012 l 749 831 l 334 831 z "},"Ę":{"ha":796,"x_min":98,"x_max":749,"o":"m 334 831 l 334 595 l 652 595 l 652 422 l 334 422 l 334 181 l 749 181 l 749 0 l 685 0 q 639 -36 658 -15 q 620 -85 620 -58 q 630 -111 620 -101 q 658 -122 639 -122 q 674 -121 668 -122 q 685 -119 681 -120 q 692 -117 689 -118 q 698 -116 694 -116 q 717 -129 713 -116 l 749 -206 q 689 -231 725 -221 q 612 -241 653 -241 q 499 -212 538 -241 q 460 -137 460 -183 q 484 -67 460 -102 q 560 0 508 -31 l 98 0 l 98 1012 l 749 1012 l 749 831 l 334 831 z "},"F":{"ha":787,"x_min":98,"x_max":749,"o":"m 334 831 l 334 575 l 680 575 l 680 394 l 334 394 l 334 0 l 98 0 l 98 1012 l 749 1012 l 749 831 l 334 831 z "},"G":{"ha":1003,"x_min":40,"x_max":951,"o":"m 584 524 l 944 524 l 944 97 q 778 15 866 40 q 594 -11 690 -11 q 367 28 469 -11 q 192 136 265 67 q 79 300 119 206 q 40 506 40 395 q 77 714 40 619 q 184 878 115 809 q 353 985 254 947 q 574 1023 452 1023 q 693 1013 638 1023 q 795 984 749 1002 q 881 941 842 966 q 951 887 920 916 l 883 783 q 841 753 867 759 q 787 766 816 748 q 734 795 759 783 q 684 815 710 807 q 630 826 658 822 q 566 829 601 829 q 447 806 500 829 q 357 740 394 783 q 300 639 320 698 q 280 506 280 579 q 302 363 280 426 q 365 258 324 301 q 462 192 406 215 q 588 169 519 169 q 664 178 630 169 q 731 200 699 186 l 731 353 l 631 353 q 597 365 609 353 q 584 395 584 377 l 584 524 z "},"H":{"ha":1079,"x_min":98,"x_max":981,"o":"m 981 1012 l 981 0 l 745 0 l 745 428 l 334 428 l 334 0 l 98 0 l 98 1012 l 334 1012 l 334 589 l 745 589 l 745 1012 l 981 1012 z "},"Ħ":{"ha":1096,"x_min":9,"x_max":1087,"o":"m 753 718 l 342 718 l 342 589 l 753 589 l 753 718 m 1087 718 l 990 718 l 990 0 l 753 0 l 753 428 l 342 428 l 342 0 l 106 0 l 106 718 l 9 718 l 9 850 l 106 850 l 106 1012 l 342 1012 l 342 850 l 753 850 l 753 1012 l 990 1012 l 990 850 l 1087 850 l 1087 718 z "},"I":{"ha":432,"x_min":98,"x_max":334,"o":"m 334 0 l 98 0 l 98 1012 l 334 1012 l 334 0 z "},"Į":{"ha":432,"x_min":73,"x_max":362,"o":"m 362 -206 q 301 -231 338 -221 q 224 -241 265 -241 q 111 -212 150 -241 q 73 -137 73 -183 q 97 -67 73 -102 q 172 0 120 -31 l 98 0 l 98 1012 l 334 1012 l 334 0 l 298 0 q 252 -36 271 -15 q 233 -85 233 -58 q 242 -111 233 -101 q 270 -122 251 -122 q 287 -121 281 -122 q 297 -119 293 -120 q 304 -117 301 -118 q 310 -116 307 -116 q 330 -129 325 -116 l 362 -206 z "},"J":{"ha":605,"x_min":14,"x_max":517,"o":"m 517 367 q 495 213 517 282 q 432 93 474 143 q 324 16 389 44 q 172 -11 260 -11 q 94 -7 133 -11 q 14 7 56 -3 l 26 144 q 41 173 28 162 q 76 184 53 184 q 106 180 88 184 q 147 176 123 176 q 207 186 181 176 q 249 217 232 195 q 274 274 265 239 q 282 362 282 310 l 282 1012 l 517 1012 l 517 367 z "},"K":{"ha":981,"x_min":98,"x_max":1003,"o":"m 333 602 l 370 602 q 445 635 422 602 l 673 965 q 716 1002 693 992 q 774 1012 740 1012 l 978 1012 l 678 603 q 610 542 647 560 q 658 515 636 532 q 698 469 679 497 l 1003 0 l 794 0 q 759 3 774 0 q 735 11 745 6 q 717 25 724 17 q 702 43 709 33 l 473 395 q 441 423 460 415 q 390 431 422 431 l 333 431 l 333 0 l 98 0 l 98 1012 l 333 1012 l 333 602 z "},"L":{"ha":729,"x_min":98,"x_max":708,"o":"m 708 188 l 708 0 l 98 0 l 98 1012 l 333 1012 l 333 188 l 708 188 z "},"Ł":{"ha":753,"x_min":1,"x_max":732,"o":"m 732 188 l 732 0 l 122 0 l 122 351 l 1 292 l 1 450 q 26 488 1 477 l 122 537 l 122 1012 l 357 1012 l 357 641 l 589 756 l 589 601 q 561 558 589 569 l 357 453 l 357 188 l 732 188 z "},"Ľ":{"ha":729,"x_min":98,"x_max":708,"o":"m 708 188 l 708 0 l 98 0 l 98 1012 l 333 1012 l 333 188 l 708 188 m 606 1041 q 624 1038 617 1041 q 634 1031 631 1035 q 639 1022 638 1026 q 640 1013 640 1017 q 637 997 640 1007 q 627 966 635 986 q 604 912 619 946 q 565 826 589 878 q 535 796 553 803 q 491 790 518 790 l 415 790 l 460 1041 l 606 1041 z "},"M":{"ha":1333,"x_min":98,"x_max":1235,"o":"m 1235 1012 l 1235 0 l 1028 0 l 1028 582 q 1030 626 1028 602 q 1033 674 1031 649 l 765 153 q 731 117 752 129 q 683 104 710 104 l 651 104 q 602 117 624 104 q 569 153 581 129 l 300 675 q 303 626 302 650 q 305 582 305 602 l 305 0 l 98 0 l 98 1012 l 277 1012 q 304 1011 292 1012 q 324 1007 315 1010 q 341 996 333 1003 q 355 976 348 989 l 615 463 q 642 408 629 436 q 667 349 655 379 q 691 409 678 380 q 719 465 704 438 l 978 976 q 993 996 985 989 q 1009 1007 1000 1003 q 1030 1011 1018 1010 q 1056 1012 1041 1012 l 1235 1012 z "},"N":{"ha":1079,"x_min":98,"x_max":981,"o":"m 981 1012 l 981 0 l 859 0 q 814 9 832 0 q 777 39 795 17 l 300 642 q 304 590 303 615 q 305 542 305 565 l 305 0 l 98 0 l 98 1012 l 222 1012 q 247 1010 237 1012 q 266 1005 258 1009 q 282 994 274 1001 q 299 976 290 988 l 781 368 q 776 425 777 397 q 774 476 774 452 l 774 1012 l 981 1012 z "},"Ŋ":{"ha":1079,"x_min":98,"x_max":981,"o":"m 981 1012 l 981 45 q 966 -72 981 -18 q 918 -164 951 -125 q 832 -225 885 -203 q 703 -247 779 -247 q 666 -245 683 -247 q 631 -240 648 -244 q 598 -231 615 -237 q 563 -217 581 -225 l 586 -126 q 605 -94 593 -102 q 633 -87 617 -87 q 644 -88 639 -87 q 654 -90 649 -89 q 667 -93 660 -92 q 683 -94 674 -94 q 751 -66 729 -94 q 774 21 774 -38 l 774 43 l 300 642 q 304 590 303 615 q 305 542 305 565 l 305 0 l 98 0 l 98 1012 l 222 1012 q 247 1010 237 1012 q 266 1005 258 1009 q 282 994 274 1001 q 299 976 290 988 l 781 368 q 776 425 777 397 q 774 476 774 452 l 774 1012 l 981 1012 z "},"O":{"ha":1131,"x_min":40,"x_max":1091,"o":"m 1091 506 q 1053 302 1091 397 q 947 138 1015 208 q 781 28 878 68 q 566 -11 684 -11 q 351 28 448 -11 q 184 138 253 68 q 77 302 115 208 q 40 506 40 397 q 77 710 40 616 q 184 874 115 805 q 351 983 253 944 q 566 1023 448 1023 q 781 983 684 1023 q 947 874 878 943 q 1053 710 1015 804 q 1091 506 1091 615 m 851 506 q 831 641 851 581 q 775 743 812 701 q 686 807 739 785 q 566 829 633 829 q 445 807 498 829 q 355 743 392 785 q 299 641 319 701 q 280 506 280 581 q 299 370 280 431 q 355 269 319 310 q 445 205 392 227 q 566 183 498 183 q 686 205 633 183 q 775 269 739 227 q 831 370 812 310 q 851 506 851 431 z "},"Ø":{"ha":1131,"x_min":40,"x_max":1091,"o":"m 452 203 q 506 188 477 193 q 566 183 534 183 q 686 205 633 183 q 775 269 739 227 q 831 370 812 310 q 851 506 851 431 q 808 697 851 619 l 452 203 m 705 799 q 566 829 645 829 q 445 807 498 829 q 355 743 392 785 q 299 641 319 701 q 280 506 280 581 q 338 290 280 373 l 705 799 m 940 881 q 1052 715 1013 810 q 1091 506 1091 619 q 1053 302 1091 397 q 947 138 1015 208 q 781 28 878 68 q 566 -11 684 -11 q 442 1 501 -11 q 332 37 384 13 l 292 -19 q 233 -65 267 -51 q 165 -78 198 -78 l 73 -78 l 211 113 q 84 285 129 184 q 40 506 40 385 q 77 710 40 616 q 184 874 115 805 q 351 983 253 944 q 566 1023 448 1023 q 704 1008 640 1023 q 824 964 768 992 l 852 1003 q 873 1028 863 1018 q 892 1045 882 1039 q 916 1055 903 1052 q 948 1058 929 1058 l 1067 1058 l 940 881 z "},"Œ":{"ha":1491,"x_min":42,"x_max":1444,"o":"m 539 176 q 647 200 599 176 q 726 266 694 223 q 776 369 759 308 q 793 506 793 431 q 776 642 793 581 q 726 746 759 703 q 647 812 694 789 q 539 835 599 835 q 430 812 477 835 q 349 746 382 789 q 299 642 316 703 q 282 506 282 581 q 299 369 282 431 q 349 266 316 308 q 430 200 382 223 q 539 176 477 176 m 1029 831 l 1029 595 l 1347 595 l 1347 422 l 1029 422 l 1029 181 l 1444 181 l 1444 0 l 821 0 l 821 103 q 684 19 761 49 q 515 -11 608 -11 q 321 28 408 -11 q 172 138 234 68 q 76 302 110 208 q 42 506 42 397 q 76 710 42 616 q 172 874 110 805 q 321 983 234 944 q 515 1023 408 1023 q 684 993 608 1023 q 821 909 761 963 l 821 1012 l 1444 1012 l 1444 831 l 1029 831 z "},"P":{"ha":883,"x_min":98,"x_max":862,"o":"m 455 515 q 587 559 547 515 q 627 681 627 603 q 617 744 627 716 q 585 793 606 773 q 532 825 564 814 q 455 836 499 836 l 333 836 l 333 515 l 455 515 m 455 1012 q 639 986 562 1012 q 765 917 715 961 q 838 812 815 872 q 862 681 862 751 q 838 542 862 606 q 763 434 813 479 q 636 364 713 389 q 455 338 560 338 l 333 338 l 333 0 l 98 0 l 98 1012 l 455 1012 z "},"Þ":{"ha":877,"x_min":98,"x_max":862,"o":"m 455 352 q 587 396 547 352 q 627 518 627 440 q 617 581 627 553 q 585 630 606 610 q 532 662 564 651 q 455 673 499 673 l 333 673 l 333 352 l 455 352 m 455 849 q 639 823 562 849 q 765 753 715 798 q 838 649 815 709 q 862 518 862 588 q 838 379 862 442 q 763 271 813 316 q 636 200 713 226 q 455 175 560 175 l 333 175 l 333 0 l 98 0 l 98 1012 l 333 1012 l 333 849 l 455 849 z "},"Q":{"ha":1132,"x_min":40,"x_max":1149,"o":"m 281 506 q 300 370 281 431 q 356 269 319 310 q 445 205 392 227 q 567 183 499 183 q 687 205 634 183 q 776 269 740 227 q 832 370 813 310 q 851 506 851 431 q 832 641 851 581 q 776 743 813 701 q 687 807 740 785 q 567 829 634 829 q 445 807 499 829 q 356 743 392 785 q 300 641 319 701 q 281 506 281 581 m 1149 -190 l 956 -190 q 881 -179 914 -190 q 819 -139 848 -168 l 694 2 q 567 -11 635 -11 q 351 28 449 -11 q 185 138 254 68 q 78 302 116 208 q 40 506 40 397 q 78 710 40 616 q 185 874 116 805 q 351 983 254 944 q 567 1023 449 1023 q 782 983 685 1023 q 947 874 878 943 q 1054 710 1016 804 q 1092 506 1092 615 q 1078 381 1092 441 q 1039 268 1065 321 q 977 170 1014 215 q 892 90 940 125 l 1149 -190 z "},"R":{"ha":913,"x_min":98,"x_max":926,"o":"m 427 536 q 509 548 475 536 q 564 582 542 560 q 595 632 585 603 q 605 694 605 661 q 561 799 605 761 q 427 836 518 836 l 333 836 l 333 536 l 427 536 m 926 0 l 713 0 q 628 44 654 0 l 460 338 q 434 366 449 357 q 392 374 419 374 l 333 374 l 333 0 l 98 0 l 98 1012 l 427 1012 q 614 989 537 1012 q 741 926 692 967 q 812 831 790 886 q 834 712 834 776 q 821 619 834 663 q 782 538 808 575 q 718 472 756 501 q 631 424 681 442 q 674 394 654 412 q 710 352 694 376 l 926 0 z "},"S":{"ha":769,"x_min":19,"x_max":729,"o":"m 657 806 q 635 781 647 790 q 606 773 624 773 q 571 783 590 773 q 530 806 553 793 q 476 828 506 818 q 408 838 447 838 q 310 810 342 838 q 278 734 278 782 q 297 683 278 703 q 348 649 317 663 q 420 622 380 634 q 503 595 461 610 q 586 560 546 580 q 659 508 627 540 q 710 432 690 477 q 729 324 729 388 q 705 193 729 254 q 634 86 681 132 q 520 15 588 41 q 367 -11 453 -11 q 270 -1 319 -11 q 176 26 222 8 q 90 68 130 44 q 19 122 49 92 l 89 232 q 111 252 97 244 q 140 260 124 260 q 182 247 161 260 q 230 217 203 233 q 292 188 257 201 q 374 175 326 175 q 473 203 438 175 q 508 292 508 231 q 489 350 508 328 q 438 387 469 372 q 366 413 406 401 q 283 437 326 424 q 201 470 241 451 q 129 523 160 490 q 78 603 97 555 q 58 722 58 651 q 81 833 58 779 q 149 930 104 888 q 258 998 193 972 q 406 1023 322 1023 q 496 1016 452 1023 q 580 994 540 1008 q 654 960 619 980 q 715 915 688 940 l 657 806 z "},"Ş":{"ha":769,"x_min":19,"x_max":729,"o":"m 657 806 q 635 781 647 790 q 606 773 624 773 q 571 783 590 773 q 530 806 553 793 q 476 828 506 818 q 408 838 447 838 q 310 810 342 838 q 278 734 278 782 q 297 683 278 703 q 348 649 317 663 q 420 622 380 634 q 503 595 461 610 q 586 560 546 580 q 659 508 627 540 q 710 432 690 477 q 729 324 729 388 q 710 208 729 263 q 656 110 692 153 q 567 37 620 67 q 447 -4 515 7 l 440 -35 q 495 -54 473 -43 q 530 -79 517 -65 q 548 -108 542 -92 q 553 -142 553 -124 q 540 -185 553 -166 q 502 -219 526 -205 q 443 -240 478 -233 q 367 -247 409 -247 q 315 -244 339 -247 q 265 -236 291 -242 l 284 -172 q 308 -153 288 -153 q 328 -155 318 -153 q 352 -158 338 -158 q 378 -151 370 -158 q 385 -137 385 -145 q 364 -115 385 -122 q 292 -101 343 -108 l 324 -9 q 238 6 281 -5 q 156 34 195 17 q 81 73 116 51 q 19 122 47 96 l 89 232 q 111 252 97 244 q 140 260 124 260 q 182 247 161 260 q 230 217 203 233 q 292 188 257 201 q 374 175 326 175 q 473 203 438 175 q 508 292 508 231 q 489 350 508 328 q 438 387 469 372 q 366 413 406 401 q 283 437 326 424 q 201 470 241 451 q 129 523 160 490 q 78 603 97 555 q 58 722 58 651 q 81 833 58 779 q 149 930 104 888 q 258 998 193 972 q 406 1023 322 1023 q 496 1016 452 1023 q 580 994 540 1008 q 654 960 619 980 q 715 915 688 940 l 657 806 z "},"T":{"ha":846,"x_min":21,"x_max":825,"o":"m 825 826 l 540 826 l 540 0 l 306 0 l 306 826 l 21 826 l 21 1012 l 825 1012 l 825 826 z "},"Ŧ":{"ha":860,"x_min":28,"x_max":832,"o":"m 547 826 l 547 593 l 756 593 l 756 465 l 547 465 l 547 0 l 313 0 l 313 465 l 104 465 l 104 593 l 313 593 l 313 826 l 28 826 l 28 1012 l 832 1012 l 832 826 l 547 826 z "},"U":{"ha":1040,"x_min":85,"x_max":955,"o":"m 520 185 q 605 201 567 185 q 667 246 642 217 q 707 317 693 275 q 720 413 720 359 l 720 1012 l 955 1012 l 955 413 q 925 242 955 319 q 838 108 894 164 q 701 20 782 51 q 520 -11 621 -11 q 338 20 419 -11 q 201 108 258 51 q 115 242 145 164 q 85 413 85 319 l 85 1012 l 320 1012 l 320 413 q 334 318 320 360 q 373 246 347 276 q 436 201 399 217 q 520 185 473 185 z "},"Ų":{"ha":1040,"x_min":85,"x_max":955,"o":"m 955 1012 l 955 413 q 932 261 955 331 q 865 137 908 191 q 757 46 821 83 q 614 -3 694 10 q 572 -39 589 -18 q 555 -85 555 -60 q 564 -111 555 -101 q 592 -122 574 -122 q 609 -121 603 -122 q 619 -119 615 -120 q 626 -117 624 -118 q 633 -116 629 -116 q 652 -129 647 -116 l 684 -206 q 624 -231 660 -221 q 547 -241 588 -241 q 434 -212 472 -241 q 395 -137 395 -183 q 415 -72 395 -104 q 479 -10 435 -39 q 314 31 388 -3 q 190 120 241 65 q 113 250 140 176 q 85 413 85 324 l 85 1012 l 320 1012 l 320 413 q 334 318 320 360 q 373 246 347 276 q 436 201 399 217 q 520 185 473 185 q 605 201 567 185 q 667 246 642 217 q 707 317 693 275 q 720 413 720 359 l 720 1012 l 955 1012 z "},"V":{"ha":988,"x_min":-18,"x_max":1006,"o":"m 1006 1012 l 600 0 l 388 0 l -18 1012 l 171 1012 q 220 998 201 1012 q 249 961 239 983 l 444 419 q 472 342 458 384 q 497 254 485 300 q 518 342 506 300 q 544 419 531 384 l 739 961 q 766 996 747 981 q 815 1012 786 1012 l 1006 1012 z "},"W":{"ha":1479,"x_min":3,"x_max":1476,"o":"m 1476 1012 l 1164 0 l 951 0 l 761 627 q 751 659 756 642 q 741 697 746 677 q 731 659 736 677 q 721 627 726 642 l 528 0 l 315 0 l 3 1012 l 200 1012 q 251 998 231 1012 q 278 961 272 984 l 417 433 q 429 379 423 408 q 442 317 435 349 q 472 433 454 383 l 636 961 q 663 996 642 981 q 713 1012 683 1012 l 782 1012 q 831 998 813 1012 q 860 961 850 983 l 1022 433 q 1053 323 1040 385 q 1064 382 1058 354 q 1076 433 1070 409 l 1215 961 q 1242 997 1221 981 q 1292 1012 1263 1012 l 1476 1012 z "},"X":{"ha":958,"x_min":-9,"x_max":966,"o":"m 966 0 l 731 0 q 694 11 708 0 q 672 38 680 22 l 469 392 q 456 365 463 376 l 267 38 q 244 12 258 24 q 210 0 231 0 l -9 0 l 317 521 l 3 1012 l 238 1012 q 272 1006 261 1012 q 291 986 283 1000 l 492 645 q 500 663 496 654 q 510 680 505 671 l 687 983 q 707 1005 697 998 q 734 1012 718 1012 l 959 1012 l 642 531 l 966 0 z "},"Y":{"ha":931,"x_min":-19,"x_max":949,"o":"m 583 385 l 583 0 l 348 0 l 348 385 l -19 1012 l 188 1012 q 236 998 219 1012 q 266 961 254 983 l 409 667 q 442 602 427 632 q 467 542 456 572 q 491 602 478 572 q 523 667 505 633 l 665 961 q 676 979 669 970 q 693 995 683 988 q 714 1007 702 1003 q 741 1012 726 1012 l 949 1012 l 583 385 z "},"Z":{"ha":846,"x_min":19,"x_max":815,"o":"m 815 927 q 809 892 815 909 q 793 859 803 874 l 318 181 l 800 181 l 800 0 l 19 0 l 19 90 q 25 122 19 106 q 40 151 31 138 l 517 831 l 58 831 l 58 1012 l 815 1012 l 815 927 z "},"a":{"ha":719,"x_min":24,"x_max":654,"o":"m 444 293 q 338 282 380 290 q 272 261 297 274 q 239 233 248 249 q 229 198 229 217 q 249 146 229 161 q 308 131 269 131 q 381 146 350 131 q 444 193 413 160 l 444 293 m 57 620 q 202 706 122 678 q 372 734 281 734 q 490 713 438 734 q 579 654 542 692 q 635 564 615 616 q 654 450 654 512 l 654 0 l 556 0 q 509 8 525 0 q 483 43 494 17 l 468 83 q 416 42 441 60 q 364 13 391 25 q 307 -5 338 1 q 240 -11 277 -11 q 151 2 191 -11 q 82 40 110 15 q 39 102 54 65 q 24 188 24 139 q 43 266 24 226 q 110 339 63 306 q 240 394 158 372 q 444 419 321 417 l 444 450 q 418 541 444 513 q 344 569 392 569 q 282 561 306 569 q 239 542 258 553 q 201 524 219 532 q 158 515 183 515 q 121 526 136 515 q 96 553 106 538 l 57 620 z "},"ą":{"ha":719,"x_min":24,"x_max":718,"o":"m 444 293 q 338 282 380 290 q 272 261 297 274 q 239 233 248 249 q 229 198 229 217 q 249 146 229 161 q 308 131 269 131 q 381 146 350 131 q 444 193 413 160 l 444 293 m 718 -206 q 658 -231 694 -221 q 581 -241 622 -241 q 468 -212 506 -241 q 429 -137 429 -183 q 453 -66 429 -101 q 531 1 478 -30 q 502 14 513 5 q 483 43 491 23 l 468 83 q 416 42 441 60 q 364 13 391 25 q 307 -5 338 1 q 240 -11 277 -11 q 151 2 191 -11 q 82 40 110 15 q 39 102 54 65 q 24 188 24 139 q 43 266 24 226 q 110 339 63 306 q 240 394 158 372 q 444 419 321 417 l 444 450 q 418 541 444 513 q 344 569 392 569 q 282 561 306 569 q 239 542 258 553 q 201 524 219 532 q 158 515 183 515 q 121 526 136 515 q 96 553 106 538 l 57 620 q 202 706 122 678 q 372 734 281 734 q 490 713 438 734 q 579 654 542 692 q 635 564 615 616 q 654 450 654 512 l 654 0 q 608 -36 627 -15 q 589 -85 589 -58 q 598 -111 589 -101 q 626 -122 608 -122 q 643 -121 637 -122 q 653 -119 649 -120 q 660 -117 658 -118 q 667 -116 663 -116 q 686 -129 681 -116 l 718 -206 z "},"æ":{"ha":1131,"x_min":25,"x_max":1094,"o":"m 446 308 q 340 295 381 304 q 274 272 298 285 q 240 241 249 258 q 231 206 231 224 q 251 150 231 168 q 310 131 271 131 q 364 140 339 131 q 407 168 389 149 q 435 219 425 188 q 446 297 446 251 l 446 308 m 903 433 q 897 485 903 458 q 877 533 891 512 q 841 569 864 555 q 786 583 819 583 q 692 544 725 583 q 650 433 659 506 l 903 433 m 651 308 q 706 188 664 225 q 811 150 747 150 q 885 158 858 150 q 930 176 913 167 q 961 194 948 186 q 992 203 974 203 q 1035 184 1022 203 l 1093 113 q 1022 50 1060 74 q 944 13 984 26 q 866 -6 905 -1 q 790 -11 826 -11 q 720 -4 755 -11 q 653 19 685 3 q 593 59 622 35 q 542 117 565 83 q 489 59 520 83 q 422 19 458 35 q 343 -4 385 3 q 257 -11 301 -11 q 85 43 146 -11 q 25 195 25 97 q 44 275 25 234 q 112 350 64 316 q 241 408 160 385 q 446 434 322 431 l 446 450 q 420 544 446 513 q 346 576 394 576 q 283 566 308 576 q 240 545 259 557 q 203 525 221 534 q 160 515 185 515 q 122 526 138 515 q 97 553 107 538 l 58 620 q 194 706 124 678 q 350 734 265 734 q 481 707 429 734 q 563 632 533 680 q 661 705 603 678 q 796 731 719 731 q 915 707 860 731 q 1009 638 969 683 q 1072 530 1049 593 q 1094 388 1094 466 q 1092 348 1094 363 q 1085 324 1090 333 q 1071 311 1080 315 q 1047 308 1062 308 l 651 308 z "},"b":{"ha":798,"x_min":73,"x_max":760,"o":"m 288 196 q 341 158 313 169 q 399 147 369 147 q 455 159 429 147 q 499 196 481 170 q 528 265 517 222 q 538 370 538 308 q 530 462 538 424 q 507 524 522 500 q 468 559 491 548 q 415 569 444 569 q 346 552 375 569 q 288 501 317 535 l 288 196 m 288 644 q 380 707 330 683 q 490 731 429 731 q 601 706 551 731 q 687 635 651 681 q 741 524 722 589 q 760 378 760 458 q 738 219 760 290 q 675 96 716 147 q 578 17 635 45 q 454 -11 522 -11 q 396 -5 422 -11 q 349 13 370 1 q 309 40 327 24 q 275 75 292 56 l 267 39 q 249 8 262 17 q 216 0 237 0 l 73 0 l 73 1040 l 288 1040 l 288 644 z "},"c":{"ha":676,"x_min":35,"x_max":665,"o":"m 602 549 q 583 531 592 538 q 558 524 574 524 q 529 531 542 524 q 500 548 516 539 q 463 565 484 558 q 409 573 441 573 q 341 558 369 573 q 293 517 312 544 q 265 450 274 490 q 256 362 256 411 q 296 203 256 258 q 406 147 336 147 q 466 157 444 147 q 503 177 488 166 q 531 199 518 189 q 563 208 544 208 q 602 190 589 208 l 665 113 q 594 50 631 74 q 519 13 558 26 q 442 -6 481 -1 q 366 -11 403 -11 q 240 14 300 -11 q 134 86 180 39 q 62 203 89 134 q 35 362 35 273 q 59 507 35 440 q 127 625 82 575 q 240 703 173 674 q 395 731 307 731 q 544 704 480 731 q 659 625 608 677 l 602 549 z "},"ç":{"ha":677,"x_min":35,"x_max":665,"o":"m 665 113 q 609 61 638 82 q 550 26 581 40 q 489 4 520 12 q 428 -8 458 -4 l 421 -35 q 476 -54 454 -43 q 511 -79 498 -65 q 529 -108 524 -92 q 535 -142 535 -124 q 521 -185 535 -166 q 483 -219 508 -205 q 425 -240 459 -233 q 349 -247 390 -247 q 296 -244 320 -247 q 246 -236 272 -242 l 265 -172 q 289 -153 269 -153 q 309 -155 299 -153 q 333 -158 319 -158 q 359 -151 351 -158 q 367 -137 367 -145 q 345 -115 367 -122 q 274 -101 324 -108 l 306 -6 q 201 34 250 5 q 115 110 151 63 q 57 220 78 156 q 35 362 35 283 q 59 507 35 440 q 127 625 82 575 q 240 703 173 674 q 395 731 307 731 q 544 704 480 731 q 659 625 608 677 l 602 549 q 583 531 592 538 q 558 524 574 524 q 529 531 542 524 q 500 548 516 539 q 463 565 484 558 q 409 573 441 573 q 341 558 369 573 q 293 517 312 544 q 265 450 274 490 q 256 362 256 411 q 296 203 256 258 q 406 147 336 147 q 466 157 444 147 q 503 177 488 166 q 531 199 518 189 q 563 208 544 208 q 602 190 589 208 l 665 113 z "},"d":{"ha":798,"x_min":38,"x_max":725,"o":"m 510 527 q 457 565 485 554 q 397 576 428 576 q 342 564 367 576 q 299 526 317 552 q 270 458 281 500 q 260 358 260 417 q 268 262 260 301 q 291 199 276 223 q 327 165 306 175 q 374 154 348 154 q 416 159 397 154 q 451 172 435 163 q 482 193 467 180 q 510 222 496 206 l 510 527 m 725 1040 l 725 0 l 592 0 q 539 36 551 0 l 522 91 q 477 49 501 68 q 426 17 453 31 q 367 -4 399 3 q 299 -11 335 -11 q 194 14 242 -11 q 112 86 147 39 q 57 202 77 133 q 38 358 38 270 q 60 507 38 438 q 123 627 82 576 q 220 706 163 677 q 346 734 277 734 q 440 718 402 734 q 510 675 478 702 l 510 1040 l 725 1040 z "},"ď":{"ha":797,"x_min":38,"x_max":988,"o":"m 510 527 q 457 565 485 554 q 397 576 428 576 q 342 564 367 576 q 299 526 317 552 q 270 458 281 500 q 260 358 260 417 q 268 262 260 301 q 291 199 276 223 q 327 165 306 175 q 374 154 348 154 q 416 159 397 154 q 451 172 435 163 q 482 193 467 180 q 510 222 496 206 l 510 527 m 725 1040 l 725 0 l 592 0 q 539 36 551 0 l 522 91 q 477 49 501 68 q 426 17 453 31 q 367 -4 399 3 q 299 -11 335 -11 q 194 14 242 -11 q 112 86 147 39 q 57 202 77 133 q 38 358 38 270 q 60 507 38 438 q 123 627 82 576 q 220 706 163 677 q 346 734 277 734 q 440 718 402 734 q 510 675 478 702 l 510 1040 l 725 1040 m 954 1041 q 972 1038 965 1041 q 982 1031 979 1035 q 986 1022 985 1026 q 988 1013 988 1017 q 985 997 988 1007 q 975 966 983 986 q 952 912 967 946 q 913 826 937 878 q 883 796 901 803 q 839 790 866 790 l 763 790 l 808 1041 l 954 1041 z "},"đ":{"ha":799,"x_min":39,"x_max":824,"o":"m 511 501 q 458 538 487 527 q 399 549 430 549 q 344 540 369 549 q 300 506 319 530 q 272 443 282 483 q 261 344 261 403 q 269 251 261 288 q 293 192 278 214 q 328 163 308 171 q 375 154 349 154 q 418 159 399 154 q 453 172 437 163 q 483 193 469 180 q 511 222 497 206 l 511 501 m 824 779 l 726 779 l 726 0 l 593 0 q 540 36 553 0 l 524 91 q 478 49 502 68 q 427 17 455 31 q 368 -4 400 3 q 300 -11 337 -11 q 196 12 244 -11 q 113 80 148 35 q 59 191 78 124 q 39 344 39 257 q 61 492 39 425 q 124 607 83 559 q 222 681 165 655 q 347 708 278 708 q 442 692 403 708 q 511 649 480 676 l 511 779 l 360 779 l 360 907 l 511 907 l 511 1040 l 726 1040 l 726 907 l 824 907 l 824 779 z "},"ð":{"ha":798,"x_min":33,"x_max":758,"o":"m 391 147 q 451 159 422 147 q 502 198 480 170 q 538 272 524 225 q 554 390 552 319 q 497 462 534 433 q 401 491 460 491 q 334 478 363 491 q 286 444 306 466 q 257 394 267 423 q 247 332 247 365 q 258 252 247 287 q 288 194 269 217 q 334 159 308 171 q 391 147 360 147 m 595 835 q 714 661 671 763 q 758 424 758 560 q 733 239 758 320 q 661 102 708 158 q 544 18 613 47 q 385 -11 474 -11 q 245 12 310 -11 q 133 80 181 35 q 59 188 86 124 q 33 333 33 252 q 56 453 33 396 q 122 554 79 510 q 224 624 165 598 q 356 649 284 649 q 468 630 419 649 q 556 576 517 611 q 513 676 542 633 q 430 755 483 720 l 283 669 l 242 735 q 235 773 230 756 q 262 802 241 791 l 294 818 q 266 827 280 822 q 237 835 252 831 q 211 848 223 840 q 194 867 200 856 q 188 895 188 879 q 195 933 188 912 l 220 1004 q 361 970 294 992 q 488 914 428 948 l 615 988 l 658 920 q 664 885 669 902 q 641 858 659 867 l 595 835 z "},"e":{"ha":749,"x_min":35,"x_max":714,"o":"m 521 447 q 514 497 521 472 q 493 540 508 521 q 453 571 478 559 q 394 583 429 583 q 299 548 333 583 q 253 447 264 513 l 521 447 m 250 322 q 305 191 260 231 q 419 150 349 150 q 484 159 457 150 q 532 179 511 168 q 571 199 553 190 q 608 208 589 208 q 647 190 634 208 l 710 113 q 638 50 676 74 q 559 13 599 26 q 477 -6 518 -1 q 400 -11 437 -11 q 258 14 324 -11 q 142 87 192 38 q 64 208 92 135 q 35 376 35 280 q 59 513 35 448 q 130 626 84 577 q 242 703 176 674 q 390 731 308 731 q 521 709 462 731 q 623 644 581 687 q 690 541 666 602 q 714 401 714 479 q 712 362 714 377 q 704 338 710 347 q 689 325 699 328 q 665 322 680 322 l 250 322 z "},"ę":{"ha":749,"x_min":35,"x_max":714,"o":"m 521 447 q 514 497 521 472 q 493 540 508 521 q 453 571 478 559 q 394 583 429 583 q 299 548 333 583 q 253 447 264 513 l 521 447 m 250 322 q 305 191 260 231 q 419 150 349 150 q 484 159 457 150 q 532 179 511 168 q 571 199 553 190 q 608 208 589 208 q 647 190 634 208 l 710 113 q 659 66 686 85 q 605 32 633 46 q 547 9 576 18 q 490 -4 518 1 q 449 -40 465 -19 q 432 -85 432 -60 q 441 -111 432 -101 q 469 -122 451 -122 q 486 -121 480 -122 q 497 -119 492 -120 q 503 -117 501 -118 q 510 -116 506 -116 q 529 -129 524 -116 l 561 -206 q 501 -231 537 -221 q 424 -241 465 -241 q 311 -212 349 -241 q 272 -137 272 -183 q 293 -71 272 -104 q 357 -9 313 -38 q 230 25 289 -3 q 128 101 172 53 q 60 218 85 150 q 35 376 35 287 q 59 513 35 448 q 130 626 84 577 q 242 703 176 674 q 390 731 308 731 q 521 709 462 731 q 623 644 581 687 q 690 541 666 602 q 714 401 714 479 q 712 362 714 377 q 704 338 710 347 q 689 325 699 328 q 665 322 680 322 l 250 322 z "},"f":{"ha":508,"x_min":25,"x_max":510,"o":"m 126 0 l 126 572 l 79 582 q 40 599 55 588 q 25 634 25 611 l 25 719 l 126 719 l 126 760 q 146 872 126 822 q 203 957 166 922 q 294 1012 240 992 q 415 1031 347 1031 q 464 1028 442 1031 q 510 1018 486 1025 l 506 913 q 501 895 506 902 q 488 883 496 888 q 471 876 480 878 q 453 874 462 874 q 402 869 424 874 q 365 849 380 863 q 342 811 350 835 q 335 753 335 788 l 335 719 l 503 719 l 503 572 l 342 572 l 342 0 l 126 0 z "},"ﬀ":{"ha":969,"x_min":25,"x_max":972,"o":"m 126 0 l 126 572 l 79 582 q 40 599 55 588 q 25 634 25 611 l 25 719 l 126 719 l 126 746 q 146 858 126 808 q 203 944 166 908 q 294 998 240 979 q 415 1017 347 1017 q 464 1014 442 1017 q 510 1005 486 1011 l 506 900 q 488 869 505 878 q 453 860 471 860 q 402 855 424 860 q 365 835 380 849 q 342 798 350 822 q 335 740 335 775 l 335 719 l 588 719 l 588 773 q 607 885 588 835 q 664 970 627 935 q 755 1025 701 1006 q 876 1044 808 1044 q 925 1041 903 1044 q 972 1031 947 1038 l 967 926 q 962 908 967 915 q 949 896 957 901 q 932 890 941 892 q 914 888 923 888 q 863 882 885 888 q 826 862 841 876 q 803 825 811 848 q 796 766 796 801 l 796 719 l 965 719 l 965 572 l 803 572 l 803 0 l 588 0 l 588 572 l 342 572 l 342 0 l 126 0 z "},"ﬁ":{"ha":870,"x_min":25,"x_max":792,"o":"m 126 0 l 126 572 l 79 582 q 40 599 55 588 q 25 634 25 611 l 25 719 l 126 719 l 126 729 q 149 852 126 794 q 219 953 172 910 q 339 1021 266 996 q 514 1046 413 1046 q 578 1043 545 1046 q 636 1033 612 1040 l 629 924 q 612 901 628 907 q 578 896 596 896 q 458 885 506 896 q 384 852 411 874 q 345 797 356 830 q 335 722 335 765 l 335 719 l 792 719 l 792 0 l 576 0 l 576 572 l 342 572 l 342 0 l 126 0 z "},"ﬃ":{"ha":1331,"x_min":25,"x_max":1253,"o":"m 126 0 l 126 572 l 79 582 q 40 599 55 588 q 25 634 25 611 l 25 719 l 126 719 l 126 746 q 146 858 126 808 q 203 944 166 908 q 294 998 240 979 q 415 1017 347 1017 q 464 1014 442 1017 q 510 1005 486 1011 l 506 900 q 488 869 505 878 q 453 860 471 860 q 402 855 424 860 q 365 835 380 849 q 342 798 350 822 q 335 740 335 775 l 335 719 l 588 719 l 588 729 q 610 852 588 794 q 680 953 633 910 q 800 1021 727 996 q 975 1046 874 1046 q 1040 1043 1006 1046 q 1097 1033 1073 1040 l 1090 924 q 1073 901 1089 907 q 1039 896 1057 896 q 919 885 967 896 q 845 852 872 874 q 807 797 817 830 q 796 722 796 765 l 796 719 l 1253 719 l 1253 0 l 1038 0 l 1038 572 l 803 572 l 803 0 l 588 0 l 588 572 l 342 572 l 342 0 l 126 0 z "},"ﬂ":{"ha":878,"x_min":25,"x_max":806,"o":"m 126 0 l 126 572 l 79 582 q 40 599 55 588 q 25 634 25 611 l 25 719 l 126 719 l 126 744 q 144 851 126 799 q 200 944 163 903 q 296 1009 238 985 q 435 1034 354 1034 q 563 1030 503 1034 q 685 1026 623 1026 l 806 1026 l 806 0 l 592 0 l 592 881 q 523 884 556 883 q 469 886 490 886 q 369 850 403 886 q 335 744 335 813 l 335 719 l 490 719 l 490 572 l 342 572 l 342 0 l 126 0 z "},"ﬄ":{"ha":1340,"x_min":25,"x_max":1267,"o":"m 126 0 l 126 572 l 79 582 q 40 599 55 588 q 25 634 25 611 l 25 719 l 126 719 l 126 746 q 146 858 126 808 q 203 944 166 908 q 294 998 240 979 q 415 1017 347 1017 q 464 1014 442 1017 q 510 1005 486 1011 l 506 900 q 488 869 505 878 q 453 860 471 860 q 402 855 424 860 q 365 835 380 849 q 342 798 350 822 q 335 740 335 775 l 335 719 l 588 719 l 588 744 q 606 851 588 799 q 661 944 624 903 q 757 1009 699 985 q 896 1034 815 1034 q 1015 1030 958 1034 q 1127 1026 1071 1026 l 1267 1026 l 1267 0 l 1053 0 l 1053 881 q 984 884 1017 883 q 931 886 951 886 q 830 850 865 886 q 796 744 796 813 l 796 719 l 965 719 l 965 572 l 803 572 l 803 0 l 588 0 l 588 572 l 342 572 l 342 0 l 126 0 z "},"g":{"ha":744,"x_min":26,"x_max":726,"o":"m 347 398 q 425 425 401 398 q 449 494 449 451 q 425 563 449 538 q 347 588 401 588 q 270 563 294 588 q 246 494 246 538 q 252 456 246 473 q 270 425 258 438 q 302 405 283 413 q 347 398 321 398 m 514 -26 q 491 11 514 -1 q 431 27 468 22 q 349 33 394 32 q 258 38 303 34 q 225 7 238 24 q 213 -31 213 -10 q 219 -59 213 -47 q 242 -81 226 -72 q 287 -95 259 -90 q 358 -100 315 -100 q 435 -94 405 -100 q 482 -79 465 -89 q 507 -56 500 -69 q 514 -26 514 -42 m 726 698 l 726 619 q 716 591 726 601 q 682 575 706 581 l 630 563 q 636 532 634 548 q 639 499 639 516 q 616 401 639 444 q 555 328 594 358 q 462 282 515 298 q 347 265 408 265 q 315 266 331 265 q 283 270 299 267 q 260 238 260 256 q 279 211 260 219 q 331 200 299 203 q 403 196 363 197 q 486 191 444 195 q 569 178 528 188 q 642 149 610 169 q 693 95 674 129 q 713 10 713 62 q 689 -85 713 -39 q 619 -168 665 -132 q 507 -226 574 -204 q 354 -248 440 -248 q 208 -232 269 -248 q 106 -190 147 -216 q 46 -130 65 -164 q 26 -59 26 -96 q 54 21 26 -11 q 132 72 82 53 q 90 113 106 88 q 75 178 75 138 q 81 211 75 194 q 98 246 86 229 q 128 278 110 263 q 172 306 147 294 q 83 384 115 335 q 50 499 50 433 q 73 596 50 553 q 136 670 96 640 q 230 716 176 700 q 347 733 284 733 q 510 698 439 733 l 726 698 z "},"h":{"ha":792,"x_min":73,"x_max":726,"o":"m 288 657 q 373 711 327 690 q 481 731 418 731 q 586 711 540 731 q 663 654 631 690 q 710 567 694 617 q 726 458 726 517 l 726 0 l 510 0 l 510 458 q 486 540 510 510 q 415 569 462 569 q 348 555 379 569 q 288 514 317 540 l 288 0 l 73 0 l 73 1040 l 288 1040 l 288 657 z "},"ĥ":{"ha":792,"x_min":-88,"x_max":726,"o":"m 288 657 q 373 711 327 690 q 481 731 418 731 q 586 711 540 731 q 663 654 631 690 q 710 567 694 617 q 726 458 726 517 l 726 0 l 510 0 l 510 458 q 486 540 510 510 q 415 569 462 569 q 348 555 379 569 q 288 514 317 540 l 288 0 l 73 0 l 73 1040 l 288 1040 l 288 657 m 447 1077 l 291 1077 q 260 1082 278 1077 q 223 1109 242 1086 l 188 1163 q 182 1172 185 1168 q 176 1181 178 1176 q 170 1172 173 1176 q 163 1163 167 1168 l 128 1109 q 91 1082 109 1086 q 60 1077 73 1077 l -88 1077 l 81 1270 l 277 1270 l 447 1077 z "},"ħ":{"ha":792,"x_min":-21,"x_max":725,"o":"m 288 631 q 372 684 326 664 q 481 705 417 705 q 585 684 540 705 q 662 627 631 664 q 709 541 693 591 q 725 431 725 490 l 725 0 l 510 0 l 510 431 q 485 513 510 484 q 414 542 461 542 q 348 527 378 542 q 288 487 317 513 l 288 0 l 72 0 l 72 781 l -21 781 l -21 908 l 72 908 l 72 1040 l 288 1040 l 288 908 l 475 908 l 475 781 l 288 781 l 288 631 z "},"i":{"ha":371,"x_min":56,"x_max":315,"o":"m 293 720 l 293 0 l 78 0 l 78 720 l 293 720 m 315 917 q 305 869 315 892 q 276 830 294 847 q 234 802 258 813 q 183 792 210 792 q 134 802 157 792 q 93 830 111 813 q 66 869 76 847 q 56 917 56 892 q 66 967 56 944 q 93 1007 76 990 q 134 1034 111 1024 q 183 1044 157 1044 q 234 1034 210 1044 q 276 1007 258 1024 q 305 967 294 990 q 315 917 315 944 z "},"į":{"ha":371,"x_min":49,"x_max":338,"o":"m 183 792 q 134 802 157 792 q 93 830 111 813 q 66 869 76 847 q 56 917 56 892 q 66 967 56 944 q 93 1007 76 990 q 134 1034 111 1024 q 183 1044 157 1044 q 234 1034 210 1044 q 276 1007 258 1024 q 305 967 294 990 q 315 917 315 944 q 305 869 315 892 q 276 830 294 847 q 234 802 258 813 q 183 792 210 792 m 338 -206 q 277 -231 313 -221 q 200 -241 241 -241 q 87 -212 126 -241 q 49 -137 49 -183 q 72 -67 49 -102 q 148 0 96 -31 l 78 0 l 78 720 l 293 720 l 293 0 l 274 0 q 227 -36 247 -15 q 208 -85 208 -58 q 218 -111 208 -101 q 246 -122 227 -122 q 263 -121 256 -122 q 273 -119 269 -120 q 280 -117 277 -118 q 286 -116 283 -116 q 306 -129 301 -116 l 338 -206 z "},"ı":{"ha":372,"x_min":78,"x_max":294,"o":"m 294 720 l 294 0 l 78 0 l 78 720 l 294 720 z "},"j":{"ha":371,"x_min":-56,"x_max":315,"o":"m 293 720 l 293 -1 q 280 -97 293 -52 q 238 -175 267 -142 q 160 -228 208 -209 q 40 -248 112 -248 q -9 -245 14 -248 q -56 -235 -31 -242 l -49 -122 q -39 -101 -47 -108 q -6 -94 -31 -94 q 35 -90 19 -94 q 61 -75 51 -85 q 74 -47 70 -65 q 78 -1 78 -29 l 78 720 l 293 720 m 315 917 q 305 869 315 892 q 276 830 294 847 q 234 802 258 813 q 183 792 210 792 q 134 802 157 792 q 93 830 111 813 q 66 869 76 847 q 56 917 56 892 q 66 967 56 944 q 93 1007 76 990 q 134 1034 111 1024 q 183 1044 157 1044 q 234 1034 210 1044 q 276 1007 258 1024 q 305 967 294 990 q 315 917 315 944 z "},"ȷ":{"ha":372,"x_min":-55,"x_max":294,"o":"m 294 720 l 294 -1 q 281 -97 294 -52 q 239 -175 268 -142 q 161 -228 209 -209 q 41 -248 113 -248 q -8 -245 15 -248 q -55 -235 -31 -242 l -48 -122 q -38 -101 -47 -108 q -5 -94 -30 -94 q 36 -90 20 -94 q 61 -75 52 -85 q 75 -47 71 -65 q 78 -1 78 -29 l 78 720 l 294 720 z "},"k":{"ha":776,"x_min":73,"x_max":783,"o":"m 288 1040 l 288 457 l 320 457 q 351 463 340 457 q 372 483 361 469 l 508 685 q 536 711 520 703 q 577 720 552 720 l 774 720 l 588 464 q 526 407 562 429 q 555 380 542 395 q 580 344 568 364 l 783 0 l 588 0 q 547 8 564 0 q 517 36 529 16 l 381 291 q 361 314 372 308 q 330 319 351 319 l 288 319 l 288 0 l 73 0 l 73 1040 l 288 1040 z "},"ĸ":{"ha":776,"x_min":73,"x_max":783,"o":"m 288 720 l 288 457 l 320 457 q 351 463 340 457 q 372 483 361 469 l 508 685 q 536 711 520 703 q 577 720 552 720 l 774 720 l 588 464 q 526 407 562 429 q 555 380 542 395 q 580 344 568 364 l 783 0 l 588 0 q 547 8 564 0 q 517 36 529 16 l 381 291 q 361 314 372 308 q 330 319 351 319 l 288 319 l 288 0 l 73 0 l 73 720 l 288 720 z "},"ł":{"ha":485,"x_min":24,"x_max":465,"o":"m 465 731 l 465 610 q 438 567 465 577 l 348 531 l 348 0 l 133 0 l 133 458 l 24 416 l 24 540 q 49 578 24 568 l 133 613 l 133 1040 l 348 1040 l 348 685 l 465 731 z "},"ľ":{"ha":360,"x_min":73,"x_max":566,"o":"m 288 1040 l 288 0 l 73 0 l 73 1040 l 288 1040 m 533 1041 q 551 1038 544 1041 q 561 1031 558 1035 q 565 1022 564 1026 q 566 1013 566 1017 q 564 997 566 1007 q 553 966 561 986 q 530 912 545 946 q 491 826 515 878 q 462 796 479 803 q 417 790 444 790 l 341 790 l 387 1041 l 533 1041 z "},"m":{"ha":1182,"x_min":73,"x_max":1116,"o":"m 73 0 l 73 720 l 206 720 q 259 684 247 720 l 271 645 q 308 680 289 664 q 350 707 328 695 q 399 725 373 718 q 456 731 425 731 q 564 698 522 731 q 629 608 607 664 q 673 665 647 641 q 730 703 699 688 q 793 724 760 717 q 860 731 827 731 q 970 713 922 731 q 1050 659 1018 694 q 1099 573 1083 624 q 1116 458 1116 522 l 1116 0 l 901 0 l 901 458 q 805 569 901 569 q 732 541 761 569 q 703 458 703 512 l 703 0 l 488 0 l 488 458 q 464 544 488 519 q 392 569 440 569 q 337 556 363 569 q 288 521 311 543 l 288 0 l 73 0 z "},"n":{"ha":792,"x_min":73,"x_max":726,"o":"m 272 642 q 315 678 292 662 q 362 707 337 695 q 417 725 388 718 q 481 731 447 731 q 586 711 540 731 q 663 654 631 690 q 710 567 694 617 q 726 458 726 517 l 726 0 l 510 0 l 510 458 q 486 540 510 510 q 415 569 462 569 q 348 555 379 569 q 288 514 317 540 l 288 0 l 73 0 l 73 720 l 206 720 q 259 684 247 720 l 272 642 z "},"ŋ":{"ha":792,"x_min":73,"x_max":726,"o":"m 272 642 q 315 678 292 662 q 362 707 337 695 q 417 725 388 718 q 481 731 447 731 q 586 711 540 731 q 663 654 631 690 q 710 567 694 617 q 726 458 726 517 l 726 45 q 710 -72 726 -18 q 659 -165 694 -126 q 570 -226 624 -203 q 440 -248 516 -248 q 402 -246 420 -248 q 368 -241 385 -244 q 335 -232 351 -237 q 299 -218 318 -226 l 323 -127 q 342 -95 330 -103 q 369 -87 354 -87 q 381 -89 376 -87 q 391 -91 385 -90 q 403 -93 397 -92 q 420 -94 410 -94 q 488 -67 466 -94 q 510 20 510 -39 l 510 458 q 486 540 510 510 q 415 569 462 569 q 348 555 379 569 q 288 514 317 540 l 288 0 l 73 0 l 73 720 l 206 720 q 259 684 247 720 l 272 642 z "},"o":{"ha":807,"x_min":35,"x_max":772,"o":"m 405 731 q 554 706 487 731 q 670 632 622 680 q 745 516 718 584 q 772 362 772 447 q 745 207 772 276 q 670 89 718 138 q 554 15 622 41 q 405 -11 487 -11 q 255 15 322 -11 q 138 89 187 41 q 62 207 89 138 q 35 362 35 276 q 62 516 35 447 q 138 632 89 584 q 255 706 187 680 q 405 731 322 731 m 405 149 q 514 201 479 149 q 549 360 549 253 q 514 519 549 467 q 405 572 479 572 q 293 519 328 572 q 258 360 258 467 q 293 201 258 253 q 405 149 328 149 z "},"ø":{"ha":807,"x_min":17,"x_max":803,"o":"m 333 156 q 405 142 363 142 q 521 198 479 142 q 563 360 563 253 q 553 456 563 415 l 333 156 m 473 565 q 405 578 444 578 q 286 523 328 578 q 244 360 244 467 q 253 267 244 308 l 473 565 m 677 624 q 747 510 723 576 q 772 362 772 444 q 745 207 772 276 q 670 89 718 138 q 554 15 622 41 q 405 -11 487 -11 q 235 23 311 -11 l 223 6 q 196 -23 211 -11 q 164 -41 181 -34 q 130 -51 147 -48 q 95 -54 112 -54 l 17 -54 l 129 98 q 60 213 84 146 q 35 362 35 279 q 62 516 35 447 q 138 632 89 584 q 255 706 187 680 q 405 731 322 731 q 571 699 497 731 l 602 742 q 622 767 613 757 q 642 784 631 778 q 666 793 652 790 q 698 796 679 796 l 803 796 l 677 624 z "},"œ":{"ha":1220,"x_min":35,"x_max":1184,"o":"m 392 149 q 494 201 462 149 q 526 360 526 253 q 494 519 526 467 q 392 572 462 572 q 290 519 322 572 q 258 360 258 467 q 290 201 258 253 q 392 149 322 149 m 992 433 q 986 485 992 458 q 967 533 981 512 q 931 569 953 555 q 876 583 908 583 q 782 544 815 583 q 740 433 749 506 l 992 433 m 741 308 q 795 188 753 225 q 901 150 837 150 q 961 159 936 150 q 1007 179 987 168 q 1044 199 1026 190 q 1081 208 1061 208 q 1119 190 1106 208 l 1183 113 q 1111 50 1149 74 q 1034 13 1074 26 q 955 -6 994 -1 q 880 -11 916 -11 q 810 -4 844 -11 q 745 19 776 3 q 685 57 713 34 q 635 113 657 81 q 524 21 591 53 q 372 -11 458 -11 q 239 15 300 -11 q 132 89 177 41 q 61 207 87 138 q 35 362 35 276 q 61 516 35 447 q 133 632 88 584 q 242 706 179 680 q 380 731 306 731 q 526 700 462 731 q 634 610 591 669 q 738 699 675 666 q 885 731 800 731 q 1004 707 949 731 q 1099 638 1059 683 q 1161 530 1139 593 q 1184 388 1184 466 q 1182 348 1184 363 q 1175 324 1180 333 q 1160 311 1169 315 q 1137 308 1151 308 l 741 308 z "},"p":{"ha":799,"x_min":73,"x_max":760,"o":"m 288 196 q 341 158 313 169 q 401 147 369 147 q 456 159 431 147 q 499 197 481 171 q 528 265 517 223 q 538 366 538 306 q 530 462 538 423 q 507 525 522 501 q 471 559 492 549 q 424 569 450 569 q 347 552 377 569 q 288 501 316 535 l 288 196 m 275 631 q 371 705 317 676 q 499 734 425 734 q 603 709 556 734 q 686 637 651 684 q 741 521 721 590 q 760 366 760 453 q 738 216 760 285 q 675 97 715 147 q 577 17 634 46 q 452 -11 521 -11 q 358 5 396 -11 q 288 48 319 21 l 288 -228 l 73 -228 l 73 720 l 206 720 q 259 684 247 720 l 275 631 z "},"þ":{"ha":799,"x_min":73,"x_max":760,"o":"m 288 196 q 341 158 313 169 q 401 147 369 147 q 456 159 431 147 q 499 197 481 171 q 528 265 517 223 q 538 366 538 306 q 530 462 538 423 q 507 525 522 501 q 471 559 492 549 q 424 569 450 569 q 347 552 377 569 q 288 501 316 535 l 288 196 m 288 644 q 380 707 328 683 q 499 731 431 731 q 603 707 556 731 q 686 636 651 683 q 741 521 721 589 q 760 366 760 453 q 738 216 760 285 q 675 97 715 147 q 577 17 634 46 q 452 -11 521 -11 q 400 -6 424 -11 q 357 9 376 -1 q 320 31 337 18 q 288 60 303 44 l 288 -228 l 73 -228 l 73 1040 l 288 1040 l 288 644 z "},"q":{"ha":798,"x_min":38,"x_max":725,"o":"m 510 527 q 457 565 485 553 q 397 576 428 576 q 342 564 367 576 q 299 526 317 552 q 270 458 281 500 q 260 358 260 417 q 268 262 260 301 q 291 199 276 223 q 327 165 306 175 q 374 154 348 154 q 416 159 397 154 q 451 172 435 163 q 482 193 467 180 q 510 222 496 206 l 510 527 m 725 720 l 725 -228 l 510 -228 l 510 78 q 418 14 469 38 q 299 -11 367 -11 q 194 14 242 -11 q 112 86 147 39 q 57 202 77 133 q 38 358 38 270 q 60 507 38 438 q 123 627 82 576 q 220 706 163 677 q 346 734 277 734 q 405 728 378 734 q 453 713 431 723 q 494 688 475 702 q 530 656 513 673 l 539 684 q 592 720 551 720 l 725 720 z "},"r":{"ha":530,"x_min":73,"x_max":530,"o":"m 274 609 q 351 701 308 667 q 451 734 394 734 q 530 711 499 734 l 516 553 q 505 532 513 538 q 483 526 497 526 q 468 527 477 526 q 449 529 459 528 q 430 531 440 530 q 411 532 419 532 q 336 507 364 532 q 288 438 308 482 l 288 0 l 73 0 l 73 720 l 201 720 q 227 717 217 720 q 245 709 238 715 q 257 693 253 703 q 263 669 260 683 l 274 609 z "},"s":{"ha":619,"x_min":22,"x_max":583,"o":"m 531 563 q 513 544 522 549 q 489 538 503 538 q 458 545 474 538 q 425 559 443 551 q 385 573 408 567 q 335 580 363 580 q 272 564 294 580 q 250 521 250 549 q 264 488 250 501 q 302 464 278 474 q 356 445 326 454 q 417 425 385 436 q 478 399 448 414 q 531 362 508 384 q 569 309 555 340 q 583 234 583 278 q 564 135 583 181 q 506 58 544 90 q 411 7 467 25 q 281 -11 354 -11 q 207 -4 244 -11 q 136 15 170 3 q 72 43 101 26 q 22 78 43 59 l 72 157 q 93 179 81 171 q 126 187 106 187 q 160 178 145 187 q 192 160 175 170 q 233 142 210 151 q 292 134 256 134 q 334 139 317 134 q 362 153 351 144 q 377 174 372 163 q 382 197 382 185 q 367 232 382 218 q 329 256 353 246 q 275 275 306 266 q 214 294 245 283 q 152 321 183 306 q 99 361 122 337 q 60 419 75 385 q 46 503 46 454 q 64 591 46 549 q 117 663 81 632 q 206 713 152 694 q 331 731 259 731 q 406 724 369 731 q 474 705 442 717 q 533 675 506 692 q 579 638 559 658 l 531 563 z "},"ş":{"ha":619,"x_min":22,"x_max":583,"o":"m 531 563 q 513 544 522 549 q 489 538 503 538 q 458 545 474 538 q 425 559 443 551 q 385 573 408 567 q 335 580 363 580 q 272 564 294 580 q 250 521 250 549 q 264 488 250 501 q 302 464 278 474 q 356 445 326 454 q 417 425 385 436 q 478 399 448 414 q 531 362 508 384 q 569 309 555 340 q 583 234 583 278 q 569 147 583 188 q 525 76 554 107 q 453 24 496 44 q 354 -6 410 3 l 347 -35 q 402 -54 380 -43 q 436 -79 424 -65 q 455 -108 449 -92 q 460 -142 460 -124 q 447 -185 460 -166 q 409 -219 433 -205 q 350 -240 385 -233 q 274 -247 316 -247 q 222 -244 246 -247 q 172 -236 198 -242 l 191 -172 q 215 -153 195 -153 q 235 -155 225 -153 q 259 -158 244 -158 q 285 -151 277 -158 q 292 -137 292 -145 q 271 -115 292 -122 q 199 -101 250 -108 l 231 -8 q 114 23 169 0 q 22 78 58 47 l 72 157 q 93 179 81 171 q 126 187 106 187 q 160 178 145 187 q 192 160 175 170 q 233 142 210 151 q 292 134 256 134 q 334 139 317 134 q 362 153 351 144 q 377 174 372 163 q 382 197 382 185 q 367 232 382 218 q 329 256 353 246 q 275 275 306 266 q 214 294 245 283 q 152 321 183 306 q 99 361 122 337 q 60 419 75 385 q 46 503 46 454 q 64 591 46 549 q 117 663 81 632 q 206 713 152 694 q 331 731 259 731 q 406 724 369 731 q 474 705 442 717 q 533 675 506 692 q 579 638 559 658 l 531 563 z "},"ß":{"ha":865,"x_min":72,"x_max":836,"o":"m 460 1031 q 613 1006 550 1031 q 714 942 675 980 q 769 860 752 903 q 786 782 786 817 q 774 715 786 743 q 742 667 761 688 q 702 632 724 647 q 662 604 681 617 q 631 577 643 591 q 618 546 618 564 q 634 511 618 526 q 675 478 651 495 q 727 442 699 462 q 780 395 756 423 q 820 330 803 368 q 836 240 836 292 q 812 130 836 176 q 749 51 788 83 q 657 5 709 20 q 549 -11 605 -11 q 486 -4 518 -11 q 424 15 454 3 q 367 43 394 26 q 319 78 340 59 l 369 157 q 391 179 378 171 q 424 187 403 187 q 458 178 442 187 q 489 160 473 170 q 523 142 504 151 q 568 134 542 134 q 615 154 595 134 q 635 206 635 174 q 617 253 635 234 q 572 290 599 273 q 513 323 544 306 q 455 364 482 340 q 410 421 428 388 q 392 503 392 454 q 405 575 392 545 q 440 627 419 605 q 484 666 460 649 q 528 700 508 683 q 563 736 549 717 q 576 781 576 755 q 546 854 576 827 q 450 881 516 881 q 375 866 406 881 q 325 825 344 852 q 297 760 306 799 q 288 672 288 721 l 288 0 l 72 0 l 72 679 q 98 818 72 753 q 174 930 124 882 q 296 1004 224 977 q 460 1031 368 1031 z "},"ſ":{"ha":442,"x_min":25,"x_max":511,"o":"m 126 760 q 146 872 126 822 q 203 957 166 922 q 294 1012 240 992 q 415 1031 347 1031 q 464 1028 442 1031 q 511 1018 487 1025 l 504 910 q 487 886 503 892 q 453 881 471 881 q 403 874 424 881 q 368 852 382 867 q 348 813 355 837 q 342 753 342 788 l 342 0 l 126 0 l 126 572 l 79 582 q 40 599 55 588 q 25 634 25 611 l 25 719 l 126 719 l 126 760 z "},"t":{"ha":533,"x_min":18,"x_max":532,"o":"m 331 -11 q 240 4 279 -11 q 174 46 201 19 q 133 113 147 74 q 119 199 119 151 l 119 572 l 58 572 q 30 582 42 572 q 18 614 18 593 l 18 698 l 133 720 l 175 896 q 222 929 183 929 l 335 929 l 335 719 l 513 719 l 513 572 l 335 572 l 335 214 q 347 173 335 189 q 382 156 359 156 q 402 159 394 156 q 416 164 410 161 q 427 170 422 167 q 439 172 432 172 q 455 168 449 172 q 467 153 460 163 l 532 51 q 438 5 490 20 q 331 -11 386 -11 z "},"ť":{"ha":533,"x_min":18,"x_max":643,"o":"m 331 -11 q 240 4 279 -11 q 174 46 201 19 q 133 113 147 74 q 119 199 119 151 l 119 572 l 58 572 q 30 582 42 572 q 18 614 18 593 l 18 698 l 133 720 l 175 896 q 222 929 183 929 l 335 929 l 335 719 l 513 719 l 513 572 l 335 572 l 335 214 q 347 173 335 189 q 382 156 359 156 q 402 159 394 156 q 416 164 410 161 q 427 170 422 167 q 439 172 432 172 q 455 168 449 172 q 467 153 460 163 l 532 51 q 438 5 490 20 q 331 -11 386 -11 m 610 1041 q 628 1038 621 1041 q 638 1031 635 1035 q 642 1022 641 1026 q 643 1013 643 1017 q 641 997 643 1007 q 630 966 638 986 q 607 912 622 946 q 568 826 592 878 q 539 796 556 803 q 494 790 522 790 l 418 790 l 464 1041 l 610 1041 z "},"ŧ":{"ha":540,"x_min":19,"x_max":533,"o":"m 38 483 l 121 483 l 121 572 l 60 572 q 31 582 43 572 q 19 614 19 593 l 19 698 l 134 720 l 176 896 q 224 929 185 929 l 336 929 l 336 719 l 515 719 l 515 572 l 336 572 l 336 483 l 522 483 l 522 356 l 336 356 l 336 214 q 348 173 336 189 q 383 156 360 156 q 403 159 395 156 q 417 164 411 161 q 428 170 423 167 q 440 172 433 172 q 456 168 450 172 q 468 153 462 163 l 533 51 q 440 5 492 20 q 332 -11 388 -11 q 241 4 281 -11 q 175 46 202 19 q 135 113 149 74 q 121 199 121 151 l 121 356 l 38 356 l 38 483 z "},"u":{"ha":792,"x_min":66,"x_max":719,"o":"m 719 720 l 719 0 l 585 0 q 533 36 545 0 l 520 78 q 477 41 499 58 q 430 14 455 25 q 375 -5 404 2 q 310 -11 345 -11 q 206 9 251 -11 q 129 67 160 30 q 82 153 98 103 q 66 263 66 203 l 66 720 l 281 720 l 281 263 q 306 181 281 210 q 377 151 330 151 q 443 166 413 151 q 503 207 474 181 l 503 720 l 719 720 z "},"ų":{"ha":792,"x_min":66,"x_max":783,"o":"m 783 -206 q 722 -231 758 -221 q 645 -241 686 -241 q 532 -212 571 -241 q 494 -137 494 -183 q 517 -67 494 -102 q 593 0 541 -31 l 585 0 q 533 36 545 0 l 520 78 q 477 41 499 58 q 430 14 455 25 q 375 -5 404 2 q 310 -11 345 -11 q 206 9 251 -11 q 129 67 160 30 q 82 153 98 103 q 66 263 66 203 l 66 720 l 281 720 l 281 263 q 306 181 281 210 q 377 151 330 151 q 443 166 413 151 q 503 207 474 181 l 503 720 l 719 720 l 719 0 q 673 -36 692 -15 q 653 -85 653 -58 q 663 -111 653 -101 q 691 -122 672 -122 q 708 -121 701 -122 q 718 -119 714 -120 q 725 -117 722 -118 q 731 -116 728 -116 q 751 -129 746 -116 l 783 -206 z "},"v":{"ha":749,"x_min":-3,"x_max":751,"o":"m 751 720 l 472 0 l 276 0 l -3 720 l 176 720 q 215 709 199 720 q 236 683 231 699 l 336 360 q 359 283 349 320 q 377 208 369 245 q 419 360 392 283 l 524 683 q 544 709 529 699 q 581 720 560 720 l 751 720 z "},"w":{"ha":1136,"x_min":3,"x_max":1133,"o":"m 1133 720 l 909 0 l 734 0 q 710 8 720 0 q 695 36 701 17 l 592 395 q 579 443 585 419 q 568 491 573 467 q 557 442 563 467 q 544 394 551 418 l 440 36 q 394 0 429 0 l 227 0 l 3 720 l 176 720 q 214 709 199 720 q 235 683 230 699 l 308 360 q 324 289 317 323 q 336 219 331 254 q 355 289 345 254 q 377 360 365 323 l 467 683 q 488 710 473 699 q 524 721 503 721 l 620 721 q 659 710 643 721 q 680 683 674 699 l 766 360 q 786 288 776 323 q 805 218 797 253 q 818 288 810 253 q 835 360 826 322 l 912 683 q 933 709 917 699 q 969 720 948 720 l 1133 720 z "},"x":{"ha":756,"x_min":-6,"x_max":762,"o":"m 762 0 l 555 0 q 518 11 532 0 q 495 38 503 22 l 367 258 q 358 236 363 247 q 348 217 353 226 l 242 38 q 219 12 233 24 q 185 0 206 0 l -6 0 l 235 372 l 3 720 l 210 720 q 244 714 233 720 q 263 694 255 708 l 392 481 q 402 506 396 494 q 416 531 408 518 l 508 691 q 528 713 517 706 q 555 720 539 720 l 752 720 l 520 382 l 762 0 z "},"y":{"ha":747,"x_min":-6,"x_max":757,"o":"m 757 720 l 372 -187 q 349 -218 363 -208 q 304 -228 335 -228 l 143 -228 l 282 63 l -6 720 l 185 720 q 223 709 210 720 q 243 683 237 698 l 361 372 q 388 285 378 330 q 403 330 396 308 q 419 374 411 352 l 526 683 q 549 709 533 699 q 583 720 565 720 l 757 720 z "},"z":{"ha":647,"x_min":32,"x_max":608,"o":"m 608 634 q 601 591 608 612 q 581 557 593 570 l 280 160 l 601 160 l 601 0 l 32 0 l 32 88 q 39 121 32 101 q 60 158 46 141 l 363 560 l 51 560 l 51 720 l 608 720 l 608 634 z "},"ª":{"ha":510,"x_min":44,"x_max":444,"o":"m 294 753 q 241 747 261 751 q 210 737 221 743 q 195 724 199 731 q 191 708 191 717 q 199 686 191 692 q 228 681 208 681 q 262 686 247 681 q 294 708 277 692 l 294 753 m 65 958 q 156 1011 106 994 q 263 1027 206 1027 q 338 1014 304 1027 q 394 977 371 1001 q 431 922 418 953 q 444 853 444 890 l 444 585 l 372 585 q 340 590 351 585 q 320 614 329 596 l 312 633 q 281 609 296 619 q 251 592 267 599 q 218 582 236 585 q 178 579 201 579 q 80 611 115 579 q 44 701 44 643 q 55 748 44 724 q 93 792 65 772 q 170 826 122 813 q 294 842 218 840 l 294 853 q 280 897 294 885 q 244 908 267 908 q 210 904 223 908 q 186 895 197 900 q 164 886 175 890 q 135 882 153 882 q 109 891 119 882 q 91 910 99 900 l 65 958 z "},"º":{"ha":554,"x_min":38,"x_max":516,"o":"m 278 1026 q 374 1010 331 1026 q 449 966 418 995 q 498 896 481 938 q 516 803 516 855 q 498 708 516 750 q 449 637 481 666 q 374 592 418 608 q 278 576 331 576 q 182 592 226 576 q 106 637 138 608 q 56 708 74 666 q 38 803 38 750 q 56 896 38 855 q 106 966 74 938 q 182 1010 138 995 q 278 1026 226 1026 m 278 697 q 331 721 314 697 q 348 801 348 745 q 331 881 348 858 q 278 905 314 905 q 223 881 240 905 q 206 801 206 858 q 223 721 206 745 q 278 697 240 697 z "},"ⁿ":{"ha":442,"x_min":44,"x_max":403,"o":"m 167 969 q 189 989 178 980 q 213 1004 200 997 q 241 1014 226 1010 q 276 1017 256 1017 q 330 1006 306 1017 q 370 976 354 995 q 395 931 387 956 q 403 875 403 905 l 403 638 l 255 638 l 255 875 q 228 904 255 904 q 210 901 219 904 q 192 892 201 897 l 192 638 l 44 638 l 44 1012 l 123 1012 q 147 1005 138 1012 q 162 983 156 999 l 167 969 z "},"`":{"ha":556,"x_min":22,"x_max":394,"o":"m 224 1023 q 272 1012 256 1023 q 300 981 288 1001 l 394 811 l 272 811 q 233 818 248 811 q 203 840 219 824 l 22 1023 l 224 1023 z "},"´":{"ha":556,"x_min":174,"x_max":553,"o":"m 553 1023 l 372 840 q 342 818 356 824 q 303 811 327 811 l 174 811 l 268 981 q 296 1012 280 1001 q 344 1023 312 1023 l 553 1023 z "},"ˆ":{"ha":556,"x_min":14,"x_max":542,"o":"m 542 811 l 399 811 q 374 815 386 811 q 351 831 363 819 l 299 888 q 290 897 294 892 q 281 908 285 902 q 273 897 277 902 q 264 888 268 892 l 210 831 q 188 816 200 821 q 163 811 175 811 l 14 811 l 176 1012 l 379 1012 l 542 811 z "},"ˇ":{"ha":556,"x_min":14,"x_max":542,"o":"m 542 1012 l 379 811 l 176 811 l 14 1012 l 163 1012 q 186 1008 175 1012 q 204 999 198 1004 l 263 935 q 271 926 267 931 q 281 915 276 921 q 290 925 285 920 q 299 935 294 931 l 357 999 q 375 1007 363 1003 q 399 1012 386 1012 l 542 1012 z "},"̕":{"ha":0,"x_min":172,"x_max":397,"o":"m 364 1041 q 382 1038 375 1041 q 392 1031 389 1035 q 396 1022 395 1026 q 397 1013 397 1017 q 395 997 397 1007 q 384 966 392 986 q 361 912 376 946 q 322 826 347 878 q 293 796 310 803 q 249 790 276 790 l 172 790 l 218 1041 l 364 1041 z "},"˜":{"ha":556,"x_min":39,"x_max":518,"o":"m 350 963 q 377 972 367 963 q 388 1009 388 981 l 518 1009 q 506 930 518 965 q 472 870 494 895 q 422 833 451 846 q 358 819 392 819 q 310 827 333 819 q 269 845 288 835 q 234 863 250 855 q 207 871 219 871 q 181 861 190 871 q 171 824 171 852 l 39 824 q 51 902 39 867 q 85 963 64 938 q 136 1001 107 988 q 199 1015 165 1015 q 247 1007 224 1015 q 288 989 269 999 q 323 971 307 979 q 350 963 338 963 z "},"¨":{"ha":556,"x_min":18,"x_max":538,"o":"m 242 899 q 233 858 242 877 q 208 824 224 838 q 172 801 192 810 q 128 793 151 793 q 86 801 106 793 q 51 824 66 810 q 27 858 36 838 q 18 899 18 877 q 27 942 18 922 q 51 977 36 963 q 86 1001 66 992 q 128 1010 106 1010 q 172 1001 151 1010 q 208 977 192 992 q 233 942 224 963 q 242 899 242 922 m 538 899 q 529 858 538 877 q 505 824 520 838 q 469 801 490 810 q 425 793 449 793 q 382 801 402 793 q 347 824 362 810 q 323 858 331 838 q 314 899 314 877 q 323 942 314 922 q 347 977 331 963 q 382 1001 362 992 q 425 1010 402 1010 q 469 1001 449 1010 q 505 977 490 992 q 529 942 520 963 q 538 899 538 922 z "},"¯":{"ha":556,"x_min":63,"x_max":493,"o":"m 63 966 l 493 966 l 493 834 l 63 834 l 63 966 z "},"˘":{"ha":556,"x_min":50,"x_max":506,"o":"m 278 805 q 169 822 213 805 q 99 866 125 838 q 61 932 72 894 q 50 1012 50 969 l 200 1012 q 203 978 200 993 q 215 955 206 964 q 239 940 224 945 q 278 935 253 935 q 317 940 301 935 q 341 955 332 945 q 352 978 349 964 q 356 1012 356 993 l 506 1012 q 494 932 506 969 q 457 866 483 894 q 387 822 431 838 q 278 805 343 805 z "},"˚":{"ha":556,"x_min":108,"x_max":449,"o":"m 108 926 q 122 989 108 961 q 159 1038 136 1017 q 213 1068 182 1058 q 276 1079 243 1079 q 342 1068 310 1079 q 397 1038 373 1058 q 435 989 421 1017 q 449 926 449 961 q 435 865 449 892 q 397 818 421 838 q 342 788 373 799 q 276 777 310 777 q 213 788 243 777 q 159 818 182 799 q 122 865 136 838 q 108 926 108 892 m 224 926 q 237 886 224 902 q 279 871 251 871 q 319 886 304 871 q 333 926 333 902 q 319 968 333 953 q 279 983 304 983 q 237 968 251 983 q 224 926 224 953 z "},"˝":{"ha":556,"x_min":81,"x_max":640,"o":"m 376 1023 l 238 840 q 208 817 224 823 q 168 811 192 811 l 81 811 l 161 981 q 188 1012 172 1001 q 238 1023 205 1023 l 376 1023 m 640 1023 l 460 840 q 429 818 444 824 q 390 811 415 811 l 289 811 l 411 981 q 425 999 418 991 q 440 1012 431 1006 q 460 1020 449 1017 q 488 1023 472 1023 l 640 1023 z "},"˙":{"ha":556,"x_min":149,"x_max":408,"o":"m 408 918 q 398 869 408 892 q 369 830 388 847 q 327 803 351 813 q 276 793 303 793 q 227 803 250 793 q 186 830 204 813 q 159 869 169 847 q 149 918 149 892 q 159 967 149 944 q 186 1007 169 990 q 227 1034 204 1024 q 276 1044 250 1044 q 327 1034 303 1044 q 369 1007 351 1024 q 398 967 388 990 q 408 918 408 944 z "},"¸":{"ha":556,"x_min":151,"x_max":440,"o":"m 326 -35 q 381 -54 359 -43 q 416 -79 403 -65 q 434 -108 428 -92 q 440 -142 440 -124 q 426 -185 440 -166 q 388 -219 413 -205 q 330 -240 364 -233 q 253 -247 295 -247 q 201 -244 225 -247 q 151 -236 177 -242 l 170 -172 q 194 -153 174 -153 q 214 -155 204 -153 q 238 -158 224 -158 q 264 -151 256 -158 q 272 -137 272 -145 q 250 -115 272 -122 q 178 -101 229 -108 l 224 31 l 343 31 l 326 -35 z "},"˛":{"ha":556,"x_min":138,"x_max":426,"o":"m 375 -116 q 394 -129 390 -116 l 426 -206 q 366 -231 402 -221 q 289 -241 330 -241 q 176 -212 215 -241 q 138 -137 138 -183 q 165 -61 138 -99 q 251 8 192 -24 l 363 0 q 316 -36 335 -15 q 297 -85 297 -58 q 307 -111 297 -101 q 335 -122 316 -122 q 351 -121 345 -122 q 362 -119 358 -120 q 369 -117 366 -118 q 375 -116 372 -116 z "},"Γ":{"ha":770,"x_min":98,"x_max":749,"o":"m 749 838 l 334 838 l 334 0 l 98 0 l 98 1012 l 749 1012 l 749 838 z "},"Δ":{"ha":993,"x_min":7,"x_max":985,"o":"m 245 179 l 724 179 l 538 664 q 514 733 526 693 q 489 819 501 773 q 464 732 477 772 q 440 663 451 693 l 245 179 m 958 197 q 985 65 985 131 l 985 0 l 7 0 l 7 65 q 14 127 7 94 q 34 194 20 160 l 378 1012 l 619 1012 l 958 197 z "},"Θ":{"ha":1131,"x_min":40,"x_max":1091,"o":"m 388 596 l 742 596 l 742 415 l 388 415 l 388 596 m 1091 506 q 1053 302 1091 397 q 947 138 1015 208 q 781 28 878 68 q 566 -11 684 -11 q 351 28 448 -11 q 184 138 253 68 q 77 302 115 208 q 40 506 40 397 q 77 710 40 616 q 184 874 115 805 q 351 983 253 944 q 566 1023 448 1023 q 781 983 684 1023 q 947 874 878 943 q 1053 710 1015 804 q 1091 506 1091 615 m 851 506 q 831 641 851 581 q 775 743 812 701 q 686 807 739 785 q 566 829 633 829 q 445 807 498 829 q 355 743 392 785 q 299 641 319 701 q 280 506 280 581 q 299 370 280 431 q 355 269 319 310 q 445 205 392 227 q 566 183 498 183 q 686 205 633 183 q 775 269 739 227 q 831 370 812 310 q 851 506 851 431 z "},"Λ":{"ha":985,"x_min":-20,"x_max":1003,"o":"m 1003 0 l 801 0 q 751 14 770 0 q 723 51 733 28 l 527 592 q 500 670 513 628 q 475 758 487 712 q 453 670 465 712 q 427 592 441 628 l 233 51 q 205 16 225 31 q 156 0 185 0 l -20 0 l 385 1012 l 598 1012 l 1003 0 z "},"Ξ":{"ha":869,"x_min":47,"x_max":824,"o":"m 824 1012 l 824 824 l 47 824 l 47 1012 l 824 1012 m 824 188 l 824 0 l 47 0 l 47 188 l 824 188 m 220 602 l 651 602 l 651 408 l 220 408 l 220 602 z "},"Π":{"ha":1079,"x_min":98,"x_max":981,"o":"m 981 0 l 745 0 l 745 838 l 334 838 l 334 0 l 98 0 l 98 1012 l 981 1012 l 981 0 z "},"Σ":{"ha":856,"x_min":38,"x_max":815,"o":"m 442 838 q 365 840 399 838 q 297 849 331 843 q 365 809 335 831 q 419 762 394 788 l 522 633 q 553 596 541 612 q 571 568 565 580 q 579 545 577 556 q 581 526 581 535 q 580 502 581 514 q 571 476 578 490 q 552 446 565 463 q 521 408 540 429 l 374 232 q 334 191 351 206 q 301 166 317 176 q 362 173 334 171 q 413 174 390 174 l 815 174 l 815 0 l 38 0 l 38 85 q 50 134 38 109 q 80 177 62 158 l 374 505 l 65 851 q 45 881 53 864 q 38 915 38 897 l 38 1012 l 815 1012 l 815 838 l 442 838 z "},"Φ":{"ha":1208,"x_min":31,"x_max":1178,"o":"m 715 231 q 812 255 769 233 q 886 314 856 277 q 934 400 917 351 q 951 507 951 450 q 934 613 951 563 q 886 700 917 663 q 812 759 856 737 q 715 783 769 781 l 715 231 m 493 783 q 396 759 440 781 q 322 700 353 737 q 274 613 291 663 q 258 507 258 563 q 274 400 258 450 q 322 314 291 351 q 396 255 353 277 q 493 231 440 233 l 493 783 m 715 958 q 906 920 820 956 q 1051 824 991 885 q 1145 682 1112 763 q 1178 507 1178 600 q 1145 332 1178 414 q 1051 190 1112 251 q 906 93 991 129 q 715 56 820 58 l 715 -76 l 493 -76 l 493 56 q 361 74 423 57 q 249 120 300 90 q 157 190 197 149 q 88 281 116 231 q 45 388 60 331 q 31 507 31 445 q 45 626 31 569 q 88 733 60 683 q 157 824 116 783 q 249 894 197 865 q 361 940 300 924 q 493 958 423 957 l 493 1089 l 715 1089 l 715 958 z "},"Ψ":{"ha":1179,"x_min":51,"x_max":1127,"o":"m 1127 1012 l 1127 647 q 1100 486 1127 558 q 1021 361 1074 414 q 889 277 968 309 q 706 239 810 246 l 706 0 l 469 0 l 469 240 q 287 278 365 247 q 156 362 209 310 q 77 487 103 415 q 51 647 51 559 l 51 1012 l 209 1012 q 266 990 246 1012 q 287 936 287 968 l 287 647 q 295 556 287 595 q 323 488 303 516 q 379 443 344 460 q 469 422 415 426 l 469 1012 l 706 1012 l 706 421 q 797 442 761 426 q 853 487 833 459 q 883 555 874 515 q 891 647 891 594 l 891 936 q 911 990 891 968 q 969 1012 932 1012 l 1127 1012 z "},"Ω":{"ha":1142,"x_min":47,"x_max":1096,"o":"m 1096 186 l 1096 71 q 1075 20 1096 40 q 1018 0 1053 0 l 643 0 l 643 256 q 719 288 683 262 q 783 355 756 314 q 827 449 810 396 q 843 561 843 501 q 822 680 843 630 q 764 764 801 731 q 677 813 727 797 q 571 829 628 829 q 465 813 515 829 q 378 764 415 797 q 320 680 342 731 q 299 561 299 630 q 316 449 299 501 q 359 355 332 396 q 423 288 387 314 q 499 256 459 262 l 499 0 l 124 0 q 68 20 89 0 q 47 71 47 40 l 47 186 l 170 186 q 251 182 210 186 q 332 173 292 178 q 223 235 272 196 q 139 324 174 274 q 85 436 104 375 q 66 564 66 497 q 104 744 66 660 q 210 890 142 828 q 370 987 278 951 q 572 1023 463 1023 q 772 987 680 1023 q 932 890 865 951 q 1038 744 1000 828 q 1076 564 1076 660 q 1057 436 1076 497 q 1003 324 1038 375 q 919 235 968 274 q 810 173 870 196 q 891 182 850 178 q 972 186 933 186 l 1096 186 z "},"α":{"ha":851,"x_min":36,"x_max":850,"o":"m 527 501 q 505 530 518 516 q 475 553 492 543 q 440 570 459 564 q 401 576 421 576 q 349 564 374 576 q 303 526 324 552 q 271 456 283 499 q 258 350 258 413 q 268 256 258 294 q 295 196 278 219 q 335 164 313 173 q 382 154 357 154 q 429 164 408 154 q 467 194 451 173 q 495 251 484 216 q 511 338 506 286 l 527 501 m 850 145 l 850 63 q 841 37 850 49 q 815 14 832 24 q 775 -2 799 4 q 721 -8 751 -8 q 625 18 669 -8 q 556 98 582 44 q 502 47 531 67 q 444 13 474 26 q 384 -6 414 0 q 327 -11 354 -11 q 211 14 265 -11 q 119 84 158 38 q 58 196 81 131 q 36 344 36 262 q 61 502 36 430 q 129 625 85 574 q 232 706 172 677 q 362 734 292 734 q 472 714 423 734 q 558 658 522 693 l 565 684 q 618 720 578 720 l 751 720 l 717 358 q 713 292 717 324 q 710 227 710 260 q 716 191 710 206 q 734 165 723 176 q 760 150 746 155 q 791 145 775 145 l 850 145 z "},"β":{"ha":802,"x_min":72,"x_max":769,"o":"m 288 202 q 335 160 309 172 q 395 148 360 148 q 467 162 438 148 q 516 200 497 176 q 543 256 535 224 q 551 324 551 288 q 538 402 551 374 q 503 445 524 431 q 457 464 482 460 q 408 468 431 468 l 365 468 l 365 631 l 382 631 q 439 636 415 631 q 477 655 463 642 q 499 690 492 668 q 506 744 506 711 q 477 843 506 814 q 402 872 449 872 q 348 860 370 872 q 313 820 326 848 q 293 749 299 793 q 288 642 288 705 l 288 202 m 72 649 q 92 801 72 733 q 153 919 112 870 q 257 995 194 968 q 406 1022 319 1022 q 546 999 488 1022 q 640 940 603 976 q 692 856 676 903 q 708 763 708 810 q 677 638 708 694 q 580 554 645 583 q 720 458 672 525 q 769 300 769 391 q 747 183 769 239 q 682 83 724 126 q 581 15 640 40 q 450 -11 522 -11 q 288 44 351 -11 l 288 -230 l 72 -230 l 72 649 z "},"γ":{"ha":797,"x_min":19,"x_max":798,"o":"m 798 720 q 771 622 788 674 q 732 515 754 569 q 683 404 710 460 q 626 293 656 348 q 564 185 596 238 q 501 85 533 133 l 501 -228 l 286 -228 l 286 78 q 270 182 281 126 q 245 293 260 238 q 210 400 230 349 q 165 490 190 451 q 110 552 140 528 q 46 575 81 575 l 19 575 l 19 651 q 24 681 19 667 q 40 706 28 695 q 71 722 51 716 q 122 728 91 728 q 248 695 194 728 q 342 605 303 663 q 406 467 381 547 q 442 293 431 388 q 481 386 463 338 q 512 482 498 434 q 536 574 526 529 q 552 658 546 619 q 575 707 558 693 q 613 720 592 720 l 798 720 z "},"δ":{"ha":787,"x_min":33,"x_max":753,"o":"m 394 147 q 452 159 426 147 q 498 195 479 172 q 528 251 517 218 q 538 326 538 284 q 526 405 538 370 q 494 467 515 439 q 447 516 474 494 q 390 557 419 538 q 339 525 363 544 q 297 480 315 506 q 267 417 278 453 q 256 335 256 381 q 264 261 256 296 q 289 202 272 227 q 332 162 306 176 q 394 147 358 147 m 660 860 q 644 825 656 834 q 606 816 631 816 q 565 822 592 816 q 506 836 538 828 q 441 851 474 844 q 381 857 408 857 q 337 848 351 857 q 324 824 324 838 q 342 791 324 806 q 391 758 360 775 q 459 720 421 740 q 538 675 498 700 q 617 617 578 649 q 686 543 656 585 q 734 448 716 501 q 753 330 753 396 q 729 195 753 258 q 660 88 706 133 q 547 17 614 42 q 394 -9 480 -9 q 243 16 310 -9 q 130 85 176 40 q 58 192 83 130 q 33 328 33 253 q 86 513 33 435 q 249 637 140 591 q 199 672 222 653 q 159 713 176 690 q 132 762 142 735 q 122 824 122 790 q 139 904 122 868 q 191 965 156 940 q 277 1005 226 990 q 397 1019 328 1019 q 461 1016 425 1019 q 535 1010 497 1014 q 610 1000 574 1006 q 677 988 647 994 l 660 860 z "},"ε":{"ha":640,"x_min":39,"x_max":627,"o":"m 627 113 q 556 51 594 74 q 481 14 518 27 q 408 -4 443 1 q 344 -9 372 -9 q 230 5 285 -9 q 133 48 175 19 q 65 117 90 76 q 39 213 39 158 q 69 310 39 270 q 149 373 100 349 q 104 405 122 387 q 74 443 85 423 q 56 485 62 463 q 51 528 51 507 q 70 607 51 569 q 128 672 90 644 q 224 715 167 699 q 356 731 281 731 q 503 706 442 731 q 607 639 564 680 l 558 558 q 536 535 547 540 q 511 529 526 529 q 485 536 498 529 q 456 551 472 543 q 416 566 439 559 q 360 573 393 573 q 286 556 312 573 q 260 508 260 540 q 290 457 260 476 q 376 438 319 438 l 492 438 l 492 304 l 376 304 q 284 285 311 304 q 258 231 258 266 q 282 171 258 195 q 356 147 306 147 q 417 157 393 147 q 459 177 441 166 q 491 199 476 189 q 526 208 506 208 q 565 190 551 208 l 627 113 z "},"ζ":{"ha":577,"x_min":34,"x_max":600,"o":"m 590 926 q 590 903 593 915 q 577 875 588 891 q 549 838 567 859 q 500 788 530 817 q 451 738 478 765 q 395 679 424 711 q 339 610 367 647 q 289 533 311 574 q 254 450 267 493 q 241 360 241 406 q 249 300 241 326 q 276 255 258 275 q 324 220 294 235 q 396 190 353 204 q 495 147 456 169 q 558 99 534 125 q 591 43 581 73 q 600 -20 600 14 q 532 -222 600 -117 l 365 -160 q 377 -139 371 -151 q 389 -114 383 -127 q 397 -89 394 -101 q 401 -65 401 -76 q 396 -42 401 -53 q 378 -20 391 -31 q 341 2 365 -9 q 281 26 318 14 q 172 73 219 47 q 95 133 126 99 q 49 213 65 168 q 34 315 34 258 q 57 457 34 388 q 122 591 81 525 q 222 722 164 657 q 348 855 279 788 q 297 847 323 849 q 241 844 270 844 l 157 844 q 116 850 133 844 q 88 866 99 856 q 73 888 78 876 q 68 912 68 900 l 68 1012 l 570 1012 l 590 926 z "},"η":{"ha":836,"x_min":12,"x_max":770,"o":"m 12 658 q 17 683 12 671 q 36 706 23 696 q 69 722 49 716 q 118 728 89 728 q 218 705 172 728 q 288 633 263 681 q 393 704 335 676 q 526 731 451 731 q 630 711 585 731 q 707 654 676 690 q 754 567 738 617 q 770 458 770 517 l 770 -228 l 555 -228 l 555 458 q 531 540 555 510 q 459 569 506 569 q 393 555 424 569 q 333 514 362 540 l 333 0 l 117 0 l 117 494 q 100 556 117 536 q 50 576 82 576 l 12 576 l 12 658 z "},"θ":{"ha":844,"x_min":53,"x_max":791,"o":"m 263 447 q 278 310 266 367 q 311 218 291 253 q 360 167 332 183 q 424 151 388 151 q 485 167 458 151 q 533 218 513 183 q 565 310 553 253 q 581 447 577 367 l 263 447 m 580 589 q 563 716 576 664 q 530 802 550 769 q 483 850 510 835 q 424 865 456 865 q 362 850 390 865 q 314 802 335 835 q 281 716 294 769 q 264 589 268 664 l 580 589 m 424 1024 q 573 991 506 1024 q 689 893 640 958 q 764 732 738 828 q 791 508 791 635 q 764 283 791 380 q 689 120 738 186 q 573 22 640 55 q 424 -11 506 -11 q 273 22 341 -11 q 156 120 205 55 q 80 283 107 186 q 53 508 53 380 q 80 732 53 635 q 156 893 107 828 q 273 991 205 958 q 424 1024 341 1024 z "},"ι":{"ha":408,"x_min":68,"x_max":422,"o":"m 68 720 l 283 720 l 283 226 q 299 165 283 186 q 351 144 314 144 l 422 144 l 422 82 q 407 43 422 60 q 369 15 392 26 q 318 -2 347 4 q 263 -8 290 -8 q 178 9 215 -8 q 117 56 142 26 q 81 127 93 86 q 68 214 68 167 l 68 720 z "},"λ":{"ha":777,"x_min":4,"x_max":777,"o":"m 777 144 l 777 61 q 770 25 777 39 q 752 4 764 12 q 723 -6 740 -3 q 685 -9 706 -9 q 619 -2 653 -9 q 556 22 586 4 q 502 70 526 40 q 461 147 477 100 l 399 331 q 388 366 392 350 q 381 399 383 383 q 358 332 371 366 l 250 38 q 229 11 243 22 q 190 0 215 0 l 4 0 l 281 640 l 228 800 q 212 835 220 822 q 193 856 204 849 q 167 866 182 863 q 131 869 152 869 l 74 869 l 74 944 q 79 974 74 960 q 98 999 85 988 q 134 1015 112 1009 q 190 1021 156 1021 q 250 1015 218 1021 q 311 993 281 1009 q 367 949 342 977 q 408 876 392 921 l 645 206 q 674 159 655 175 q 734 144 693 144 l 777 144 z "},"μ":{"ha":849,"x_min":73,"x_max":853,"o":"m 853 145 l 853 63 q 844 37 853 49 q 818 14 835 24 q 777 -2 801 4 q 724 -8 753 -8 q 667 1 694 -8 q 617 26 640 9 q 576 68 594 42 q 547 128 558 93 q 469 44 512 74 q 370 15 426 15 q 258 46 303 15 q 271 -19 268 15 q 274 -83 274 -53 l 274 -228 l 167 -228 q 98 -206 122 -228 q 73 -142 73 -184 l 73 720 l 288 720 l 288 303 q 313 217 288 249 q 384 184 337 184 q 462 209 431 184 q 511 281 493 235 l 511 720 l 726 720 l 726 226 q 744 165 726 185 q 794 145 762 145 l 853 145 z "},"ν":{"ha":736,"x_min":-3,"x_max":737,"o":"m 737 720 q 706 602 725 664 q 663 476 688 540 q 609 348 639 413 q 548 223 580 284 q 480 105 515 161 q 409 0 445 48 l 276 0 l -3 720 l 176 720 q 214 709 199 720 q 235 683 230 699 l 335 360 q 356 292 347 325 q 372 226 365 259 q 417 331 398 275 q 450 445 436 388 q 474 559 464 503 q 492 663 485 615 q 514 707 497 694 q 552 720 531 720 l 737 720 z "},"ξ":{"ha":575,"x_min":38,"x_max":584,"o":"m 580 926 q 573 893 580 908 q 554 868 565 878 q 527 853 542 858 q 497 848 512 848 l 428 848 q 366 838 394 848 q 318 809 338 828 q 288 765 299 791 q 277 705 277 738 q 317 629 277 652 q 428 606 357 606 l 506 606 l 506 444 l 385 444 q 282 411 313 444 q 251 324 251 378 q 259 277 251 297 q 289 241 267 258 q 346 206 310 224 q 438 168 382 189 q 549 94 514 139 q 584 -12 584 50 q 567 -118 584 -67 q 516 -222 551 -169 l 349 -161 q 361 -140 355 -152 q 373 -115 367 -128 q 381 -91 378 -103 q 385 -69 385 -79 q 369 -24 385 -44 q 316 7 353 -4 q 211 45 261 22 q 122 104 160 69 q 60 188 83 140 q 38 303 38 237 q 44 362 38 331 q 65 424 50 393 q 107 484 81 456 q 172 534 133 513 q 103 597 126 558 q 79 690 79 635 q 88 742 79 717 q 110 788 96 767 q 145 826 125 808 q 189 857 165 843 l 140 857 q 70 878 90 857 q 51 937 51 900 l 51 1012 l 580 1012 l 580 926 z "},"π":{"ha":897,"x_min":44,"x_max":864,"o":"m 864 622 q 847 577 864 597 q 799 558 830 558 l 725 558 q 728 397 726 464 q 735 283 731 329 q 746 210 740 237 q 762 168 753 183 q 782 149 771 153 q 806 145 792 145 l 842 145 l 842 63 q 831 33 842 46 q 803 11 821 20 q 763 -2 786 3 q 715 -6 740 -6 q 627 11 664 -6 q 566 60 590 28 q 531 136 542 92 q 519 236 519 181 q 522 300 519 268 q 531 370 526 333 q 541 454 535 408 q 550 558 547 500 l 367 558 q 356 351 364 439 q 335 200 348 263 q 303 97 322 137 q 259 33 284 56 q 204 2 235 10 q 136 -7 173 -7 q 108 -5 123 -7 q 80 2 93 -2 q 59 15 67 7 q 51 33 51 22 l 51 172 l 65 172 q 108 192 89 172 q 142 259 128 213 q 166 378 157 305 q 180 558 176 452 l 44 558 l 44 647 q 49 671 44 658 q 65 695 54 684 q 90 713 75 706 q 123 719 104 719 l 864 719 l 864 622 z "},"ρ":{"ha":800,"x_min":63,"x_max":765,"o":"m 278 208 q 340 161 306 175 q 405 147 374 147 q 460 159 435 147 q 503 197 485 171 q 532 265 522 223 q 542 366 542 306 q 533 462 542 423 q 506 525 524 501 q 465 559 489 549 q 411 569 440 569 q 360 559 384 569 q 318 528 336 549 q 289 476 299 507 q 278 404 278 445 l 278 208 m 63 404 q 85 539 63 478 q 151 642 108 599 q 260 709 195 685 q 411 732 326 732 q 546 706 482 732 q 659 633 610 681 q 736 518 708 585 q 765 366 765 450 q 742 216 765 285 q 679 97 719 147 q 582 17 638 46 q 456 -11 525 -11 q 359 5 403 -11 q 278 48 315 20 l 278 -228 l 63 -228 l 63 404 z "},"σ":{"ha":876,"x_min":35,"x_max":893,"o":"m 461 563 q 306 510 356 563 q 257 345 257 458 q 292 197 257 246 q 403 149 327 149 q 514 199 478 149 q 549 356 549 249 q 546 417 549 385 q 536 478 543 449 q 519 528 530 506 q 492 563 508 551 l 461 563 m 893 720 l 893 620 q 889 601 893 611 q 875 582 884 591 q 855 568 867 574 q 828 563 842 563 l 690 563 q 748 472 726 525 q 769 347 769 418 q 743 204 769 269 q 668 90 717 138 q 553 16 620 42 q 403 -11 485 -11 q 253 14 322 -11 q 137 85 185 39 q 61 199 88 132 q 35 349 35 265 q 65 506 35 437 q 152 623 96 576 q 287 695 208 670 q 463 720 366 720 l 893 720 z "},"ς":{"ha":666,"x_min":35,"x_max":658,"o":"m 601 549 q 583 531 592 538 q 557 524 574 524 q 528 531 541 524 q 499 548 515 539 q 462 565 483 558 q 408 573 440 573 q 340 559 369 573 q 292 522 311 545 q 265 466 274 498 q 256 400 256 435 q 267 308 256 343 q 305 249 278 273 q 375 208 331 226 q 483 169 418 191 q 593 95 558 139 q 628 -12 628 51 q 612 -117 628 -66 q 560 -222 595 -169 l 394 -160 q 406 -139 399 -151 q 417 -115 412 -127 q 426 -90 422 -102 q 429 -69 429 -78 q 414 -24 429 -43 q 360 8 398 -4 q 277 36 317 21 q 200 71 236 51 q 133 118 164 91 q 81 184 103 146 q 47 272 59 222 q 35 387 35 322 q 58 518 35 456 q 127 628 81 581 q 239 703 172 675 q 394 731 306 731 q 543 704 479 731 q 658 625 607 677 l 601 549 z "},"τ":{"ha":677,"x_min":6,"x_max":669,"o":"m 669 638 q 650 584 669 603 q 596 565 631 565 l 421 565 l 421 226 q 436 166 421 186 q 488 145 451 145 l 559 145 l 559 83 q 544 44 559 60 q 507 16 530 27 q 456 -2 484 4 q 401 -8 428 -8 q 316 9 353 -8 q 255 57 279 26 q 218 127 231 87 q 206 215 206 167 l 206 565 l 6 565 l 6 653 q 10 678 6 666 q 23 699 15 690 q 45 714 32 708 q 77 719 59 719 l 669 719 l 669 638 z "},"υ":{"ha":785,"x_min":65,"x_max":732,"o":"m 697 720 q 710 634 703 676 q 721 550 716 592 q 729 466 726 508 q 732 381 732 424 q 701 204 732 278 q 621 82 671 130 q 506 11 571 34 q 372 -11 441 -11 q 241 8 298 -11 q 144 64 183 28 q 85 150 106 99 q 65 263 65 201 l 65 720 l 281 720 l 281 263 q 310 181 281 210 q 387 151 340 151 q 435 161 411 151 q 480 197 460 172 q 511 267 499 223 q 524 381 524 312 q 519 450 524 416 q 510 517 515 483 q 499 584 504 550 q 490 653 493 618 q 493 685 488 672 q 507 705 498 697 q 527 717 516 713 q 549 720 538 720 l 697 720 z "},"φ":{"ha":1119,"x_min":34,"x_max":1085,"o":"m 657 142 q 746 158 706 143 q 813 203 785 174 q 855 275 840 232 q 870 377 870 319 q 856 464 870 426 q 822 527 842 501 q 776 565 801 552 q 728 578 751 578 q 701 574 714 578 q 678 557 688 569 q 663 527 668 546 q 657 478 657 508 l 657 142 m 456 478 q 475 594 456 547 q 530 673 494 642 q 616 717 566 703 q 728 731 667 731 q 874 704 808 731 q 987 630 940 677 q 1060 517 1034 582 q 1085 377 1085 453 q 1053 215 1085 286 q 963 93 1020 143 q 827 17 905 44 q 657 -11 749 -10 l 657 -228 l 456 -228 l 456 -11 q 288 17 365 -10 q 154 92 210 44 q 66 209 98 141 q 34 362 34 277 q 54 481 34 425 q 110 584 74 538 q 197 667 147 631 q 308 726 247 703 l 364 644 q 373 619 372 632 q 370 594 374 606 q 359 573 367 582 q 344 560 352 563 q 275 481 301 531 q 249 360 249 432 q 264 269 249 309 q 306 202 279 229 q 371 159 333 174 q 456 142 409 144 l 456 478 z "},"χ":{"ha":703,"x_min":-1,"x_max":715,"o":"m 592 -29 q 623 -75 604 -59 q 683 -91 642 -91 l 712 -91 l 712 -174 q 708 -209 712 -196 q 695 -231 704 -223 q 671 -241 686 -238 q 633 -244 656 -244 q 563 -237 596 -244 q 500 -214 529 -231 q 447 -167 472 -197 q 403 -87 422 -136 l 323 100 q 316 58 320 78 q 306 22 312 38 l 215 -190 q 196 -216 210 -206 q 157 -227 182 -227 l 2 -227 l 229 273 l 129 510 q 110 544 119 531 q 89 565 101 557 q 63 576 78 573 q 26 578 48 578 l -1 578 l -1 655 q -1 685 -1 671 q 6 709 -1 699 q 30 725 13 719 q 79 731 47 731 q 155 724 120 731 q 218 700 190 717 q 269 655 247 683 q 310 587 292 627 l 394 390 q 401 432 397 412 q 410 467 405 451 l 501 683 q 521 710 507 699 q 560 721 535 721 l 715 721 l 486 222 l 592 -29 z "},"ψ":{"ha":1131,"x_min":62,"x_max":1076,"o":"m 1041 720 q 1056 634 1049 676 q 1067 550 1062 592 q 1074 466 1072 508 q 1076 381 1076 424 q 1045 208 1076 278 q 961 93 1015 138 q 833 25 907 48 q 674 -6 760 1 l 674 -228 l 459 -228 l 459 -8 q 275 31 351 1 q 152 107 199 60 q 83 218 105 154 q 62 359 62 281 l 62 720 l 212 720 q 237 713 225 720 q 258 693 249 705 q 272 668 267 682 q 277 642 277 654 l 277 359 q 324 224 277 272 q 459 160 370 176 l 459 1012 l 674 1012 l 674 157 q 757 177 722 163 q 815 218 792 192 q 849 284 838 244 q 860 381 860 324 q 855 478 860 440 q 843 547 850 517 q 832 600 837 576 q 826 653 826 624 q 832 685 826 672 q 845 705 837 697 q 864 717 853 713 q 885 720 875 720 l 1041 720 z "},"ω":{"ha":1139,"x_min":40,"x_max":1100,"o":"m 1016 720 q 1051 638 1035 681 q 1077 550 1066 594 q 1094 462 1088 506 q 1100 378 1100 418 q 1080 226 1100 297 q 1021 102 1060 155 q 926 19 983 50 q 798 -11 870 -11 q 720 -3 756 -11 q 657 21 685 6 q 607 56 629 36 q 569 101 585 76 q 530 56 552 76 q 480 21 508 36 q 417 -3 451 6 q 342 -11 383 -11 q 213 19 269 -11 q 118 102 157 50 q 60 226 80 155 q 40 378 40 297 q 45 462 40 418 q 62 550 51 506 q 89 638 73 594 q 124 720 104 681 l 279 720 q 303 716 290 720 q 325 700 316 711 q 337 673 335 690 q 328 631 339 656 q 323 616 328 628 q 309 585 317 604 q 292 540 301 565 q 274 488 283 515 q 261 432 266 460 q 256 378 256 403 q 266 264 256 308 q 292 195 276 220 q 328 161 308 170 q 369 151 349 151 q 414 165 396 151 q 442 203 431 179 q 457 261 453 228 q 462 334 462 294 l 462 487 l 677 487 l 677 334 l 678 334 q 682 261 678 294 q 698 203 687 228 q 726 165 708 179 q 770 151 744 151 q 811 161 791 151 q 848 195 832 170 q 874 264 864 220 q 884 378 884 308 q 879 432 884 403 q 865 488 874 460 q 848 540 857 515 q 830 585 838 565 q 817 616 822 604 q 811 631 811 628 q 803 673 801 656 q 814 700 805 690 q 837 716 824 711 q 860 720 850 720 l 1016 720 z "},"΄":{"ha":556,"x_min":214,"x_max":428,"o":"m 214 792 l 247 1059 l 379 1059 q 418 1042 408 1059 q 418 996 428 1025 l 337 792 l 214 792 z "},"΅":{"ha":556,"x_min":15,"x_max":598,"o":"m 211 798 l 244 1066 l 376 1066 q 415 1049 406 1066 q 415 1002 425 1031 l 334 798 l 211 798 m 598 907 q 591 874 598 889 q 572 847 584 858 q 543 829 560 835 q 508 822 527 822 q 474 829 490 822 q 445 847 458 835 q 426 874 433 858 q 419 907 419 889 q 426 941 419 925 q 445 970 433 958 q 474 989 458 982 q 508 996 490 996 q 543 989 527 996 q 572 970 560 982 q 591 941 584 958 q 598 907 598 925 m 193 907 q 186 874 193 889 q 166 847 178 858 q 138 829 154 835 q 102 822 121 822 q 68 829 84 822 q 41 847 53 835 q 22 874 28 858 q 15 907 15 889 q 22 941 15 925 q 41 970 28 958 q 68 989 53 982 q 102 996 84 996 q 138 989 121 996 q 166 970 154 982 q 186 941 178 958 q 193 907 193 925 z "},"ʹ":{"ha":328,"x_min":33,"x_max":296,"o":"m 263 1058 q 260 814 296 931 q 124 597 224 697 l 56 637 q 35 665 36 649 q 42 693 33 681 q 81 748 64 722 q 104 800 97 774 q 104 853 110 826 q 74 914 98 881 l 74 1006 q 87 1044 74 1029 q 129 1058 100 1058 l 263 1058 z "},"͵":{"ha":328,"x_min":33,"x_max":296,"o":"m 263 283 q 260 39 296 156 q 124 -178 224 -78 l 56 -138 q 35 -110 36 -126 q 42 -82 33 -94 q 81 -27 64 -53 q 104 25 97 -1 q 104 78 110 51 q 74 139 98 106 l 74 231 q 87 269 74 254 q 129 283 100 283 l 263 283 z "},"Б":{"ha":887,"x_min":98,"x_max":853,"o":"m 469 177 q 545 188 515 177 q 592 216 575 198 q 615 256 609 233 q 622 302 622 278 q 615 353 622 330 q 592 394 609 377 q 545 420 575 411 q 469 430 515 430 l 333 430 l 333 177 l 469 177 m 469 607 q 647 584 574 607 q 766 523 720 561 q 833 433 812 484 q 853 326 853 382 q 827 193 853 253 q 752 90 801 133 q 631 24 703 47 q 469 0 560 0 l 98 0 l 98 1012 l 815 1012 l 815 836 l 333 836 l 333 607 l 469 607 z "},"Г":{"ha":756,"x_min":98,"x_max":735,"o":"m 735 838 l 334 838 l 334 0 l 98 0 l 98 1012 l 735 1012 l 735 838 z "},"Ґ":{"ha":756,"x_min":98,"x_max":735,"o":"m 735 838 l 334 838 l 334 0 l 98 0 l 98 1012 l 555 1012 l 555 1233 l 735 1233 l 735 838 z "},"Д":{"ha":1151,"x_min":10,"x_max":1119,"o":"m 733 174 l 733 838 l 510 838 q 488 602 501 706 q 458 417 475 498 q 419 277 440 337 q 374 174 398 217 l 733 174 m 1119 174 l 1119 -172 q 1099 -219 1119 -201 q 1046 -236 1078 -236 l 904 -236 l 904 0 l 225 0 l 225 -172 q 205 -219 225 -201 q 151 -236 184 -236 l 10 -236 l 10 174 l 124 174 q 159 207 141 185 q 194 270 177 230 q 226 372 211 310 q 254 524 242 434 q 275 734 267 613 q 288 1012 284 854 l 969 1012 l 969 174 l 1119 174 z "},"Ж":{"ha":1520,"x_min":-8,"x_max":1528,"o":"m 1528 0 l 1372 0 q 1285 21 1321 0 q 1227 78 1249 42 l 1065 374 q 1024 418 1047 406 q 969 431 1001 431 l 870 431 l 870 0 l 649 0 l 649 431 l 551 431 q 496 418 519 431 q 456 374 474 406 l 293 78 q 235 21 272 42 q 149 0 199 0 l -8 0 l 224 422 q 282 497 251 469 q 354 539 314 524 q 299 575 322 552 q 255 632 276 598 l 24 1012 l 210 1012 q 275 995 246 1012 q 323 949 305 979 l 488 651 q 524 612 504 622 q 571 602 544 602 l 649 602 l 649 1012 l 870 1012 l 870 602 l 949 602 q 996 612 976 602 q 1033 651 1016 622 l 1197 949 q 1245 995 1215 979 q 1310 1012 1274 1012 l 1496 1012 l 1265 632 q 1221 575 1244 598 q 1166 539 1199 552 q 1238 497 1206 524 q 1297 422 1269 469 l 1528 0 z "},"З":{"ha":815,"x_min":4,"x_max":769,"o":"m 40 915 q 186 994 99 965 q 373 1023 272 1023 q 527 1003 458 1023 q 645 948 597 983 q 720 863 694 913 q 746 753 746 813 q 716 627 746 685 q 624 531 687 569 q 683 493 656 515 q 729 445 710 471 q 759 389 748 419 q 769 324 769 358 q 743 193 769 254 q 667 88 717 133 q 544 16 617 42 q 378 -10 472 -10 q 273 0 326 -10 q 171 27 220 10 q 80 69 122 45 q 4 124 37 94 l 74 233 q 95 253 82 245 q 125 261 109 261 q 169 248 147 261 q 222 219 192 235 q 291 190 251 203 q 385 176 331 176 q 454 184 424 176 q 506 208 485 191 q 538 251 527 224 q 549 315 549 277 q 536 368 549 345 q 500 407 524 391 q 445 430 477 422 q 374 437 413 438 l 226 437 l 226 619 l 354 619 q 484 648 442 619 q 526 734 526 678 q 488 810 526 782 q 371 838 449 838 q 292 828 326 838 q 232 806 258 818 q 186 783 206 793 q 150 773 167 773 q 120 781 132 773 q 99 806 109 790 l 40 915 z "},"И":{"ha":1079,"x_min":98,"x_max":981,"o":"m 981 1012 l 981 0 l 745 0 l 745 567 q 748 650 745 606 q 757 744 750 694 q 722 662 741 700 q 685 596 703 624 l 378 70 q 359 45 370 58 q 335 23 349 33 q 307 6 322 13 q 275 0 292 0 l 98 0 l 98 1012 l 334 1012 l 334 446 q 332 362 334 406 q 322 268 330 318 q 357 350 338 312 q 394 416 376 388 l 701 942 q 720 967 709 954 q 744 989 731 979 q 772 1006 757 999 q 804 1012 788 1012 l 981 1012 z "},"К":{"ha":999,"x_min":98,"x_max":1003,"o":"m 1003 0 l 789 0 q 736 17 758 0 q 697 65 715 33 l 528 381 q 491 421 512 411 q 438 431 470 431 l 333 431 l 333 0 l 98 0 l 98 1012 l 333 1012 l 333 602 l 419 602 q 464 612 445 602 q 499 647 483 622 l 683 952 q 722 995 699 978 q 777 1012 744 1012 l 978 1012 l 732 614 q 690 568 715 586 q 637 538 666 550 q 716 497 683 526 q 777 417 749 468 l 1003 0 z "},"Л":{"ha":1056,"x_min":-1,"x_max":958,"o":"m 958 0 l 722 0 l 722 838 l 499 838 q 469 516 488 651 q 424 287 451 381 q 365 134 398 192 q 292 43 331 76 q 207 0 252 11 q 111 -11 161 -11 q 24 0 50 -11 q -1 31 -1 10 l -1 174 l 57 174 q 89 176 72 174 q 123 191 106 179 q 157 226 140 203 q 190 290 174 249 q 220 392 206 331 q 245 540 234 453 q 265 744 257 627 q 277 1012 274 860 l 958 1012 l 958 0 z "},"Љ":{"ha":1497,"x_min":-1,"x_max":1479,"o":"m 1094 177 q 1171 188 1141 177 q 1218 216 1201 198 q 1241 256 1235 233 q 1247 302 1247 278 q 1241 353 1247 330 q 1218 394 1235 377 q 1171 420 1201 411 q 1094 430 1141 430 l 958 430 l 958 177 l 1094 177 m 1094 607 q 1273 584 1199 607 q 1392 523 1346 561 q 1458 433 1438 484 q 1479 326 1479 382 q 1453 193 1479 253 q 1378 90 1427 133 q 1257 24 1328 47 q 1094 0 1185 0 l 722 0 l 722 838 l 499 838 q 469 516 488 651 q 424 287 451 381 q 365 134 398 192 q 292 43 331 76 q 207 0 252 11 q 111 -11 161 -11 q 24 0 50 -11 q -1 31 -1 10 l -1 174 l 57 174 q 89 176 72 174 q 123 191 106 179 q 157 226 140 203 q 190 290 174 249 q 220 392 206 331 q 245 540 234 453 q 265 744 257 627 q 277 1012 274 860 l 958 1012 l 958 607 l 1094 607 z "},"Њ":{"ha":1520,"x_min":98,"x_max":1502,"o":"m 1117 177 q 1194 188 1164 177 q 1241 216 1224 198 q 1264 256 1258 233 q 1270 302 1270 278 q 1264 353 1270 330 q 1241 394 1258 377 q 1194 420 1224 411 q 1117 430 1164 430 l 981 430 l 981 177 l 1117 177 m 1117 607 q 1295 584 1222 607 q 1415 523 1369 561 q 1481 433 1460 484 q 1502 326 1502 382 q 1476 193 1502 253 q 1401 90 1450 133 q 1280 24 1351 47 q 1117 0 1208 0 l 745 0 l 745 428 l 334 428 l 334 0 l 98 0 l 98 1012 l 334 1012 l 334 589 l 745 589 l 745 1012 l 981 1012 l 981 607 l 1117 607 z "},"Ѳ":{"ha":1131,"x_min":40,"x_max":1091,"o":"m 285 428 q 318 325 294 370 q 377 248 341 279 q 460 200 413 217 q 566 183 508 183 q 672 200 624 183 q 754 248 719 217 q 813 325 790 279 q 845 428 835 370 l 285 428 m 843 596 q 751 768 822 707 q 566 829 680 829 q 380 768 451 829 q 288 596 308 707 l 843 596 m 566 1023 q 781 983 684 1023 q 947 874 878 943 q 1053 710 1015 804 q 1091 506 1091 615 q 1053 302 1091 397 q 947 138 1015 208 q 781 28 878 68 q 566 -11 684 -11 q 351 28 448 -11 q 184 138 253 68 q 77 302 115 208 q 40 506 40 397 q 77 710 40 616 q 184 874 115 805 q 351 983 253 944 q 566 1023 448 1023 z "},"П":{"ha":1048,"x_min":98,"x_max":950,"o":"m 950 0 l 714 0 l 714 838 l 334 838 l 334 0 l 98 0 l 98 1012 l 950 1012 l 950 0 z "},"У":{"ha":919,"x_min":-24,"x_max":944,"o":"m 944 1012 l 538 147 q 487 68 514 99 q 429 20 460 38 q 363 -5 398 2 q 289 -11 328 -11 q 202 0 228 -11 q 176 31 176 10 l 176 174 l 235 174 q 263 176 248 174 q 293 185 278 178 q 323 207 308 192 q 351 245 338 221 l 383 308 l -24 1012 l 197 1012 q 245 998 228 1012 q 275 961 263 983 l 425 660 q 458 592 444 626 q 484 523 473 558 q 508 592 494 558 q 539 660 522 626 l 674 961 q 685 979 678 970 q 702 995 692 988 q 723 1007 711 1003 q 750 1012 735 1012 l 944 1012 z "},"Ѵ":{"ha":1009,"x_min":-22,"x_max":1001,"o":"m 671 851 q 755 978 699 937 q 910 1020 811 1020 q 958 1018 940 1020 q 986 1010 976 1015 q 998 997 995 1005 q 1001 978 1001 989 l 1001 836 l 963 836 q 910 819 931 836 q 876 765 890 803 l 597 0 l 384 0 l -22 1012 l 167 1012 q 217 998 198 1012 q 245 961 235 983 l 441 419 q 468 342 455 384 q 493 254 481 300 q 515 342 503 300 q 541 419 527 384 l 671 851 z "},"Ф":{"ha":1145,"x_min":32,"x_max":1113,"o":"m 684 294 q 762 314 726 296 q 824 364 798 333 q 865 437 850 395 q 879 526 879 478 q 865 616 879 574 q 824 688 850 657 q 762 738 798 719 q 684 758 726 757 l 684 294 m 462 758 q 383 738 419 757 q 322 688 347 719 q 281 616 296 657 q 267 526 267 574 q 281 437 267 478 q 322 364 296 395 q 383 314 347 333 q 462 294 419 296 l 462 758 m 684 933 q 854 896 776 929 q 990 808 933 863 q 1081 681 1048 753 q 1113 526 1113 609 q 1081 371 1113 444 q 990 244 1048 299 q 854 156 933 189 q 684 119 776 123 l 684 0 l 462 0 l 462 119 q 292 156 370 123 q 155 244 213 189 q 65 371 97 299 q 32 526 32 444 q 65 681 32 609 q 155 808 97 753 q 291 896 213 863 q 462 933 370 929 l 462 1051 l 684 1051 l 684 933 z "},"Ц":{"ha":1122,"x_min":98,"x_max":1086,"o":"m 1086 174 l 1086 -172 q 1066 -219 1086 -201 q 1013 -236 1045 -236 l 871 -236 l 871 0 l 98 0 l 98 1012 l 334 1012 l 334 174 l 714 174 l 714 1012 l 950 1012 l 950 174 l 1086 174 z "},"Џ":{"ha":1048,"x_min":98,"x_max":950,"o":"m 950 1012 l 950 0 l 631 0 l 631 -172 q 611 -219 631 -201 q 558 -236 590 -236 l 416 -236 l 416 0 l 98 0 l 98 1012 l 334 1012 l 334 174 l 714 174 l 714 1012 l 950 1012 z "},"Ч":{"ha":958,"x_min":46,"x_max":860,"o":"m 860 1012 l 860 0 l 624 0 l 624 380 q 466 353 541 361 q 327 350 392 344 q 211 376 263 356 q 122 436 159 397 q 66 535 85 476 q 46 676 46 594 l 46 1012 l 282 1012 l 282 675 q 295 590 282 626 q 346 535 308 553 q 450 517 383 516 q 624 541 517 517 l 624 1012 l 860 1012 z "},"Ш":{"ha":1518,"x_min":98,"x_max":1420,"o":"m 1420 1012 l 1420 0 l 98 0 l 98 1012 l 334 1012 l 334 174 l 641 174 l 641 1012 l 877 1012 l 877 174 l 1184 174 l 1184 1012 l 1420 1012 z "},"Щ":{"ha":1592,"x_min":98,"x_max":1556,"o":"m 1556 174 l 1556 -172 q 1536 -219 1556 -201 q 1483 -236 1515 -236 l 1341 -236 l 1341 0 l 98 0 l 98 1012 l 334 1012 l 334 174 l 641 174 l 641 1012 l 877 1012 l 877 174 l 1184 174 l 1184 1012 l 1420 1012 l 1420 174 l 1556 174 z "},"Ъ":{"ha":1075,"x_min":20,"x_max":1057,"o":"m 672 177 q 749 188 719 177 q 795 216 778 198 q 819 256 813 233 q 825 302 825 278 q 819 353 825 330 q 795 394 813 377 q 749 420 778 411 q 672 430 719 430 l 536 430 l 536 177 l 672 177 m 672 607 q 850 584 777 607 q 969 523 924 561 q 1036 433 1015 484 q 1057 326 1057 382 q 1031 193 1057 253 q 956 90 1005 133 q 835 24 906 47 q 672 0 763 0 l 301 0 l 301 831 l 20 831 l 20 1012 l 536 1012 l 536 607 l 672 607 z "},"Ы":{"ha":1301,"x_min":98,"x_max":1203,"o":"m 469 177 q 545 188 515 177 q 592 216 575 198 q 615 256 609 233 q 622 302 622 278 q 615 353 622 330 q 592 394 609 377 q 545 420 575 411 q 469 430 515 430 l 333 430 l 333 177 l 469 177 m 469 607 q 647 584 574 607 q 766 523 720 561 q 833 433 812 484 q 853 326 853 382 q 827 193 853 253 q 752 90 801 133 q 631 24 703 47 q 469 0 560 0 l 98 0 l 98 1012 l 333 1012 l 333 607 l 469 607 m 1203 0 l 967 0 l 967 1012 l 1203 1012 l 1203 0 z "},"Ь":{"ha":872,"x_min":98,"x_max":853,"o":"m 469 177 q 545 188 515 177 q 592 216 575 198 q 615 256 609 233 q 622 302 622 278 q 615 353 622 330 q 592 394 609 377 q 545 420 575 411 q 469 430 515 430 l 333 430 l 333 177 l 469 177 m 469 607 q 647 584 574 607 q 766 523 720 561 q 833 433 812 484 q 853 326 853 382 q 827 193 853 253 q 752 90 801 133 q 631 24 703 47 q 469 0 560 0 l 98 0 l 98 1012 l 333 1012 l 333 607 l 469 607 z "},"Э":{"ha":918,"x_min":13,"x_max":877,"o":"m 25 888 q 90 942 53 917 q 170 985 126 967 q 265 1013 214 1003 q 372 1023 315 1023 q 577 985 484 1023 q 737 878 670 947 q 840 714 803 809 q 877 506 877 619 q 843 300 877 395 q 745 136 809 206 q 591 28 682 67 q 384 -11 499 -11 q 166 30 258 -11 q 13 150 74 70 l 106 248 q 122 259 114 256 q 139 262 131 262 q 159 257 149 262 q 177 246 169 253 q 218 215 198 227 q 261 195 238 203 q 310 185 284 188 q 369 182 336 182 q 460 198 417 182 q 538 245 503 214 q 597 322 572 276 q 631 428 621 368 l 200 428 l 200 596 l 629 596 q 596 695 619 652 q 541 769 574 739 q 465 814 508 799 q 374 829 423 829 q 284 818 318 829 q 226 793 249 806 q 186 768 203 779 q 151 756 170 756 q 122 764 133 756 q 104 782 112 772 l 25 888 z "},"Є":{"ha":919,"x_min":42,"x_max":906,"o":"m 780 262 q 797 259 788 262 q 813 248 805 256 l 906 150 q 752 30 844 70 q 535 -11 660 -11 q 328 28 419 -11 q 173 136 237 67 q 76 300 110 206 q 42 506 42 395 q 78 714 42 619 q 182 878 115 809 q 342 985 249 947 q 547 1023 435 1023 q 654 1013 603 1023 q 748 985 704 1003 q 828 942 792 967 q 894 888 865 917 l 815 782 q 797 764 807 772 q 767 756 786 756 q 744 762 755 756 q 720 775 733 767 q 693 793 708 783 q 657 810 678 802 q 609 824 637 818 q 545 829 582 829 q 453 814 496 829 q 378 768 411 798 q 323 695 345 739 q 290 596 300 652 l 717 596 l 717 428 l 288 428 q 323 322 299 368 q 381 245 347 276 q 459 198 416 214 q 550 182 502 182 q 608 185 582 182 q 658 195 635 188 q 701 215 681 203 q 742 246 721 227 q 760 257 750 253 q 780 262 769 262 z "},"Ю":{"ha":1510,"x_min":98,"x_max":1468,"o":"m 974 176 q 1082 200 1035 176 q 1162 266 1130 223 q 1211 369 1194 308 q 1228 506 1228 431 q 1211 642 1228 581 q 1162 746 1194 703 q 1082 812 1130 789 q 974 835 1035 835 q 865 812 912 835 q 785 746 817 789 q 736 642 753 703 q 719 506 719 581 q 736 369 719 431 q 785 266 753 308 q 865 200 817 223 q 974 176 912 176 m 485 590 q 536 763 497 684 q 638 900 575 842 q 785 991 701 958 q 974 1023 870 1023 q 1180 983 1088 1023 q 1335 874 1272 944 q 1434 710 1399 805 q 1468 506 1468 616 q 1434 302 1468 397 q 1335 138 1399 208 q 1180 28 1272 68 q 974 -11 1088 -11 q 787 21 872 -11 q 640 110 703 53 q 538 245 578 167 q 485 416 499 323 l 334 416 l 334 0 l 98 0 l 98 1012 l 334 1012 l 334 590 l 485 590 z "},"Я":{"ha":961,"x_min":-17,"x_max":863,"o":"m 628 582 l 628 835 l 485 835 q 409 825 438 835 q 362 797 379 815 q 339 757 345 779 q 333 710 333 734 q 339 658 333 682 q 362 618 345 635 q 409 591 379 601 q 485 582 438 582 l 628 582 m 863 0 l 628 0 l 628 406 l 556 406 q 497 391 524 406 q 447 336 470 377 l 306 78 q 248 21 284 42 q 161 0 212 0 l -17 0 l 190 345 q 241 407 213 382 q 306 448 269 432 q 215 490 253 464 q 150 550 176 516 q 113 624 125 583 q 101 708 101 664 q 127 829 101 774 q 202 925 153 885 q 323 989 251 966 q 485 1012 394 1012 l 863 1012 l 863 0 z "},"Ђ":{"ha":1060,"x_min":19,"x_max":1056,"o":"m 671 607 q 849 584 776 607 q 968 523 922 561 q 1035 433 1014 484 q 1056 326 1056 382 q 1030 193 1056 253 q 954 90 1003 133 q 833 24 905 47 q 671 0 762 0 l 617 0 l 617 177 l 671 177 q 747 188 717 177 q 794 216 777 198 q 817 256 811 233 q 824 302 824 278 q 817 353 824 330 q 794 394 811 377 q 747 420 777 411 q 671 430 717 430 l 507 430 l 507 0 l 272 0 l 272 833 l 19 833 l 19 1012 l 775 1012 l 775 833 l 507 833 l 507 607 l 671 607 z "},"Ћ":{"ha":1066,"x_min":19,"x_max":1029,"o":"m 507 601 q 724 632 628 629 q 889 602 821 635 q 993 498 956 570 q 1029 304 1029 426 l 1029 -1 l 793 -1 l 793 305 q 791 364 793 338 q 780 411 789 391 q 753 444 771 431 q 703 461 735 457 q 623 460 671 465 q 507 440 575 456 l 507 0 l 272 0 l 272 833 l 19 833 l 19 1012 l 775 1012 l 775 833 l 507 833 l 507 601 z "},"Ѣ":{"ha":1033,"x_min":26,"x_max":1015,"o":"m 631 177 q 707 188 677 177 q 754 216 737 198 q 777 256 771 233 q 783 302 783 278 q 777 353 783 330 q 754 394 771 377 q 707 420 737 411 q 631 430 677 430 l 494 430 l 494 177 l 631 177 m 631 607 q 809 584 735 607 q 928 523 882 561 q 994 433 974 484 q 1015 326 1015 382 q 989 193 1015 253 q 914 90 963 133 q 793 24 865 47 q 631 0 722 0 l 260 0 l 260 717 l 26 717 l 26 883 l 260 883 l 260 1012 l 494 1012 l 494 883 l 777 883 l 777 717 l 494 717 l 494 607 l 631 607 z "},"б":{"ha":828,"x_min":53,"x_max":790,"o":"m 424 141 q 533 191 498 141 q 568 342 568 240 q 533 492 568 443 q 424 542 498 542 q 311 493 347 542 q 276 343 276 444 q 311 191 276 241 q 424 141 347 141 m 475 820 q 373 799 415 817 q 302 751 330 781 q 260 678 274 720 q 243 586 246 637 q 284 629 260 609 q 338 663 308 649 q 402 685 367 677 q 478 694 438 694 q 608 668 550 694 q 706 597 665 643 q 768 486 747 551 q 790 342 790 422 q 764 195 790 260 q 689 84 737 130 q 573 14 640 38 q 424 -11 506 -11 q 273 15 341 -11 q 156 99 205 42 q 80 248 107 157 q 53 469 53 339 q 73 670 53 576 q 140 836 93 764 q 264 952 187 908 q 457 1004 342 997 l 712 1022 l 724 913 q 713 855 727 879 q 664 830 699 831 l 475 820 z "},"в":{"ha":706,"x_min":73,"x_max":668,"o":"m 383 142 q 447 164 423 142 q 470 223 470 185 q 467 252 470 238 q 455 276 464 266 q 428 293 445 287 q 383 299 410 299 l 277 299 l 277 142 l 383 142 m 277 585 l 277 426 l 368 426 q 433 450 408 426 q 458 512 458 474 q 453 538 458 525 q 439 562 449 551 q 411 579 428 572 q 368 585 394 585 l 277 585 m 374 720 q 495 707 444 720 q 580 670 547 694 q 630 614 614 647 q 647 544 647 582 q 641 495 647 520 q 620 448 635 471 q 580 407 606 426 q 515 378 555 389 q 576 356 548 370 q 625 322 604 342 q 657 275 645 302 q 668 215 668 249 q 644 116 668 157 q 580 50 619 76 q 489 12 540 24 q 384 0 438 0 l 73 0 l 73 720 l 374 720 z "},"г":{"ha":594,"x_min":73,"x_max":580,"o":"m 580 566 l 288 566 l 288 0 l 73 0 l 73 720 l 580 720 l 580 566 z "},"ґ":{"ha":594,"x_min":73,"x_max":580,"o":"m 580 889 l 580 566 l 288 566 l 288 0 l 73 0 l 73 720 l 384 720 l 384 889 l 580 889 z "},"д":{"ha":900,"x_min":9,"x_max":881,"o":"m 540 148 l 540 561 l 407 561 q 391 422 401 485 q 370 308 382 358 q 344 217 358 257 q 314 148 330 178 l 540 148 m 881 154 l 881 -175 q 864 -219 881 -203 q 820 -236 847 -236 l 685 -236 l 685 0 l 205 0 l 205 -178 q 201 -199 205 -189 q 191 -218 198 -210 q 172 -231 183 -226 q 146 -236 161 -236 l 9 -236 l 9 148 l 26 148 q 73 153 50 148 q 116 177 95 158 q 154 233 136 196 q 186 333 172 269 q 213 491 201 397 q 231 720 224 586 l 748 720 l 748 154 l 881 154 z "},"ж":{"ha":1172,"x_min":5,"x_max":1167,"o":"m 1167 0 l 1019 0 q 969 4 990 0 q 932 17 948 8 q 906 39 917 26 q 886 71 894 53 l 810 252 q 780 288 799 276 q 734 299 760 299 l 690 299 l 690 0 l 482 0 l 482 299 l 438 299 q 393 288 413 299 q 363 252 373 276 l 286 71 q 267 39 278 53 q 240 17 256 26 q 203 4 224 8 q 153 0 182 0 l 5 0 l 156 296 q 195 350 173 329 q 253 383 217 372 q 209 411 227 393 q 174 458 191 429 l 22 720 l 192 720 q 246 706 222 720 q 284 666 270 691 l 379 476 q 405 444 390 453 q 448 435 419 435 l 482 435 l 482 720 l 690 720 l 690 435 l 721 435 q 766 444 750 435 q 793 476 782 453 l 888 666 q 926 706 902 691 q 980 720 951 720 l 1150 720 l 999 458 q 963 411 981 429 q 919 383 945 393 q 977 350 955 372 q 1017 296 999 329 l 1167 0 z "},"з":{"ha":628,"x_min":13,"x_max":588,"o":"m 33 639 q 138 706 76 680 q 287 731 199 731 q 408 715 355 731 q 499 672 462 699 q 556 609 536 645 q 576 534 576 574 q 570 493 576 514 q 552 451 565 472 q 518 413 539 431 q 467 382 497 395 q 515 355 493 371 q 553 318 538 339 q 578 270 569 297 q 588 213 588 244 q 562 117 588 158 q 495 47 537 75 q 401 3 454 18 q 294 -11 349 -11 q 232 -6 267 -11 q 159 13 197 -1 q 84 50 122 26 q 13 113 47 74 l 76 190 q 115 208 89 208 q 149 199 134 208 q 181 177 164 189 q 222 157 199 166 q 280 147 244 147 q 358 171 333 147 q 383 231 383 195 q 356 285 383 266 q 264 304 329 304 l 183 304 l 183 438 l 264 438 q 351 457 322 438 q 380 508 380 476 q 354 556 380 540 q 281 573 328 573 q 224 566 247 573 q 185 551 201 559 q 155 536 168 543 q 129 529 142 529 q 104 535 115 529 q 82 558 94 540 l 33 639 z "},"и":{"ha":819,"x_min":73,"x_max":747,"o":"m 747 720 l 747 0 l 531 0 l 531 367 q 533 406 531 385 q 539 449 535 427 q 503 386 522 412 q 492 369 502 385 q 466 330 482 354 q 431 276 451 306 q 390 215 411 247 q 281 51 342 142 q 267 32 275 42 q 249 16 259 23 q 228 4 240 8 q 205 -1 217 -1 l 73 -1 l 73 719 l 288 719 l 288 353 q 286 314 288 335 q 281 270 284 292 q 316 333 297 308 q 327 350 317 335 q 353 389 338 365 q 389 443 369 413 q 429 504 408 473 q 538 669 478 577 q 552 687 544 678 q 570 704 560 697 q 591 716 580 711 q 615 720 602 720 l 747 720 z "},"к":{"ha":788,"x_min":73,"x_max":783,"o":"m 497 666 q 539 705 513 690 q 595 720 566 720 l 765 720 l 614 458 q 578 411 597 429 q 535 383 560 393 q 592 350 570 372 q 632 296 615 328 l 783 0 l 634 0 q 584 5 606 0 q 547 18 563 9 q 517 40 530 27 q 494 71 505 53 l 418 252 q 388 288 408 276 q 342 299 368 299 l 288 299 l 288 0 l 73 0 l 73 720 l 288 720 l 288 435 l 333 435 q 376 444 362 435 q 401 476 390 453 l 497 666 z "},"л":{"ha":847,"x_min":4,"x_max":774,"o":"m 774 0 l 559 0 l 559 561 l 428 561 q 401 340 419 432 q 359 184 383 247 q 303 82 334 120 q 239 23 273 43 q 167 -5 204 2 q 92 -11 130 -11 q 24 -3 44 -11 q 4 19 4 5 l 4 148 l 49 148 q 93 154 72 148 q 135 180 115 160 q 173 237 155 199 q 206 339 191 275 q 232 495 221 402 q 251 720 244 589 l 774 720 l 774 0 z "},"љ":{"ha":1178,"x_min":4,"x_max":1158,"o":"m 880 149 q 945 173 923 149 q 967 235 967 197 q 962 266 967 251 q 946 293 957 281 q 919 311 935 304 q 880 317 902 317 l 774 317 l 774 149 l 880 149 m 879 465 q 1008 447 955 465 q 1094 397 1061 428 q 1143 324 1128 365 q 1158 236 1158 282 q 1140 141 1158 184 q 1085 66 1121 97 q 998 17 1049 35 q 881 0 946 0 l 559 0 l 559 561 l 428 561 q 401 340 419 432 q 359 184 383 247 q 303 82 334 120 q 239 23 273 43 q 167 -5 204 2 q 92 -11 130 -11 q 24 -3 44 -11 q 4 19 4 5 l 4 148 l 49 148 q 93 154 72 148 q 135 180 115 160 q 173 237 155 199 q 206 339 191 275 q 232 495 221 402 q 251 720 244 589 l 774 720 l 774 465 l 879 465 z "},"м":{"ha":1009,"x_min":73,"x_max":936,"o":"m 936 721 l 936 0 l 742 0 l 742 341 q 744 401 742 367 q 753 464 747 434 l 576 122 q 516 87 557 87 l 493 87 q 433 122 452 87 l 256 465 q 264 401 261 435 q 267 341 267 368 l 267 0 l 73 0 l 73 721 l 253 721 q 298 711 276 721 q 335 674 319 702 l 456 428 q 482 375 470 403 q 504 318 494 347 q 526 375 515 347 q 552 428 538 403 l 674 674 q 711 712 690 703 q 756 721 733 721 l 936 721 z "},"н":{"ha":799,"x_min":73,"x_max":726,"o":"m 726 720 l 726 0 l 510 0 l 510 304 l 288 304 l 288 0 l 73 0 l 73 720 l 288 720 l 288 458 l 510 458 l 510 720 l 726 720 z "},"њ":{"ha":1130,"x_min":73,"x_max":1110,"o":"m 831 149 q 897 173 874 149 q 919 235 919 197 q 914 266 919 251 q 898 293 908 281 q 870 311 887 304 q 831 317 853 317 l 726 317 l 726 149 l 831 149 m 831 465 q 959 447 906 465 q 1046 397 1013 428 q 1094 324 1079 365 q 1110 236 1110 282 q 1091 141 1110 184 q 1036 66 1072 97 q 949 17 1001 35 q 832 0 897 0 l 510 0 l 510 304 l 288 304 l 288 0 l 73 0 l 73 720 l 288 720 l 288 458 l 510 458 l 510 720 l 726 720 l 726 465 l 831 465 z "},"ѳ":{"ha":807,"x_min":35,"x_max":772,"o":"m 248 299 q 299 181 259 219 q 405 142 340 142 q 508 181 468 142 q 559 299 548 219 l 248 299 m 557 434 q 505 543 544 508 q 405 578 466 578 q 303 543 342 578 q 250 434 263 508 l 557 434 m 405 731 q 554 706 487 731 q 670 632 622 680 q 745 516 718 584 q 772 362 772 447 q 745 207 772 276 q 670 89 718 138 q 554 15 622 41 q 405 -11 487 -11 q 255 15 322 -11 q 138 89 187 41 q 62 207 89 138 q 35 362 35 276 q 62 516 35 447 q 138 632 89 584 q 255 706 187 680 q 405 731 322 731 z "},"п":{"ha":799,"x_min":73,"x_max":726,"o":"m 726 0 l 510 0 l 510 566 l 288 566 l 288 0 l 73 0 l 73 720 l 726 720 l 726 0 z "},"т":{"ha":722,"x_min":14,"x_max":708,"o":"m 708 566 l 469 566 l 469 0 l 253 0 l 253 566 l 14 566 l 14 720 l 708 720 l 708 566 z "},"ѵ":{"ha":778,"x_min":-5,"x_max":761,"o":"m 477 575 q 510 653 491 623 q 553 701 529 683 q 607 724 578 718 q 671 731 636 731 q 717 727 699 731 q 744 719 735 724 q 758 710 754 715 q 761 701 761 705 l 761 586 l 739 586 q 692 575 713 586 q 663 539 672 564 l 473 0 l 277 0 l -5 720 l 174 720 q 213 709 197 720 q 234 683 228 699 l 337 360 q 361 281 351 319 q 379 202 372 242 q 398 280 388 241 q 420 360 408 318 l 477 575 z "},"ф":{"ha":1049,"x_min":33,"x_max":1015,"o":"m 618 144 q 693 166 659 149 q 750 209 726 182 q 787 274 774 236 q 800 360 800 313 q 787 447 800 408 q 750 512 774 485 q 693 555 726 539 q 618 576 659 572 l 618 144 m 431 576 q 356 555 390 572 q 298 512 322 539 q 261 447 274 485 q 249 360 249 408 q 261 274 249 313 q 298 209 274 236 q 356 166 322 182 q 431 144 390 149 l 431 576 m 625 730 q 781 696 710 724 q 905 620 853 668 q 986 508 957 573 q 1015 362 1015 442 q 986 215 1015 281 q 905 101 957 149 q 781 24 853 53 q 625 -10 710 -4 l 625 -236 l 424 -236 l 424 -10 q 267 24 339 -4 q 144 101 196 53 q 63 215 92 149 q 33 362 33 281 q 63 508 33 442 q 144 620 92 573 q 267 696 196 668 q 424 730 339 724 l 424 1012 l 625 1012 l 625 730 z "},"ц":{"ha":878,"x_min":73,"x_max":858,"o":"m 858 154 l 858 -175 q 841 -219 858 -203 q 798 -236 824 -236 l 663 -236 l 663 0 l 73 0 l 73 720 l 288 720 l 288 154 l 510 154 l 510 720 l 726 720 l 726 154 l 858 154 z "},"џ":{"ha":799,"x_min":73,"x_max":726,"o":"m 726 720 l 726 0 l 497 0 l 497 -175 q 480 -219 497 -203 q 437 -236 463 -236 l 301 -236 l 301 0 l 73 0 l 73 720 l 288 720 l 288 154 l 510 154 l 510 720 l 726 720 z "},"ч":{"ha":748,"x_min":40,"x_max":675,"o":"m 675 720 l 675 0 l 460 0 l 460 266 q 289 244 367 244 q 156 268 212 243 q 70 344 101 292 q 40 480 40 396 l 40 720 l 255 720 l 255 512 q 264 450 255 474 q 296 413 273 425 q 359 400 319 400 q 460 410 399 399 l 460 720 l 675 720 z "},"ш":{"ha":1167,"x_min":73,"x_max":1094,"o":"m 1094 720 l 1094 0 l 73 0 l 73 720 l 288 720 l 288 154 l 476 154 l 476 720 l 691 720 l 691 154 l 878 154 l 878 720 l 1094 720 z "},"щ":{"ha":1246,"x_min":73,"x_max":1226,"o":"m 1226 154 l 1226 -175 q 1209 -219 1226 -203 q 1166 -236 1192 -236 l 1031 -236 l 1031 0 l 73 0 l 73 720 l 288 720 l 288 154 l 476 154 l 476 720 l 691 720 l 691 154 l 878 154 l 878 720 l 1094 720 l 1094 154 l 1226 154 z "},"ъ":{"ha":836,"x_min":15,"x_max":816,"o":"m 538 149 q 603 173 581 149 q 625 235 625 197 q 620 266 625 251 q 604 293 615 281 q 576 311 593 304 q 538 317 560 317 l 432 317 l 432 149 l 538 149 m 537 465 q 666 447 613 465 q 752 397 719 428 q 801 324 785 365 q 816 236 816 282 q 797 141 816 184 q 743 66 778 97 q 655 17 707 35 q 538 0 603 0 l 228 0 l 228 564 l 15 564 l 15 720 l 432 720 l 432 465 l 537 465 z "},"ы":{"ha":1056,"x_min":73,"x_max":983,"o":"m 383 149 q 448 173 426 149 q 470 235 470 197 q 465 266 470 251 q 449 293 460 281 q 422 311 438 304 q 383 317 405 317 l 277 317 l 277 149 l 383 149 m 382 465 q 511 447 458 465 q 597 397 564 428 q 646 324 631 365 q 661 236 661 282 q 642 141 661 184 q 588 66 624 97 q 500 17 552 35 q 383 0 449 0 l 73 0 l 73 720 l 277 720 l 277 465 l 382 465 m 983 720 l 983 0 l 767 0 l 767 720 l 983 720 z "},"ь":{"ha":681,"x_min":73,"x_max":661,"o":"m 383 149 q 448 173 426 149 q 470 235 470 197 q 465 266 470 251 q 449 293 460 281 q 422 311 438 304 q 383 317 405 317 l 277 317 l 277 149 l 383 149 m 382 465 q 511 447 458 465 q 597 397 564 428 q 646 324 631 365 q 661 236 661 282 q 642 141 661 184 q 588 66 624 97 q 500 17 552 35 q 383 0 449 0 l 73 0 l 73 720 l 277 720 l 277 465 l 382 465 z "},"э":{"ha":683,"x_min":18,"x_max":647,"o":"m 24 625 q 139 704 75 677 q 288 731 203 731 q 443 703 376 731 q 555 625 510 674 q 624 507 601 575 q 647 362 647 440 q 620 203 647 273 q 548 86 594 134 q 443 14 503 39 q 317 -11 383 -11 q 241 -6 280 -11 q 164 13 202 -1 q 88 50 125 26 q 18 113 51 74 l 77 183 q 116 201 90 201 q 149 193 135 201 q 178 174 162 185 q 216 156 194 164 q 276 147 239 147 q 375 186 335 147 q 428 297 415 224 l 155 297 l 155 438 l 426 438 q 375 538 413 503 q 274 573 337 573 q 219 566 241 573 q 181 552 198 560 q 151 537 165 544 q 122 531 138 531 q 97 537 106 531 q 78 556 88 544 l 24 625 z "},"є":{"ha":683,"x_min":35,"x_max":665,"o":"m 605 556 q 586 537 595 544 q 560 531 577 531 q 531 537 544 531 q 501 552 518 544 q 463 566 485 560 q 409 573 441 573 q 308 538 346 573 q 256 438 270 502 l 528 438 l 528 297 l 254 297 q 307 185 267 224 q 406 147 347 147 q 466 156 444 147 q 505 174 489 164 q 534 193 521 185 q 567 201 547 201 q 606 183 592 201 l 665 113 q 594 50 631 74 q 519 13 558 26 q 442 -6 481 -1 q 366 -11 403 -11 q 240 14 300 -11 q 134 86 180 39 q 62 203 89 134 q 35 362 35 273 q 59 507 35 440 q 127 625 82 575 q 240 703 173 674 q 395 731 307 731 q 544 704 480 731 q 659 625 608 677 l 605 556 z "},"ю":{"ha":1140,"x_min":73,"x_max":1104,"o":"m 747 149 q 850 201 817 149 q 882 360 882 253 q 850 519 882 467 q 747 572 817 572 q 645 519 677 572 q 613 360 613 467 q 645 201 613 253 q 747 149 677 149 m 403 440 q 442 562 413 508 q 516 653 472 616 q 618 711 560 691 q 747 731 677 731 q 893 706 827 731 q 1005 632 958 680 q 1078 516 1052 584 q 1104 362 1104 447 q 1077 207 1104 276 q 1002 89 1050 138 q 889 15 954 41 q 747 -11 824 -11 q 614 10 674 -11 q 510 70 554 31 q 438 166 466 109 q 401 293 410 222 l 288 293 l 288 0 l 73 0 l 73 720 l 288 720 l 288 440 l 403 440 z "},"я":{"ha":723,"x_min":-9,"x_max":650,"o":"m 446 405 l 446 585 l 376 585 q 333 577 350 585 q 305 557 315 569 q 290 528 294 544 q 286 497 286 512 q 311 430 286 454 q 376 405 336 405 l 446 405 m 650 720 l 650 0 l 446 0 l 446 277 l 438 277 q 402 273 416 277 q 378 261 388 269 q 363 243 369 253 q 350 222 356 233 l 272 71 q 251 40 262 53 q 224 18 240 26 q 189 5 209 9 q 140 0 168 0 l -9 0 l 148 240 q 188 290 165 271 q 242 319 211 308 q 161 350 194 330 q 108 396 128 370 q 78 450 88 422 q 69 505 69 478 q 86 585 69 547 q 140 654 103 624 q 233 702 176 684 q 369 720 290 720 l 650 720 z "},"ђ":{"ha":793,"x_min":-29,"x_max":742,"o":"m 288 590 q 372 644 326 624 q 481 665 417 665 q 678 580 615 665 q 742 327 742 494 q 731 187 742 258 q 701 45 721 115 q 654 -93 682 -26 q 592 -223 626 -161 l 419 -160 q 466 -43 446 -101 q 500 74 487 15 q 520 196 513 133 q 526 327 526 258 q 518 411 526 377 q 494 465 509 444 q 458 494 478 485 q 414 502 438 502 q 348 487 378 502 q 288 447 317 472 l 288 0 l 72 0 l 72 739 l -29 739 l -29 895 l 72 895 l 72 1040 l 288 1040 l 288 895 l 486 895 l 486 739 l 288 739 l 288 590 z "},"ѣ":{"ha":798,"x_min":17,"x_max":783,"o":"m 505 149 q 570 173 548 149 q 592 235 592 197 q 587 266 592 251 q 571 293 582 281 q 544 311 560 304 q 505 317 527 317 l 385 317 l 385 149 l 505 149 m 504 465 q 633 447 580 465 q 719 397 686 428 q 768 324 753 365 q 783 236 783 282 q 765 141 783 184 q 710 66 746 97 q 623 17 674 35 q 506 0 571 0 l 181 0 l 181 563 l 17 563 l 17 719 l 181 719 l 181 897 l 385 897 l 385 719 l 595 719 l 595 563 l 385 563 l 385 465 l 504 465 z "},"!":{"ha":406,"x_min":79,"x_max":324,"o":"m 304 1012 l 304 615 q 297 488 304 551 q 276 360 289 425 l 131 360 q 110 488 118 425 q 103 615 103 551 l 103 1012 l 304 1012 m 79 109 q 89 156 79 134 q 114 193 98 177 q 153 218 131 209 q 201 228 175 228 q 249 218 227 228 q 288 193 272 209 q 314 156 305 177 q 324 109 324 134 q 314 62 324 84 q 288 24 305 40 q 249 -1 272 8 q 201 -10 227 -10 q 153 -1 175 -10 q 114 24 131 8 q 89 62 98 40 q 79 109 79 84 z "},"?":{"ha":655,"x_min":42,"x_max":608,"o":"m 42 919 q 98 960 68 941 q 163 993 128 978 q 238 1015 198 1007 q 324 1023 278 1023 q 442 1006 390 1023 q 531 956 494 988 q 588 878 568 924 q 608 777 608 833 q 593 686 608 724 q 556 619 578 647 q 507 569 534 590 q 457 531 481 549 q 415 496 433 513 q 392 457 397 478 l 373 360 l 226 360 l 210 472 q 217 531 205 506 q 252 577 230 556 q 301 616 274 597 q 351 655 328 634 q 391 702 375 676 q 408 765 408 728 q 380 831 408 806 q 305 856 353 856 q 243 848 268 856 q 201 831 219 840 q 170 814 183 822 q 144 806 157 806 q 99 832 114 806 l 42 919 m 170 109 q 180 156 170 134 q 205 193 189 177 q 244 218 222 209 q 292 228 266 228 q 340 218 318 228 q 379 193 363 209 q 405 156 396 177 q 415 109 415 134 q 405 62 415 84 q 379 24 396 40 q 340 -1 363 8 q 292 -10 318 -10 q 244 -1 266 -10 q 205 24 222 8 q 180 62 189 40 q 170 109 170 84 z "},"‽":{"ha":737,"x_min":43,"x_max":693,"o":"m 319 228 q 367 218 344 228 q 406 193 389 209 q 432 156 422 177 q 441 109 441 134 q 432 62 441 84 q 406 24 422 40 q 367 -1 389 8 q 319 -10 344 -10 q 270 -1 292 -10 q 232 24 248 8 q 206 62 215 40 q 197 109 197 84 q 206 156 197 134 q 232 193 215 177 q 270 218 248 209 q 319 228 292 228 m 301 1000 q 363 1015 326 1010 q 438 1020 400 1020 q 541 1007 494 1020 q 621 966 588 993 q 674 897 655 938 q 693 799 693 855 q 674 701 693 740 q 626 635 656 662 q 563 589 597 608 q 498 551 528 569 q 443 511 467 533 q 413 456 419 489 l 394 358 l 260 358 q 217 461 238 406 q 178 569 196 517 l 43 988 l 242 1036 l 328 704 q 338 667 332 690 q 349 617 343 644 q 398 660 372 642 q 445 695 424 678 q 482 730 467 712 q 497 775 497 748 q 492 803 497 790 q 478 828 488 817 q 456 845 469 838 q 426 851 443 851 q 399 849 414 851 q 378 847 384 847 q 343 855 354 847 q 329 881 332 863 l 301 1000 z "},",":{"ha":333,"x_min":47,"x_max":285,"o":"m 74 -172 q 59 -141 59 -159 q 64 -126 59 -134 q 76 -112 69 -118 q 95 -91 84 -103 q 117 -65 106 -79 q 138 -33 128 -50 q 152 4 147 -15 q 109 16 128 6 q 76 41 90 26 q 54 77 62 57 q 47 122 47 98 q 55 164 47 144 q 79 197 63 183 q 116 219 94 211 q 163 228 137 228 q 217 217 194 228 q 256 188 240 206 q 278 145 271 169 q 285 95 285 122 q 274 21 285 60 q 241 -58 263 -18 q 187 -135 219 -97 q 112 -205 154 -174 l 74 -172 z "},";":{"ha":388,"x_min":69,"x_max":314,"o":"m 103 -172 q 88 -141 88 -159 q 92 -126 88 -134 q 104 -112 97 -118 q 124 -91 113 -103 q 146 -65 135 -79 q 166 -33 157 -50 q 181 4 176 -15 q 138 16 157 6 q 104 41 118 26 q 83 77 90 57 q 75 122 75 98 q 83 164 75 144 q 107 197 92 183 q 144 219 123 211 q 192 228 165 228 q 246 217 223 228 q 284 188 269 206 q 307 145 299 169 q 314 95 314 122 q 303 21 314 60 q 270 -58 292 -18 q 215 -135 248 -97 q 140 -205 183 -174 l 103 -172 m 69 583 q 79 630 69 608 q 105 667 88 651 q 143 693 121 683 q 192 702 165 702 q 240 693 217 702 q 278 667 262 683 q 305 630 295 651 q 314 583 314 608 q 305 536 314 558 q 278 499 295 515 q 240 474 262 483 q 192 465 217 465 q 143 474 165 465 q 105 499 121 483 q 79 536 88 515 q 69 583 69 558 z "},":":{"ha":368,"x_min":62,"x_max":306,"o":"m 62 109 q 71 156 62 134 q 97 193 81 177 q 135 218 113 209 q 184 228 158 228 q 232 218 210 228 q 271 193 254 209 q 297 156 288 177 q 306 109 306 134 q 297 62 306 84 q 271 24 288 40 q 232 -1 254 8 q 184 -10 210 -10 q 135 -1 158 -10 q 97 24 113 8 q 71 62 81 40 q 62 109 62 84 m 62 583 q 71 630 62 608 q 97 667 81 651 q 135 693 113 683 q 184 702 158 702 q 232 693 210 702 q 271 667 254 683 q 297 630 288 651 q 306 583 306 608 q 297 536 306 558 q 271 499 288 515 q 232 474 254 483 q 184 465 210 465 q 135 474 158 465 q 97 499 113 483 q 71 536 81 515 q 62 583 62 558 z "},".":{"ha":332,"x_min":44,"x_max":288,"o":"m 44 109 q 53 156 44 134 q 79 193 63 177 q 117 218 95 209 q 166 228 140 228 q 214 218 192 228 q 253 193 236 209 q 279 156 269 177 q 288 109 288 134 q 279 62 288 84 q 253 24 269 40 q 214 -1 236 8 q 166 -10 192 -10 q 117 -1 140 -10 q 79 24 95 8 q 53 62 63 40 q 44 109 44 84 z "},"…":{"ha":1099,"x_min":44,"x_max":1055,"o":"m 44 109 q 53 156 44 134 q 79 193 63 177 q 117 218 95 209 q 166 228 140 228 q 214 218 192 228 q 253 193 236 209 q 279 156 269 177 q 288 109 288 134 q 279 62 288 84 q 253 24 269 40 q 214 -1 236 8 q 166 -10 192 -10 q 117 -1 140 -10 q 79 24 95 8 q 53 62 63 40 q 44 109 44 84 m 810 109 q 820 156 810 134 q 845 193 829 177 q 884 218 862 209 q 933 228 906 228 q 981 218 958 228 q 1019 193 1003 209 q 1045 156 1036 177 q 1055 109 1055 134 q 1045 62 1055 84 q 1019 24 1036 40 q 981 -1 1003 8 q 933 -10 958 -10 q 884 -1 906 -10 q 845 24 862 8 q 820 62 829 40 q 810 109 810 84 m 427 109 q 436 156 427 134 q 462 193 446 177 q 501 218 478 209 q 549 228 523 228 q 597 218 575 228 q 636 193 619 209 q 662 156 653 177 q 672 109 672 134 q 662 62 672 84 q 636 24 653 40 q 597 -1 619 8 q 549 -10 575 -10 q 501 -1 523 -10 q 462 24 478 8 q 436 62 446 40 q 427 109 427 84 z "},"‘":{"ha":315,"x_min":38,"x_max":274,"o":"m 101 634 q 51 757 64 693 q 49 882 38 820 q 95 999 60 943 q 190 1101 131 1056 l 258 1061 q 271 1049 267 1056 q 274 1034 274 1042 q 270 1020 274 1027 q 263 1009 267 1014 q 237 970 251 997 q 217 910 224 944 q 217 834 211 875 q 251 749 223 792 q 259 707 266 724 q 231 682 251 690 l 101 634 z "},"’":{"ha":315,"x_min":45,"x_max":282,"o":"m 218 1078 q 269 956 256 1019 q 270 831 282 892 q 224 713 259 769 q 129 611 188 657 l 61 651 q 49 664 52 656 q 45 678 45 671 q 49 692 46 685 q 57 703 52 699 q 74 726 65 712 q 90 760 83 741 q 102 803 98 780 q 106 852 107 826 q 96 907 104 878 q 69 964 88 935 q 61 1006 53 988 q 89 1031 68 1023 l 218 1078 z "},"“":{"ha":564,"x_min":38,"x_max":523,"o":"m 101 634 q 51 757 64 693 q 49 882 38 820 q 95 999 60 943 q 190 1101 131 1056 l 258 1061 q 271 1049 267 1056 q 274 1034 274 1042 q 270 1020 274 1027 q 263 1009 267 1014 q 237 970 251 997 q 217 910 224 944 q 217 834 211 875 q 251 749 223 792 q 259 707 266 724 q 231 682 251 690 l 101 634 m 350 634 q 299 757 313 693 q 298 882 286 820 q 344 999 309 943 q 439 1101 379 1056 l 507 1061 q 519 1049 516 1056 q 523 1034 523 1042 q 519 1020 522 1027 q 511 1009 516 1014 q 486 970 499 997 q 466 910 472 944 q 466 834 460 875 q 499 749 472 792 q 507 707 515 724 q 479 682 500 690 l 350 634 z "},"”":{"ha":564,"x_min":45,"x_max":531,"o":"m 218 1078 q 269 956 256 1019 q 270 831 282 892 q 224 713 259 769 q 129 611 188 657 l 61 651 q 49 664 52 656 q 45 678 45 671 q 49 692 46 685 q 57 703 52 699 q 74 726 65 712 q 90 760 83 741 q 102 803 98 780 q 106 852 107 826 q 96 907 104 878 q 69 964 88 935 q 61 1006 53 988 q 89 1031 68 1023 l 218 1078 m 467 1078 q 517 956 504 1019 q 519 831 531 892 q 472 713 508 769 q 378 611 437 657 l 310 651 q 297 664 301 656 q 294 678 294 671 q 298 692 294 685 q 306 703 301 699 q 322 726 313 712 q 339 760 331 741 q 351 803 347 780 q 354 852 356 826 q 344 907 353 878 q 317 964 336 935 q 309 1006 302 988 q 338 1031 317 1023 l 467 1078 z "},"‚":{"ha":306,"x_min":27,"x_max":264,"o":"m 200 232 q 251 109 238 172 q 252 -16 264 46 q 206 -133 241 -77 q 111 -235 170 -190 l 43 -195 q 31 -183 34 -190 q 27 -168 27 -176 q 31 -155 28 -161 q 39 -143 34 -148 q 56 -120 47 -135 q 72 -86 65 -106 q 84 -43 80 -67 q 88 6 89 -20 q 78 60 86 32 q 51 117 69 88 q 43 159 35 142 q 71 184 50 176 l 200 232 z "},"„":{"ha":554,"x_min":27,"x_max":513,"o":"m 200 232 q 251 109 238 172 q 252 -16 264 46 q 206 -133 241 -77 q 111 -235 170 -190 l 43 -195 q 31 -183 34 -190 q 27 -168 27 -176 q 31 -155 28 -161 q 39 -143 34 -148 q 56 -120 47 -135 q 72 -86 65 -106 q 84 -43 80 -67 q 88 6 89 -20 q 78 60 86 32 q 51 117 69 88 q 43 159 35 142 q 71 184 50 176 l 200 232 m 449 232 q 499 109 486 172 q 501 -16 513 46 q 454 -133 490 -77 q 360 -235 419 -190 l 292 -195 q 279 -183 283 -190 q 276 -168 276 -176 q 280 -155 276 -161 q 288 -143 283 -148 q 304 -120 295 -135 q 321 -86 313 -106 q 333 -43 328 -67 q 336 6 338 -20 q 326 60 335 32 q 299 117 318 88 q 291 159 284 142 q 319 184 299 176 l 449 232 z "},"‹":{"ha":416,"x_min":56,"x_max":345,"o":"m 331 196 q 341 150 345 172 q 309 117 336 129 l 238 85 l 56 365 l 56 392 l 238 671 l 309 639 q 341 606 336 627 q 331 560 345 584 l 248 410 q 223 378 235 390 q 248 346 236 367 l 331 196 z "},"›":{"ha":416,"x_min":71,"x_max":360,"o":"m 360 392 l 360 365 l 178 85 l 107 117 q 75 150 80 129 q 85 196 71 172 l 168 346 q 193 378 180 367 q 168 410 181 390 l 85 560 q 75 606 71 584 q 107 639 80 627 l 178 671 l 360 392 z "},"«":{"ha":666,"x_min":56,"x_max":595,"o":"m 331 196 q 341 150 345 172 q 309 117 336 129 l 238 85 l 56 365 l 56 392 l 238 671 l 309 639 q 341 606 336 627 q 331 560 345 584 l 248 410 q 223 378 235 390 q 248 346 236 367 l 331 196 m 581 196 q 591 150 595 172 q 559 117 586 129 l 488 85 l 306 365 l 306 392 l 488 671 l 559 639 q 591 606 586 627 q 581 560 595 584 l 498 410 q 473 378 485 390 q 498 346 486 367 l 581 196 z "},"»":{"ha":666,"x_min":71,"x_max":610,"o":"m 360 392 l 360 365 l 178 85 l 107 117 q 75 150 80 129 q 85 196 71 172 l 168 346 q 193 378 180 367 q 168 410 181 390 l 85 560 q 75 606 71 584 q 107 639 80 627 l 178 671 l 360 392 m 610 392 l 610 365 l 428 85 l 357 117 q 325 150 330 129 q 335 196 321 172 l 418 346 q 443 378 430 367 q 418 410 431 390 l 335 560 q 325 606 321 584 q 357 639 330 627 l 428 671 l 610 392 z "},"/":{"ha":665,"x_min":35,"x_max":630,"o":"m 240 8 q 220 -25 232 -10 q 193 -49 208 -40 q 161 -64 178 -59 q 127 -69 144 -69 l 35 -69 l 430 967 q 472 1021 444 1002 q 538 1040 501 1040 l 630 1040 l 240 8 z "},"|":{"ha":375,"x_min":104,"x_max":271,"o":"m 104 1081 l 271 1081 l 271 -236 l 104 -236 l 104 1081 z "},"¦":{"ha":379,"x_min":106,"x_max":273,"o":"m 106 1081 l 273 1081 l 273 513 l 106 513 l 106 1081 m 106 340 l 273 340 l 273 -228 l 106 -228 l 106 340 z "},"\\":{"ha":665,"x_min":35,"x_max":630,"o":"m 35 1040 l 127 1040 q 193 1021 165 1040 q 235 967 222 1002 l 630 -69 l 538 -69 q 505 -64 522 -69 q 473 -49 488 -59 q 445 -25 458 -40 q 426 8 433 -10 l 35 1040 z "},"-":{"ha":519,"x_min":72,"x_max":447,"o":"m 72 509 l 447 509 l 447 335 l 72 335 l 72 509 z "},"–":{"ha":806,"x_min":118,"x_max":688,"o":"m 118 495 l 688 495 l 688 348 l 118 348 l 118 495 z "},"—":{"ha":1114,"x_min":77,"x_max":1037,"o":"m 77 495 l 1037 495 l 1037 348 l 77 348 l 77 495 z "},"_":{"ha":657,"x_min":55,"x_max":602,"o":"m 602 -75 l 602 -210 l 55 -210 l 55 -75 l 602 -75 z "},"•":{"ha":806,"x_min":59,"x_max":747,"o":"m 59 411 q 86 542 59 481 q 160 649 113 603 q 269 721 206 694 q 402 747 331 747 q 536 721 474 747 q 645 649 599 694 q 719 542 692 603 q 747 411 747 481 q 719 281 747 342 q 645 175 692 220 q 536 103 599 130 q 402 77 474 77 q 269 103 331 77 q 160 175 206 130 q 86 281 113 220 q 59 411 59 342 z "},"·":{"ha":400,"x_min":44,"x_max":356,"o":"m 44 414 q 56 473 44 445 q 89 521 68 501 q 139 553 110 542 q 199 565 167 565 q 261 553 232 565 q 311 521 290 542 q 344 473 332 501 q 356 414 356 445 q 344 355 356 383 q 311 307 332 328 q 261 275 290 287 q 199 263 232 263 q 139 275 167 263 q 89 307 110 287 q 56 355 68 328 q 44 414 44 383 z "},"(":{"ha":390,"x_min":40,"x_max":358,"o":"m 226 435 q 234 297 226 366 q 258 160 242 227 q 295 28 274 92 q 346 -94 317 -36 q 356 -124 355 -111 q 354 -147 358 -137 q 343 -163 350 -156 q 326 -176 335 -170 l 231 -231 q 144 -73 180 -153 q 85 91 108 8 q 51 260 62 174 q 40 435 40 346 q 51 610 40 524 q 85 779 62 696 q 144 942 108 862 q 231 1101 180 1023 l 326 1046 q 343 1033 335 1040 q 354 1017 350 1026 q 356 994 358 1007 q 346 965 355 981 q 295 842 317 906 q 258 710 274 778 q 234 573 242 642 q 226 435 226 503 z "},")":{"ha":390,"x_min":33,"x_max":350,"o":"m 164 435 q 156 573 164 503 q 132 710 148 642 q 94 842 117 778 q 44 965 72 906 q 34 994 35 981 q 36 1017 33 1007 q 48 1033 40 1026 q 64 1046 55 1040 l 160 1101 q 305 778 260 944 q 350 435 350 613 q 305 91 350 256 q 160 -231 260 -75 l 64 -176 q 48 -163 55 -170 q 36 -147 40 -156 q 34 -124 33 -137 q 44 -94 35 -111 q 94 28 72 -36 q 132 160 117 92 q 156 297 148 227 q 164 435 164 366 z "},"[":{"ha":445,"x_min":104,"x_max":415,"o":"m 283 947 l 283 -91 l 360 -91 q 400 -106 384 -91 q 415 -142 415 -122 l 415 -225 l 104 -225 l 104 1081 l 415 1081 l 415 999 q 400 963 415 978 q 360 947 384 947 l 283 947 z "},"]":{"ha":445,"x_min":30,"x_max":341,"o":"m 341 -225 l 30 -225 l 30 -142 q 45 -106 30 -122 q 85 -91 61 -91 l 162 -91 l 162 947 l 85 947 q 45 963 61 947 q 30 999 30 978 l 30 1081 l 341 1081 l 341 -225 z "},"{":{"ha":431,"x_min":32,"x_max":397,"o":"m 397 988 q 392 969 397 977 q 381 957 388 962 q 366 950 374 952 q 353 947 358 947 q 289 920 309 947 q 268 845 268 893 q 271 773 268 807 q 278 707 274 739 q 284 645 281 676 q 288 583 288 615 q 281 533 288 557 q 259 488 274 508 q 224 452 245 467 q 176 428 203 437 q 224 405 203 420 q 259 368 245 389 q 281 323 274 348 q 288 273 288 299 q 284 211 288 242 q 278 149 281 181 q 271 83 274 117 q 268 11 268 49 q 289 -64 268 -37 q 353 -91 309 -91 q 366 -93 358 -91 q 381 -101 374 -96 q 392 -113 388 -106 q 397 -132 397 -121 l 397 -225 l 361 -225 q 235 -207 288 -225 q 148 -157 182 -190 q 97 -78 113 -124 q 81 24 81 -32 q 84 88 81 56 q 93 151 88 120 q 102 214 98 183 q 106 276 106 245 q 90 343 106 317 q 32 368 74 368 l 32 488 q 67 495 53 488 q 90 514 81 502 q 102 543 98 526 q 106 581 106 560 q 102 642 106 611 q 93 705 98 674 q 84 768 88 736 q 81 832 81 800 q 97 934 81 888 q 148 1013 113 981 q 235 1064 182 1046 q 361 1081 288 1081 l 397 1081 l 397 988 z "},"}":{"ha":431,"x_min":34,"x_max":399,"o":"m 399 368 q 342 343 358 368 q 326 276 326 317 q 330 214 326 245 q 338 151 333 183 q 347 88 343 120 q 351 24 351 56 q 334 -78 351 -32 q 284 -157 318 -124 q 197 -207 249 -190 q 70 -225 144 -225 l 34 -225 l 34 -132 q 39 -113 34 -121 q 51 -101 44 -106 q 65 -93 58 -96 q 78 -91 73 -91 q 143 -64 122 -91 q 163 11 163 -37 q 160 83 163 49 q 153 149 157 117 q 147 211 150 181 q 144 273 144 242 q 151 323 144 299 q 172 368 158 348 q 207 405 186 389 q 255 428 228 420 q 207 452 228 437 q 172 488 186 467 q 151 533 158 508 q 144 583 144 557 q 147 645 144 615 q 153 707 150 676 q 160 773 157 739 q 163 845 163 807 q 143 920 163 893 q 78 947 122 947 q 65 950 73 947 q 51 957 58 952 q 39 969 44 962 q 34 988 34 977 l 34 1081 l 70 1081 q 197 1064 144 1081 q 284 1013 249 1046 q 334 934 318 981 q 351 832 351 888 q 347 768 351 800 q 338 705 343 736 q 330 642 333 674 q 326 581 326 611 q 330 543 326 560 q 342 514 333 526 q 364 495 350 502 q 399 488 378 488 l 399 368 z "},"*":{"ha":590,"x_min":57,"x_max":533,"o":"m 432 834 q 405 821 418 826 q 378 813 392 815 q 432 790 406 807 l 533 730 l 483 647 l 382 708 q 338 741 354 723 q 346 688 346 716 l 346 566 l 244 566 l 244 686 q 246 715 244 701 q 252 741 248 728 q 232 723 243 731 q 208 708 221 715 l 107 649 l 57 731 l 158 790 q 212 813 185 806 q 185 820 199 815 q 158 834 172 826 l 57 894 l 107 978 l 208 917 q 253 883 236 901 q 244 937 244 908 l 244 1058 l 346 1058 l 346 938 q 344 910 346 924 q 338 883 342 896 q 358 901 347 893 q 382 917 369 909 l 483 976 l 533 893 l 432 834 z "},"†":{"ha":806,"x_min":33,"x_max":772,"o":"m 486 562 l 486 351 l 514 -218 q 463 -238 491 -231 q 403 -245 434 -245 q 343 -238 372 -245 q 292 -218 315 -231 l 319 351 l 319 562 l 33 562 l 33 631 q 39 665 33 649 q 57 693 45 681 q 88 713 69 706 q 133 720 107 720 q 175 717 153 720 q 222 708 198 713 q 270 697 245 703 q 319 687 294 692 l 292 1026 q 343 1045 315 1039 q 403 1052 372 1052 q 463 1045 434 1052 q 514 1026 491 1039 l 487 687 q 536 697 511 692 q 584 708 560 703 q 630 717 608 713 q 672 720 652 720 q 717 713 698 720 q 748 693 736 706 q 766 665 760 681 q 772 631 772 649 l 772 562 l 486 562 z "},"‡":{"ha":806,"x_min":33,"x_max":772,"o":"m 486 245 l 772 245 l 772 176 q 766 143 772 159 q 748 114 760 126 q 717 94 736 101 q 672 87 698 87 q 630 90 652 87 q 584 99 608 94 q 536 110 560 104 q 487 121 511 116 l 514 -218 q 463 -238 491 -231 q 403 -245 434 -245 q 343 -238 372 -245 q 292 -218 315 -231 l 319 121 q 270 110 294 116 q 222 99 245 104 q 175 90 198 94 q 133 87 153 87 q 88 94 107 87 q 57 114 69 101 q 39 143 45 126 q 33 176 33 159 l 33 245 l 319 245 l 319 562 l 33 562 l 33 631 q 39 665 33 649 q 57 693 45 681 q 88 713 69 706 q 133 720 107 720 q 175 717 153 720 q 222 708 198 713 q 270 697 245 703 q 319 687 294 692 l 292 1026 q 343 1045 315 1039 q 403 1052 372 1052 q 463 1045 434 1052 q 514 1026 491 1039 l 487 687 q 536 697 511 692 q 584 708 560 703 q 630 717 608 713 q 672 720 652 720 q 717 713 698 720 q 748 693 736 706 q 766 665 760 681 q 772 631 772 649 l 772 562 l 486 562 l 486 245 z "},"§":{"ha":710,"x_min":53,"x_max":660,"o":"m 244 503 q 260 461 244 478 q 304 428 277 443 q 366 400 331 413 q 437 371 401 386 q 465 399 456 383 q 473 434 473 415 q 457 477 473 459 q 413 510 440 495 q 352 538 386 524 q 282 566 317 551 q 253 538 262 553 q 244 503 244 523 m 580 853 q 562 834 572 840 q 538 829 553 829 q 508 835 523 829 q 475 850 492 842 q 435 864 457 858 q 384 870 413 870 q 310 851 334 870 q 285 803 285 833 q 301 771 285 785 q 344 743 317 756 q 404 717 370 730 q 473 688 438 703 q 542 654 508 673 q 602 611 576 635 q 644 554 628 586 q 660 481 660 522 q 635 380 660 426 q 552 304 610 333 q 600 245 582 278 q 619 164 619 211 q 599 65 619 110 q 541 -12 580 20 q 446 -63 503 -45 q 316 -81 390 -81 q 242 -74 279 -81 q 171 -56 206 -67 q 108 -27 137 -44 q 58 8 78 -11 l 108 87 q 129 109 116 101 q 162 117 142 117 q 195 108 181 117 q 229 90 210 100 q 272 72 247 81 q 335 64 297 64 q 406 80 381 64 q 431 129 431 97 q 415 173 431 155 q 372 204 399 190 q 312 230 346 218 q 242 256 278 242 q 173 287 207 269 q 113 329 139 304 q 70 388 86 353 q 53 469 53 422 q 81 567 53 523 q 163 637 108 610 q 114 702 133 664 q 95 794 95 740 q 113 881 95 840 q 166 953 131 922 q 255 1003 201 985 q 380 1022 308 1022 q 455 1015 419 1022 q 524 995 492 1008 q 582 966 556 983 q 628 928 608 949 l 580 853 z "},"¶":{"ha":1069,"x_min":42,"x_max":1019,"o":"m 1019 838 l 874 838 l 874 -150 l 686 -150 l 686 838 l 550 838 l 550 -150 l 363 -150 l 363 421 q 231 444 290 421 q 130 508 172 468 q 65 601 88 548 q 42 714 42 654 q 65 834 42 779 q 130 928 88 889 q 231 990 172 968 q 363 1012 290 1012 l 1019 1012 l 1019 838 z "},"^":{"ha":806,"x_min":47,"x_max":758,"o":"m 758 465 l 600 465 q 569 474 581 465 q 549 498 556 483 l 442 731 q 419 780 429 757 q 402 826 410 803 q 365 731 388 781 l 268 498 q 248 474 262 483 q 214 465 235 465 l 47 465 l 329 1012 l 469 1012 l 758 465 z "},"~":{"ha":806,"x_min":58,"x_max":752,"o":"m 509 470 q 560 492 542 470 q 578 555 578 513 l 752 555 q 736 449 752 496 q 692 368 721 401 q 620 318 663 335 q 523 300 577 300 q 454 308 486 300 q 394 326 422 316 q 343 344 366 336 q 301 352 319 352 q 249 331 267 352 q 231 267 231 309 l 58 267 q 73 374 58 326 q 118 454 89 421 q 190 505 147 487 q 287 522 233 522 q 356 514 324 522 q 416 496 388 506 q 467 478 444 486 q 509 470 490 470 z "},"'":{"ha":303,"x_min":58,"x_max":245,"o":"m 245 1012 l 245 813 l 226 703 q 203 646 219 666 q 151 626 188 626 q 102 646 119 626 q 77 703 85 666 l 58 813 l 58 1012 l 245 1012 z "},"\"":{"ha":581,"x_min":58,"x_max":523,"o":"m 245 1012 l 245 813 l 226 703 q 203 646 219 666 q 151 626 188 626 q 102 646 119 626 q 77 703 85 666 l 58 813 l 58 1012 l 245 1012 m 523 1012 l 523 813 l 503 703 q 481 646 497 666 q 428 626 465 626 q 380 646 397 626 q 355 703 363 666 l 335 813 l 335 1012 l 523 1012 z "},"&":{"ha":1019,"x_min":41,"x_max":1023,"o":"m 331 449 q 276 380 292 417 q 260 303 260 344 q 270 242 260 269 q 299 196 281 215 q 344 166 318 176 q 402 155 370 155 q 489 167 449 155 q 564 201 529 179 l 331 449 m 1023 0 l 810 0 q 782 2 794 0 q 759 8 769 3 q 738 19 748 12 q 717 39 728 27 l 674 85 q 530 14 608 39 q 363 -11 451 -11 q 245 10 303 -11 q 142 69 187 31 q 69 163 97 108 q 41 285 41 217 q 55 372 41 331 q 95 448 69 413 q 157 512 122 483 q 235 563 192 541 q 188 662 202 613 q 173 756 173 710 q 193 859 173 810 q 250 943 213 907 q 343 1001 288 980 q 470 1023 399 1023 q 589 1003 538 1023 q 676 951 640 983 q 731 876 711 919 q 756 790 751 834 l 617 762 q 563 791 581 753 q 526 846 547 827 q 470 865 505 865 q 428 856 446 865 q 398 832 410 847 q 379 798 385 817 q 373 758 373 778 q 376 723 373 740 q 387 690 379 707 q 407 655 394 673 q 440 615 420 637 l 690 352 q 720 439 708 393 q 735 532 732 484 q 749 563 738 551 q 778 574 760 574 l 915 574 q 888 385 915 473 q 811 224 860 297 l 1023 0 z "},"@":{"ha":1180,"x_min":55,"x_max":1134,"o":"m 699 547 q 665 549 682 549 q 598 533 630 549 q 542 488 566 516 q 504 421 518 459 q 490 341 490 383 q 505 280 490 300 q 549 260 521 260 q 580 265 565 260 q 608 281 594 269 q 632 311 621 292 q 649 358 642 330 l 699 547 m 815 381 q 805 319 806 343 q 811 280 805 294 q 831 260 818 266 q 862 254 844 254 q 909 272 887 254 q 947 321 931 290 q 972 394 963 352 q 981 487 981 437 q 956 639 981 573 q 882 749 930 704 q 768 816 835 793 q 619 839 701 839 q 454 806 529 839 q 325 714 379 772 q 241 579 271 656 q 210 413 210 501 q 244 218 210 302 q 337 78 278 134 q 478 -7 397 22 q 655 -35 560 -35 q 756 -29 710 -35 q 840 -14 802 -23 q 906 8 877 -4 q 956 31 935 19 q 995 38 978 43 q 1019 14 1011 33 l 1048 -61 q 971 -103 1013 -84 q 880 -137 929 -123 q 775 -160 831 -152 q 655 -168 719 -168 q 415 -127 524 -168 q 225 -11 305 -87 q 100 172 144 65 q 55 413 55 280 q 74 556 55 486 q 130 688 94 626 q 217 802 166 750 q 330 892 267 854 q 465 951 392 930 q 619 972 538 972 q 750 956 686 972 q 872 912 815 941 q 977 840 929 883 q 1060 744 1026 798 q 1115 625 1095 690 q 1134 487 1134 560 q 1111 347 1134 413 q 1048 232 1089 281 q 952 155 1008 183 q 830 126 896 126 q 787 131 808 126 q 748 145 766 135 q 714 172 729 156 q 690 212 699 188 q 603 147 649 166 q 506 127 558 127 q 427 143 461 127 q 370 186 393 158 q 336 252 347 214 q 324 335 324 290 q 334 416 324 375 q 365 495 344 457 q 416 566 385 533 q 488 625 447 600 q 583 664 530 649 q 701 678 636 678 q 756 676 731 678 q 803 669 781 674 q 843 659 824 665 q 883 644 863 652 l 815 381 z "},"©":{"ha":1135,"x_min":50,"x_max":1085,"o":"m 706 376 q 722 372 714 376 q 735 362 729 368 l 806 289 q 707 210 768 237 q 567 183 647 183 q 440 209 497 183 q 344 278 383 234 q 283 381 304 322 q 261 508 261 440 q 286 639 261 579 q 355 741 311 698 q 456 809 398 785 q 582 833 515 833 q 719 805 662 833 q 813 735 777 777 l 756 660 q 742 647 750 654 q 719 640 733 640 q 695 646 706 640 q 673 660 685 652 q 642 674 660 667 q 593 680 624 680 q 487 634 523 680 q 451 508 451 588 q 461 435 451 467 q 487 381 470 403 q 527 349 503 360 q 578 338 550 338 q 630 343 610 338 q 661 356 649 349 q 683 369 674 363 q 706 376 692 376 m 50 506 q 68 644 50 578 q 120 767 87 710 q 201 872 154 824 q 306 952 249 919 q 430 1005 364 986 q 567 1023 495 1023 q 705 1005 638 1023 q 828 952 771 986 q 933 872 885 919 q 1014 767 981 824 q 1066 644 1048 710 q 1085 506 1085 578 q 1066 369 1085 435 q 1014 246 1048 303 q 933 142 981 189 q 828 61 885 94 q 705 9 771 27 q 567 -10 638 -10 q 430 9 495 -10 q 306 61 364 27 q 201 142 249 94 q 120 246 154 189 q 68 369 87 303 q 50 506 50 435 m 165 506 q 196 342 165 418 q 281 209 227 265 q 409 120 335 152 q 567 88 482 88 q 726 120 652 88 q 855 209 800 152 q 941 342 910 265 q 972 506 972 418 q 958 619 972 565 q 918 720 944 674 q 855 806 892 767 q 773 872 818 844 q 676 914 728 899 q 567 928 624 928 q 409 896 482 928 q 281 806 335 863 q 196 672 227 749 q 165 506 165 594 z "},"℗":{"ha":1135,"x_min":50,"x_max":1085,"o":"m 575 512 q 627 518 608 512 q 656 537 647 525 q 668 566 666 549 q 671 601 671 582 q 668 634 671 619 q 658 661 666 649 q 633 678 649 672 q 589 685 617 685 l 531 685 l 531 512 l 575 512 m 589 821 q 709 803 658 821 q 791 755 759 785 q 839 685 824 725 q 854 601 854 645 q 839 519 854 558 q 791 450 824 480 q 709 401 759 419 q 589 383 658 383 l 531 383 l 531 195 l 344 195 l 344 821 l 589 821 m 567 88 q 726 120 652 88 q 855 209 800 152 q 941 342 910 265 q 972 506 972 418 q 958 619 972 565 q 918 720 944 674 q 855 806 892 767 q 773 872 818 844 q 676 914 728 899 q 567 928 624 928 q 409 896 482 928 q 281 806 335 863 q 196 672 227 749 q 165 506 165 594 q 196 342 165 418 q 281 209 227 265 q 409 120 335 152 q 567 88 482 88 m 567 1023 q 705 1005 638 1023 q 828 952 771 986 q 933 872 885 919 q 1014 767 981 824 q 1066 644 1048 710 q 1085 506 1085 578 q 1066 369 1085 435 q 1014 246 1048 303 q 933 142 981 189 q 828 61 885 94 q 705 9 771 27 q 567 -10 638 -10 q 430 9 495 -10 q 306 61 364 27 q 201 142 249 94 q 120 246 154 189 q 68 369 87 303 q 50 506 50 435 q 68 644 50 578 q 120 767 87 710 q 201 872 154 824 q 306 952 249 919 q 430 1005 364 986 q 567 1023 495 1023 z "},"®":{"ha":1135,"x_min":50,"x_max":1085,"o":"m 554 533 q 607 538 588 533 q 635 553 626 543 q 648 577 645 563 q 650 611 650 592 q 648 643 650 629 q 637 666 645 656 q 612 680 628 675 q 568 685 596 685 l 510 685 l 510 533 l 554 533 m 860 215 q 942 345 913 271 q 972 506 972 419 q 958 619 972 565 q 918 720 944 674 q 855 806 892 767 q 773 872 818 844 q 676 914 728 899 q 567 928 624 928 q 409 896 482 928 q 281 806 335 863 q 196 672 227 749 q 165 506 165 594 q 196 342 165 418 q 281 209 227 265 q 409 120 335 152 q 567 88 482 88 q 717 116 647 88 q 841 195 787 144 l 690 195 q 638 222 652 195 l 574 383 q 557 400 566 394 q 532 405 549 405 l 510 405 l 510 195 l 324 195 l 324 821 l 568 821 q 688 808 638 821 q 770 772 738 796 q 818 714 803 749 q 833 635 833 679 q 826 579 833 606 q 805 530 819 552 q 768 489 791 507 q 715 459 746 471 q 748 432 735 449 q 774 393 762 415 l 860 215 m 567 1023 q 705 1005 638 1023 q 828 952 771 986 q 933 872 885 919 q 1014 767 981 824 q 1066 644 1048 710 q 1085 506 1085 578 q 1066 369 1085 435 q 1014 246 1048 303 q 933 142 981 189 q 828 61 885 94 q 705 9 771 27 q 567 -10 638 -10 q 430 9 495 -10 q 306 61 364 27 q 201 142 249 94 q 120 246 154 189 q 68 369 87 303 q 50 506 50 435 q 68 644 50 578 q 120 767 87 710 q 201 872 154 824 q 306 952 249 919 q 430 1005 364 986 q 567 1023 495 1023 z "},"™":{"ha":1058,"x_min":53,"x_max":974,"o":"m 53 1012 l 407 1012 l 407 894 l 303 894 l 303 586 l 156 586 l 156 894 l 53 894 l 53 1012 m 974 1012 l 974 586 l 844 586 l 844 761 l 854 840 l 767 653 q 717 622 751 622 l 696 622 q 646 653 661 622 l 563 836 l 571 761 l 571 586 l 442 586 l 442 1012 l 569 1012 q 585 1011 578 1012 q 597 1008 592 1010 q 607 1001 602 1006 q 617 990 611 997 l 682 840 q 694 810 689 825 q 706 781 700 796 q 729 840 715 812 l 799 990 q 819 1008 810 1004 q 846 1012 828 1012 l 974 1012 z "},"℠":{"ha":1066,"x_min":61,"x_max":982,"o":"m 357 912 q 344 897 351 901 q 326 893 337 893 q 309 897 318 893 q 290 905 301 900 q 267 913 280 909 q 239 916 255 916 q 215 911 226 916 q 204 892 204 906 q 218 878 204 883 q 251 867 231 872 q 295 853 272 862 q 339 830 319 845 q 373 791 359 815 q 386 729 386 767 q 375 670 386 697 q 343 622 364 642 q 292 590 322 601 q 222 578 261 578 q 179 582 201 578 q 135 594 157 587 q 94 613 114 602 q 61 636 75 624 l 97 701 q 109 713 101 708 q 126 717 117 717 q 148 713 138 717 q 169 702 158 708 q 193 692 180 697 q 226 687 207 687 q 251 694 244 687 q 258 713 258 701 q 244 733 258 726 q 210 745 231 740 q 167 757 190 750 q 123 780 143 765 q 89 820 103 794 q 76 887 76 845 q 86 937 76 913 q 118 981 97 962 q 169 1012 139 1001 q 238 1024 199 1024 q 320 1010 281 1024 q 383 976 359 997 l 357 912 m 982 1012 l 982 586 l 853 586 l 853 761 l 863 840 l 775 653 q 725 622 760 622 l 704 622 q 654 653 669 622 l 571 836 l 579 761 l 579 586 l 450 586 l 450 1012 l 578 1012 q 593 1011 587 1012 q 605 1008 600 1010 q 615 1001 610 1006 q 625 990 619 997 l 690 840 q 703 810 697 825 q 714 781 708 796 q 738 840 724 812 l 807 990 q 827 1008 819 1004 q 854 1012 836 1012 l 982 1012 z "},"°":{"ha":578,"x_min":35,"x_max":542,"o":"m 35 777 q 55 874 35 828 q 108 952 74 919 q 189 1005 142 985 q 288 1024 235 1024 q 388 1005 342 1024 q 469 952 435 985 q 523 874 503 919 q 542 777 542 828 q 523 682 542 727 q 469 604 503 638 q 388 551 435 571 q 288 531 342 531 q 189 551 235 531 q 108 604 142 571 q 55 682 74 638 q 35 777 35 727 m 184 776 q 192 733 184 753 q 213 698 199 713 q 246 675 227 683 q 288 667 265 667 q 330 675 311 667 q 363 698 349 683 q 385 733 377 713 q 392 776 392 753 q 385 820 392 799 q 363 855 377 840 q 330 879 349 870 q 288 888 311 888 q 246 879 265 888 q 213 855 227 870 q 192 820 199 840 q 184 776 184 799 z "},"¤":{"ha":806,"x_min":63,"x_max":743,"o":"m 403 358 q 444 366 425 358 q 478 390 464 375 q 501 426 493 406 q 510 468 510 446 q 501 512 510 492 q 478 547 493 532 q 444 571 464 563 q 403 580 425 580 q 361 571 381 580 q 328 547 342 563 q 306 512 314 532 q 297 468 297 492 q 306 426 297 446 q 328 390 314 406 q 361 366 342 375 q 403 358 381 358 m 635 135 l 531 238 q 470 214 501 222 q 403 206 438 206 q 339 213 369 206 q 281 235 308 221 l 174 131 l 67 235 l 172 339 q 148 400 156 368 q 139 468 139 433 q 147 533 139 502 q 170 593 155 565 l 63 699 l 171 801 l 275 699 q 335 722 303 714 q 403 731 367 731 q 467 723 436 731 q 526 701 498 715 l 632 806 l 739 701 l 633 597 q 658 536 649 568 q 667 468 667 503 q 659 403 667 434 q 636 344 651 372 l 743 238 l 635 135 z "},"€":{"ha":806,"x_min":20,"x_max":787,"o":"m 20 660 l 103 660 q 157 809 121 742 q 244 923 193 876 q 358 996 294 970 q 495 1022 422 1022 q 666 982 594 1022 q 781 878 738 943 l 705 799 q 687 782 697 790 q 660 775 677 775 q 632 785 644 775 q 606 809 621 796 q 567 832 590 822 q 505 842 544 842 q 393 796 440 842 q 326 660 347 750 l 645 660 l 645 596 q 641 578 645 587 q 629 561 637 569 q 611 550 622 554 q 587 545 600 545 l 311 545 q 310 526 310 535 q 310 506 310 516 l 310 482 l 578 482 l 578 418 q 574 400 578 409 q 563 384 570 391 q 544 372 555 376 q 520 367 533 367 l 322 367 q 385 218 340 267 q 495 169 430 169 q 545 175 524 169 q 581 190 566 181 q 605 208 595 198 q 624 227 615 219 q 641 241 633 235 q 662 247 650 247 q 678 244 672 247 q 692 234 685 242 l 787 150 q 661 31 739 72 q 484 -10 583 -10 q 336 18 401 -10 q 222 94 270 45 q 143 213 174 144 q 99 367 112 283 l 20 367 l 20 482 l 88 482 l 88 506 q 88 526 88 516 q 89 545 88 535 l 20 545 l 20 660 z "},"$":{"ha":806,"x_min":27,"x_max":769,"o":"m 450 167 q 565 292 565 185 q 539 356 565 333 q 472 395 514 379 l 450 167 m 385 843 q 332 828 353 838 q 296 806 310 819 q 276 776 283 792 q 270 742 270 760 q 297 675 270 701 q 365 633 323 650 l 385 843 m 492 591 q 558 570 525 581 q 623 543 592 558 q 680 509 653 528 q 727 463 707 490 q 758 403 747 437 q 769 324 769 369 q 747 200 769 258 q 681 98 724 142 q 576 25 638 53 q 433 -10 513 -3 l 424 -96 q 407 -131 423 -115 q 367 -147 392 -147 l 288 -147 l 302 -3 q 150 43 222 10 q 27 122 77 76 l 94 219 q 116 239 102 231 q 147 247 131 247 q 181 238 163 247 q 218 217 198 229 q 264 192 239 205 q 319 171 288 179 l 345 433 q 245 465 295 447 q 156 516 196 484 q 92 597 117 548 q 67 721 67 647 q 90 828 67 776 q 155 922 112 880 q 260 990 197 963 q 403 1021 322 1017 l 410 1098 q 427 1133 412 1117 q 467 1149 443 1149 l 547 1149 l 533 1013 q 662 967 608 999 q 753 901 716 936 l 701 824 q 677 798 689 806 q 648 790 665 790 q 623 795 638 790 q 592 808 609 801 q 557 823 576 815 q 516 838 538 831 l 492 591 z "},"¢":{"ha":806,"x_min":69,"x_max":742,"o":"m 413 569 q 313 501 344 556 q 281 360 281 447 q 304 237 281 286 q 371 164 327 188 l 413 569 m 742 111 q 684 59 715 81 q 620 24 653 38 q 553 2 588 10 q 485 -8 519 -6 l 476 -96 q 458 -131 474 -115 q 419 -147 443 -147 l 340 -147 l 354 -5 q 242 36 294 6 q 151 112 190 65 q 91 221 113 158 q 69 360 69 283 q 92 501 69 435 q 161 616 115 567 q 274 695 207 665 q 428 729 341 725 l 438 826 q 456 861 440 845 q 495 877 471 877 l 574 877 l 558 719 q 655 684 611 708 q 735 625 698 660 l 680 552 q 663 534 672 540 q 637 528 653 528 q 617 531 626 528 q 596 540 607 535 q 572 551 585 545 q 542 563 558 557 l 501 147 q 550 161 531 151 q 586 180 570 170 q 615 196 601 189 q 644 203 628 203 q 666 198 656 203 q 683 185 676 193 l 742 111 z "},"£":{"ha":806,"x_min":19,"x_max":785,"o":"m 19 476 q 36 524 19 503 q 90 544 54 544 l 148 544 l 148 694 q 168 820 148 760 q 230 924 188 879 q 333 996 271 969 q 480 1023 395 1023 q 582 1009 536 1023 q 663 969 627 994 q 726 909 699 944 q 773 835 753 875 l 687 781 q 630 768 658 766 q 580 794 603 769 q 532 834 553 821 q 480 847 510 847 q 396 808 424 847 q 369 695 369 769 l 369 544 l 633 544 l 633 463 q 628 443 633 452 q 616 426 624 433 q 597 414 608 418 q 573 409 586 409 l 369 409 l 369 301 q 353 225 369 259 q 311 163 338 192 q 374 173 342 169 q 437 177 405 177 l 785 177 l 785 89 q 779 58 785 74 q 760 29 772 42 q 732 8 749 16 q 694 0 715 0 l 31 0 l 31 129 q 75 142 54 133 q 113 165 97 151 q 138 199 128 179 q 148 244 148 218 l 148 409 l 19 409 l 19 476 z "},"¥":{"ha":806,"x_min":-12,"x_max":817,"o":"m 546 444 l 719 444 l 719 329 l 510 329 l 510 268 l 719 268 l 719 153 l 510 153 l 510 0 l 295 0 l 295 153 l 87 153 l 87 268 l 295 268 l 295 329 l 87 329 l 87 444 l 260 444 l -12 1012 l 167 1012 q 217 998 198 1012 q 245 961 235 985 l 360 666 q 386 598 376 629 q 405 537 397 567 q 422 599 412 567 q 447 666 431 630 l 560 961 q 588 996 569 981 q 637 1012 608 1012 l 817 1012 l 546 444 z "},"℅":{"ha":1214,"x_min":19,"x_max":1201,"o":"m 847 980 q 872 1002 857 992 q 915 1012 888 1012 l 1072 1012 l 309 31 q 283 9 299 17 q 245 0 267 0 l 84 0 l 847 980 m 385 658 q 406 650 397 658 l 472 581 q 391 515 440 536 q 278 494 342 494 q 168 515 216 494 q 86 572 119 535 q 36 656 53 608 q 19 760 19 704 q 39 867 19 818 q 93 951 58 916 q 176 1007 128 987 q 283 1026 225 1026 q 392 1006 344 1026 q 467 953 440 985 l 411 879 q 399 867 406 872 q 379 862 392 862 q 359 866 367 862 q 342 877 351 871 q 320 887 333 883 q 283 892 306 892 q 213 858 239 892 q 186 760 186 825 q 194 703 186 728 q 217 662 203 678 q 250 636 231 645 q 289 628 268 628 q 327 631 311 628 q 358 649 342 635 q 385 658 370 658 m 1201 256 q 1181 153 1201 201 q 1124 68 1161 105 q 1035 11 1087 32 q 919 -10 983 -10 q 803 11 856 -10 q 714 68 751 32 q 657 153 677 105 q 637 256 637 201 q 657 359 637 310 q 714 444 677 408 q 803 501 751 480 q 919 522 856 522 q 1035 501 983 522 q 1124 443 1087 480 q 1181 358 1161 407 q 1201 256 1201 310 m 1035 256 q 1006 352 1035 317 q 919 388 976 388 q 832 352 861 388 q 803 256 803 317 q 832 159 803 194 q 919 124 861 124 q 1006 159 976 124 q 1035 256 1035 194 z "},"№":{"ha":1658,"x_min":120,"x_max":1608,"o":"m 797 1012 l 1003 1012 l 1003 0 l 881 0 q 836 9 854 0 q 799 39 817 17 l 322 642 q 326 590 325 615 q 327 542 327 565 l 327 0 l 120 0 l 120 1012 l 244 1012 q 269 1010 259 1012 q 288 1005 280 1009 q 304 994 297 1001 q 322 976 312 988 l 803 368 q 798 425 799 397 q 797 476 797 452 l 797 1012 m 1355 888 q 1290 862 1312 888 q 1269 789 1269 835 q 1290 716 1269 742 q 1355 690 1312 690 q 1419 716 1397 690 q 1441 789 1441 742 q 1419 862 1441 835 q 1355 888 1397 888 m 1356 549 q 1253 568 1299 549 q 1173 620 1206 588 q 1122 695 1140 652 q 1104 787 1104 738 q 1122 879 1104 835 q 1173 955 1140 922 q 1253 1006 1206 987 q 1356 1024 1299 1024 q 1459 1005 1413 1024 q 1539 954 1506 986 q 1590 878 1572 922 q 1608 787 1608 835 q 1590 695 1608 738 q 1539 620 1572 652 q 1459 568 1506 588 q 1356 549 1413 549 m 1109 497 l 1599 497 l 1599 349 l 1109 349 l 1109 497 z "},"#":{"ha":806,"x_min":7,"x_max":801,"o":"m 469 589 l 354 589 l 326 425 l 441 425 l 469 589 m 801 739 l 784 651 q 757 604 778 619 q 690 589 735 589 l 646 589 l 617 425 l 692 425 q 739 406 725 425 q 745 341 753 387 l 734 274 l 597 274 l 548 0 l 448 0 q 420 7 433 0 q 399 26 408 14 q 387 53 390 38 q 387 85 383 68 l 420 274 l 306 274 l 272 75 q 259 41 268 55 q 236 17 249 26 q 208 4 224 8 q 176 0 192 0 l 80 0 l 128 274 l 67 274 q 21 293 35 274 q 15 358 7 313 l 26 425 l 149 425 l 178 589 l 40 589 l 56 676 q 84 724 63 708 q 151 739 105 739 l 198 739 l 234 942 q 266 993 240 975 q 324 1012 291 1012 l 423 1012 l 374 739 l 490 739 l 538 1012 l 634 1012 q 664 1006 651 1012 q 687 991 678 1001 q 701 969 697 982 q 702 941 705 956 l 666 739 l 801 739 z "},"₀":{"ha":464,"x_min":28,"x_max":435,"o":"m 435 103 q 419 -15 435 35 q 376 -98 403 -65 q 310 -147 348 -131 q 230 -162 273 -162 q 150 -147 187 -162 q 86 -98 113 -131 q 44 -15 59 -65 q 28 103 28 35 q 44 222 28 172 q 86 305 59 272 q 150 353 113 338 q 230 369 187 369 q 310 353 273 369 q 376 305 348 338 q 419 222 403 272 q 435 103 435 172 m 281 103 q 278 182 281 153 q 268 226 274 211 q 252 246 262 242 q 230 251 242 251 q 209 246 218 251 q 194 226 200 242 q 185 182 188 211 q 183 103 183 153 q 186 25 183 54 q 197 -19 190 -3 q 211 -39 203 -35 q 230 -44 220 -44 q 250 -39 240 -44 q 266 -19 259 -35 q 277 25 273 -3 q 281 103 281 54 z "},"₁":{"ha":464,"x_min":40,"x_max":408,"o":"m 408 -62 l 408 -157 l 94 -157 l 94 -62 l 184 -62 l 184 144 l 188 182 l 153 156 q 133 147 143 149 q 113 147 122 145 q 97 154 104 149 q 87 163 90 158 l 40 226 l 208 364 l 337 364 l 337 -62 l 408 -62 z "},"₂":{"ha":464,"x_min":31,"x_max":427,"o":"m 376 -22 q 414 -35 400 -22 q 427 -69 427 -48 l 427 -157 l 31 -157 l 31 -109 q 37 -79 31 -95 q 56 -50 42 -63 l 194 85 q 220 115 208 99 q 241 148 232 131 q 255 180 250 164 q 260 208 260 195 q 253 238 260 225 q 228 251 247 251 q 205 244 214 251 q 188 222 197 237 q 176 206 183 213 q 162 196 170 200 q 143 192 154 192 q 117 194 133 191 l 31 207 q 55 280 38 249 q 99 330 72 310 q 161 360 126 350 q 237 369 196 369 q 315 357 281 369 q 371 323 349 344 q 405 273 394 301 q 416 214 416 245 q 407 162 416 185 q 384 117 399 138 q 351 75 370 95 q 313 34 333 55 l 243 -37 q 288 -26 266 -30 q 328 -22 310 -22 l 376 -22 z "},"₃":{"ha":464,"x_min":29,"x_max":421,"o":"m 42 207 q 65 280 48 249 q 108 330 83 310 q 167 360 134 350 q 238 369 200 369 q 314 357 281 369 q 368 325 347 345 q 401 281 390 306 q 413 233 413 257 q 397 159 413 190 q 342 111 381 129 q 401 74 381 98 q 421 10 421 49 q 404 -69 421 -36 q 360 -122 387 -101 q 299 -153 333 -143 q 231 -162 265 -162 q 164 -157 194 -162 q 109 -134 134 -151 q 64 -90 84 -118 q 29 -19 44 -62 l 96 8 q 144 13 122 17 q 174 -8 165 8 q 197 -33 183 -26 q 222 -40 210 -40 q 255 -28 243 -40 q 267 4 267 -16 q 263 32 267 22 q 249 48 259 42 q 222 55 239 53 q 179 57 205 57 l 179 154 q 224 158 207 154 q 250 167 241 161 q 263 183 260 174 q 265 206 265 193 q 258 236 265 224 q 229 248 251 248 q 204 242 213 248 q 189 223 195 235 q 177 206 183 213 q 164 195 172 199 q 147 191 157 192 q 121 194 136 191 l 42 207 z "},"₄":{"ha":464,"x_min":5,"x_max":437,"o":"m 253 48 l 253 124 q 255 163 253 142 q 259 208 256 185 l 144 48 l 253 48 m 437 48 l 437 -26 q 429 -45 437 -37 q 409 -53 422 -53 l 381 -53 l 381 -157 l 253 -157 l 253 -53 l 63 -53 q 32 -45 43 -53 q 17 -23 21 -36 l 5 41 l 233 364 l 381 364 l 381 48 l 437 48 z "},"₅":{"ha":464,"x_min":35,"x_max":417,"o":"m 208 183 q 228 185 218 185 q 249 186 239 186 q 320 175 290 186 q 373 143 351 163 q 406 94 394 122 q 417 32 417 65 q 402 -46 417 -10 q 359 -107 387 -81 q 293 -148 332 -133 q 207 -162 254 -162 q 109 -140 153 -162 q 35 -85 66 -117 l 81 -24 q 98 -9 88 -14 q 118 -4 108 -4 q 141 -10 131 -4 q 161 -22 151 -15 q 184 -35 171 -29 q 217 -40 197 -40 q 233 -37 225 -40 q 249 -28 242 -35 q 260 -12 256 -22 q 264 15 264 -1 q 250 56 264 44 q 216 68 236 68 q 184 64 200 68 q 156 54 169 60 l 64 78 l 111 364 l 394 364 l 394 302 q 375 253 394 272 q 307 233 355 233 l 216 233 l 208 183 z "},"₆":{"ha":464,"x_min":33,"x_max":431,"o":"m 238 -51 q 257 -46 247 -51 q 274 -34 267 -42 q 286 -16 281 -26 q 290 7 290 -6 q 277 53 290 37 q 238 69 265 69 q 199 54 213 69 q 185 8 185 39 q 199 -35 185 -19 q 238 -51 213 -51 m 285 224 q 248 190 269 206 q 206 152 226 173 q 243 170 223 164 q 286 177 263 177 q 333 169 308 177 q 380 144 358 162 q 416 97 402 126 q 431 26 431 68 q 417 -46 431 -12 q 377 -106 403 -80 q 314 -147 351 -132 q 233 -162 278 -162 q 148 -148 185 -162 q 85 -107 111 -133 q 47 -46 60 -81 q 33 31 33 -10 q 48 115 33 76 q 90 190 63 153 l 194 331 q 226 354 205 344 q 274 364 247 364 l 408 364 l 285 224 z "},"₇":{"ha":464,"x_min":49,"x_max":425,"o":"m 425 364 l 425 284 q 422 259 425 271 q 414 238 418 248 l 254 -110 q 246 -126 251 -118 q 234 -142 242 -135 q 215 -153 226 -149 q 185 -157 203 -157 l 67 -157 l 228 165 q 249 200 238 184 q 272 229 259 215 l 82 229 q 59 239 69 229 q 49 261 49 249 l 49 364 l 425 364 z "},"₈":{"ha":464,"x_min":38,"x_max":426,"o":"m 232 -51 q 253 -47 245 -51 q 265 -35 261 -42 q 271 -18 269 -28 q 272 1 272 -9 q 272 24 272 15 q 267 41 271 34 q 255 51 263 47 q 232 54 247 54 q 210 51 218 54 q 198 41 202 47 q 193 24 194 34 q 192 1 192 15 q 193 -18 192 -9 q 199 -35 194 -28 q 211 -47 203 -42 q 232 -51 219 -51 m 232 261 q 214 257 221 261 q 203 248 207 253 q 197 234 199 242 q 196 221 196 227 q 204 179 196 190 q 232 167 212 167 q 261 179 252 167 q 271 221 271 190 q 262 248 271 234 q 232 261 253 261 m 350 115 q 387 93 372 106 q 410 66 401 81 q 423 34 419 51 q 426 -1 426 17 q 413 -67 426 -37 q 373 -118 399 -97 q 311 -151 347 -140 q 232 -162 276 -162 q 153 -151 189 -162 q 92 -118 117 -140 q 52 -67 66 -97 q 38 -1 38 -37 q 54 66 38 35 q 114 115 70 97 q 54 223 54 147 q 68 281 54 254 q 105 328 81 308 q 162 358 129 347 q 232 369 194 369 q 302 358 270 369 q 359 328 335 347 q 396 281 383 308 q 410 223 410 254 q 350 115 410 147 z "},"₉":{"ha":464,"x_min":39,"x_max":421,"o":"m 185 206 q 197 165 185 177 q 235 153 208 153 q 269 165 256 153 q 282 208 282 176 q 268 245 282 232 q 233 258 254 258 q 197 244 208 258 q 185 206 185 231 m 188 1 q 215 29 201 16 q 242 58 228 42 q 216 52 229 53 q 188 50 202 50 q 137 59 163 50 q 89 88 111 69 q 53 134 67 106 q 39 199 39 162 q 52 260 39 229 q 90 315 65 290 q 151 354 115 339 q 231 369 186 369 q 312 357 276 369 q 372 323 347 345 q 408 269 396 301 q 421 198 421 238 q 416 140 421 167 q 402 88 411 113 q 379 40 392 63 q 349 -7 366 17 l 268 -124 q 237 -147 258 -137 q 190 -157 217 -157 l 53 -157 l 188 1 z "},"₊":{"ha":464,"x_min":53,"x_max":411,"o":"m 411 39 l 292 39 l 292 -90 l 171 -90 l 171 39 l 53 39 l 53 147 l 171 147 l 171 275 l 292 275 l 292 147 l 411 147 l 411 39 z "},"₋":{"ha":464,"x_min":64,"x_max":400,"o":"m 64 147 l 400 147 l 400 39 l 64 39 l 64 147 z "},"₌":{"ha":464,"x_min":64,"x_max":400,"o":"m 64 76 l 400 76 l 400 -31 l 64 -31 l 64 76 m 64 215 l 400 215 l 400 108 l 64 108 l 64 215 z "},"₍":{"ha":232,"x_min":23,"x_max":208,"o":"m 152 90 q 156 25 152 58 q 165 -42 159 -9 q 180 -107 172 -76 q 199 -166 189 -138 q 207 -186 206 -178 q 205 -201 208 -194 q 198 -212 203 -208 q 187 -220 192 -217 l 120 -260 q 47 -94 70 -182 q 23 90 23 -6 q 47 274 23 185 q 120 441 70 363 l 187 402 q 198 393 192 398 q 205 383 203 389 q 207 368 208 376 q 199 347 206 359 q 180 288 189 319 q 165 223 172 256 q 156 157 159 190 q 152 90 152 123 z "},"₎":{"ha":232,"x_min":20,"x_max":209,"o":"m 80 90 q 77 157 80 123 q 67 223 74 190 q 52 288 61 256 q 33 347 44 319 q 25 368 26 359 q 27 383 24 376 q 35 393 30 389 q 47 402 40 398 l 113 441 q 186 274 163 363 q 209 90 209 185 q 186 -94 209 -6 q 113 -260 163 -182 l 47 -220 q 27 -201 34 -213 q 33 -166 20 -189 q 67 -42 55 -110 q 80 90 80 26 z "},"⁄":{"ha":194,"x_min":-299,"x_max":492,"o":"m -102 59 q -125 30 -113 42 q -149 12 -136 19 q -176 3 -162 6 q -208 0 -191 0 l -299 0 l 290 944 q 337 994 310 976 q 401 1012 363 1012 l 492 1012 l -102 59 z "},"⅔":{"ha":1051,"x_min":52,"x_max":1002,"o":"m 358 59 q 335 30 347 42 q 311 12 324 19 q 283 3 298 6 q 252 0 269 0 l 160 0 l 749 944 q 797 994 770 976 q 860 1012 823 1012 l 952 1012 l 358 59 m 397 626 q 434 614 421 626 q 448 579 448 601 l 448 492 l 52 492 l 52 540 q 58 569 52 553 q 77 599 63 585 l 215 733 q 241 764 228 747 q 262 796 253 780 q 276 828 271 813 q 281 857 281 844 q 274 886 281 874 q 249 899 267 899 q 226 892 235 899 q 209 870 217 885 q 197 855 203 861 q 183 845 191 849 q 164 840 175 841 q 138 842 153 840 l 52 856 q 76 928 58 898 q 120 979 93 959 q 182 1008 147 999 q 258 1018 217 1018 q 336 1006 302 1018 q 392 972 369 993 q 426 922 415 950 q 437 863 437 894 q 428 810 437 834 q 405 765 419 787 q 372 724 391 744 q 334 683 353 703 l 264 612 q 309 623 287 619 q 349 626 331 626 l 397 626 m 623 364 q 647 437 629 406 q 690 487 664 467 q 748 517 715 507 q 819 526 781 526 q 895 514 862 526 q 950 482 928 502 q 983 438 972 463 q 994 390 994 414 q 978 316 994 347 q 924 268 962 286 q 982 231 963 255 q 1002 167 1002 206 q 985 88 1002 121 q 941 35 968 56 q 880 4 914 14 q 812 -6 846 -6 q 745 0 776 -6 q 690 23 715 6 q 645 67 665 39 q 610 138 626 94 l 677 165 q 725 169 703 174 q 755 149 747 165 q 778 124 765 131 q 803 117 791 117 q 836 129 824 117 q 848 161 848 141 q 844 189 848 178 q 830 205 840 199 q 803 212 820 210 q 760 214 786 214 l 760 311 q 805 315 788 311 q 832 324 822 318 q 844 340 841 331 q 847 363 847 350 q 840 393 847 381 q 810 405 833 405 q 785 399 794 405 q 770 380 776 392 q 759 363 765 369 q 745 352 753 356 q 728 348 738 349 q 702 351 717 348 l 623 364 z "},"⅖":{"ha":1022,"x_min":50,"x_max":971,"o":"m 356 59 q 333 30 344 42 q 309 12 322 19 q 281 3 296 6 q 250 0 267 0 l 158 0 l 747 944 q 794 994 768 976 q 858 1012 821 1012 l 950 1012 l 356 59 m 394 626 q 432 614 419 626 q 446 579 446 601 l 446 492 l 50 492 l 50 540 q 56 569 50 553 q 75 599 61 585 l 213 733 q 239 764 226 747 q 260 796 251 780 q 274 828 269 813 q 279 857 279 844 q 272 886 279 874 q 247 899 265 899 q 224 892 233 899 q 207 870 215 885 q 195 855 201 861 q 181 845 189 849 q 162 840 173 841 q 136 842 151 840 l 50 856 q 74 928 56 898 q 118 979 91 959 q 180 1008 144 999 q 256 1018 215 1018 q 334 1006 300 1018 q 390 972 367 993 q 424 922 413 950 q 435 863 435 894 q 426 810 435 834 q 403 765 417 787 q 370 724 389 744 q 332 683 351 703 l 262 612 q 307 623 285 619 q 347 626 329 626 l 394 626 m 762 340 q 783 342 772 342 q 803 343 793 343 q 875 332 844 343 q 927 300 906 320 q 960 251 949 279 q 971 189 971 222 q 956 111 971 147 q 914 50 941 76 q 847 9 886 24 q 761 -6 808 -6 q 664 17 707 -6 q 589 72 620 40 l 635 133 q 652 148 642 143 q 672 153 662 153 q 695 147 685 153 q 715 135 705 142 q 738 122 725 128 q 771 117 751 117 q 788 119 779 117 q 803 128 796 122 q 814 145 810 135 q 818 172 818 156 q 804 213 818 201 q 770 225 790 225 q 739 221 754 225 q 710 211 723 217 l 618 235 l 665 521 l 949 521 l 949 459 q 929 410 949 429 q 861 390 909 390 l 770 390 l 762 340 z "},"+":{"ha":806,"x_min":59,"x_max":747,"o":"m 747 390 l 490 390 l 490 113 l 315 113 l 315 390 l 59 390 l 59 544 l 315 544 l 315 819 l 490 819 l 490 544 l 747 544 l 747 390 z "},"−":{"ha":806,"x_min":87,"x_max":719,"o":"m 87 544 l 719 544 l 719 390 l 87 390 l 87 544 z "},"×":{"ha":806,"x_min":63,"x_max":744,"o":"m 631 129 l 404 356 l 176 128 l 63 237 l 293 467 l 76 683 l 189 792 l 403 578 l 617 791 l 731 682 l 515 467 l 744 238 l 631 129 z "},"÷":{"ha":806,"x_min":59,"x_max":747,"o":"m 59 544 l 747 544 l 747 390 l 59 390 l 59 544 m 280 714 q 289 760 280 739 q 315 798 299 782 q 353 823 331 814 q 402 833 376 833 q 450 823 428 833 q 489 798 472 814 q 515 760 506 782 q 524 714 524 739 q 515 667 524 689 q 489 629 506 645 q 450 604 472 613 q 402 595 428 595 q 353 604 376 595 q 315 629 331 613 q 289 667 299 645 q 280 714 280 689 m 280 219 q 289 266 280 244 q 315 303 299 288 q 353 329 331 319 q 402 338 376 338 q 450 329 428 338 q 489 303 472 319 q 515 266 506 288 q 524 219 524 244 q 515 173 524 194 q 489 135 506 151 q 450 110 472 119 q 402 101 428 101 q 353 110 376 101 q 315 135 331 119 q 289 173 299 151 q 280 219 280 194 z "},"=":{"ha":806,"x_min":87,"x_max":719,"o":"m 87 416 l 719 416 l 719 262 l 87 262 l 87 416 m 87 671 l 719 671 l 719 516 l 87 516 l 87 671 z "},"≠":{"ha":806,"x_min":87,"x_max":719,"o":"m 515 516 l 462 416 l 719 416 l 719 262 l 381 262 l 299 107 l 147 107 l 228 262 l 87 262 l 87 416 l 309 416 l 362 516 l 87 516 l 87 671 l 443 671 l 517 813 l 670 813 l 596 671 l 719 671 l 719 516 l 515 516 z "},"≈":{"ha":806,"x_min":96,"x_max":707,"o":"m 551 643 q 597 649 575 643 q 636 661 619 654 q 667 676 654 669 q 683 688 679 684 l 707 556 q 673 524 692 537 q 632 502 653 510 q 585 490 610 494 q 538 486 561 486 q 464 496 501 486 q 391 519 426 506 q 322 541 356 531 q 260 551 289 551 q 213 546 235 551 q 173 533 191 541 q 142 517 154 526 q 125 503 129 509 l 96 631 q 130 667 110 652 q 173 691 150 681 q 222 704 197 700 q 274 708 247 708 q 348 698 310 708 q 420 676 385 688 q 489 653 456 663 q 551 643 522 643 m 551 386 q 597 391 575 386 q 636 404 619 397 q 667 419 654 411 q 683 431 679 426 l 707 298 q 673 266 692 279 q 632 245 653 253 q 585 233 610 237 q 538 229 561 229 q 464 239 501 229 q 391 261 426 249 q 322 284 356 274 q 260 294 289 294 q 213 289 235 294 q 173 276 191 283 q 142 260 154 268 q 125 247 129 252 l 96 374 q 130 409 110 394 q 173 433 150 424 q 222 447 197 442 q 274 451 247 451 q 348 441 310 451 q 420 418 385 431 q 489 396 456 406 q 551 386 522 386 z "},"<":{"ha":806,"x_min":99,"x_max":661,"o":"m 429 497 q 349 469 394 479 q 429 441 394 458 l 626 334 q 653 311 645 325 q 661 282 661 298 l 661 133 l 99 426 l 99 510 l 661 805 l 661 656 q 653 626 661 640 q 626 603 645 613 l 429 497 z "},">":{"ha":806,"x_min":144,"x_max":707,"o":"m 707 510 l 707 426 l 144 133 l 144 282 q 152 311 144 298 q 179 334 160 325 l 376 441 q 457 469 412 458 q 376 497 412 479 l 179 603 q 152 626 160 613 q 144 656 144 640 l 144 805 l 707 510 z "},"±":{"ha":806,"x_min":59,"x_max":747,"o":"m 59 210 l 747 210 l 747 56 l 59 56 l 59 210 m 747 650 l 747 495 l 490 495 l 490 274 l 315 274 l 315 495 l 59 495 l 59 650 l 315 650 l 315 883 l 490 883 l 490 650 l 747 650 z "},"≤":{"ha":806,"x_min":113,"x_max":675,"o":"m 113 210 l 675 210 l 675 56 l 113 56 l 113 210 m 443 594 q 353 569 402 579 q 400 557 378 563 q 443 542 423 551 l 630 458 q 666 433 657 447 q 675 402 675 418 l 675 259 l 113 526 l 113 610 l 675 874 l 675 731 q 666 700 675 715 q 631 675 658 685 l 443 594 z "},"≥":{"ha":806,"x_min":131,"x_max":693,"o":"m 131 210 l 693 210 l 693 56 l 131 56 l 131 210 m 693 610 l 693 526 l 131 259 l 131 402 q 140 433 131 418 q 176 458 149 447 l 363 542 q 405 557 383 551 q 453 569 428 563 q 363 594 403 579 l 175 675 q 139 700 148 685 q 131 731 131 715 l 131 874 l 693 610 z "},"¬":{"ha":806,"x_min":82,"x_max":714,"o":"m 714 196 l 532 196 l 532 390 l 82 390 l 82 544 l 714 544 l 714 196 z "},"℮":{"ha":1129,"x_min":56,"x_max":1083,"o":"m 792 658 q 779 756 792 713 q 739 830 765 799 q 674 876 713 860 q 584 892 635 892 q 497 875 537 892 q 430 827 458 858 q 386 753 401 797 q 370 656 370 709 l 370 626 l 792 626 l 792 658 m 370 381 q 388 278 370 325 q 440 196 406 231 q 522 142 474 161 q 631 122 570 122 q 713 131 674 122 q 789 157 753 139 q 858 205 825 176 q 919 276 890 234 l 1034 197 q 960 107 1001 147 q 863 40 918 67 q 739 -2 808 13 q 583 -16 669 -16 q 365 21 462 -16 q 199 126 267 58 q 93 288 130 194 q 56 498 56 383 q 74 638 56 571 q 123 763 91 705 q 202 868 156 821 q 306 950 248 916 q 431 1002 363 983 q 574 1020 499 1020 q 731 1000 660 1020 q 858 944 802 980 q 954 859 913 908 q 1023 752 995 810 q 1065 629 1051 694 q 1083 497 1080 564 l 370 497 l 370 381 z "},"ℓ":{"ha":842,"x_min":36,"x_max":821,"o":"m 583 869 q 519 843 552 869 q 456 774 486 818 q 401 672 426 731 q 362 545 376 613 q 474 601 423 571 q 562 664 525 631 q 619 731 599 697 q 639 801 639 766 q 624 850 639 832 q 583 869 610 869 m 36 450 q 93 461 65 456 q 149 475 122 467 q 180 611 159 544 q 232 740 201 679 q 303 853 263 801 q 392 943 343 905 q 497 1003 440 981 q 615 1024 553 1024 q 705 1008 666 1024 q 769 963 743 992 q 808 895 795 934 q 821 811 821 856 q 786 682 821 742 q 690 569 752 622 q 540 472 627 517 q 346 392 452 428 q 352 278 346 323 q 368 208 358 234 q 392 173 378 183 q 425 163 407 163 q 468 175 447 163 q 508 207 490 188 q 541 249 526 226 q 565 296 556 273 l 743 255 q 685 148 722 196 q 602 65 649 99 q 498 11 555 30 q 378 -8 441 -8 q 286 10 328 -8 q 213 68 244 28 q 164 173 182 108 q 142 332 145 238 q 102 322 122 326 q 63 313 83 318 l 36 450 z "},"∞":{"ha":1010,"x_min":50,"x_max":960,"o":"m 710 317 q 741 322 726 317 q 767 338 756 326 q 785 367 778 349 q 792 411 792 385 q 785 456 792 438 q 767 485 778 474 q 741 501 756 496 q 710 506 726 506 q 677 498 692 506 q 648 478 662 491 q 622 449 634 466 q 597 411 609 431 q 622 374 609 391 q 648 344 634 356 q 677 324 662 331 q 710 317 692 317 m 300 317 q 333 324 318 317 q 363 344 349 331 q 389 374 376 356 q 414 411 401 391 q 389 449 401 431 q 363 478 376 466 q 333 498 349 491 q 300 506 318 506 q 269 501 284 506 q 243 485 255 496 q 225 456 232 474 q 218 411 218 438 q 225 367 218 385 q 243 338 232 349 q 269 322 255 326 q 300 317 284 317 m 719 673 q 811 653 767 673 q 888 599 855 634 q 940 516 921 565 q 960 411 960 468 q 940 306 960 353 q 888 223 921 258 q 811 168 855 188 q 719 149 767 149 q 650 158 681 149 q 593 183 619 167 q 545 219 567 199 q 505 265 524 240 q 465 219 487 240 q 418 183 444 199 q 360 158 392 167 q 291 149 328 149 q 199 168 242 149 q 122 223 155 188 q 69 306 89 258 q 50 411 50 353 q 69 516 50 468 q 122 599 89 565 q 199 653 155 634 q 291 673 242 673 q 360 664 328 673 q 418 639 392 655 q 465 602 444 624 q 505 557 487 581 q 545 602 524 581 q 593 639 567 624 q 650 664 619 655 q 719 673 681 673 z "},"∂":{"ha":819,"x_min":37,"x_max":780,"o":"m 369 150 q 427 162 399 150 q 482 203 456 174 q 527 280 507 232 q 560 397 547 327 q 543 442 553 421 q 517 480 533 464 q 479 505 501 496 q 426 515 456 515 q 350 499 382 515 q 299 454 319 483 q 269 385 278 425 q 259 297 259 344 q 288 188 259 226 q 369 150 317 150 m 191 926 q 250 966 220 948 q 313 995 280 983 q 384 1014 346 1008 q 469 1021 422 1021 q 592 994 535 1021 q 691 917 649 967 q 756 794 733 866 q 780 631 780 722 q 753 365 780 483 q 672 163 726 246 q 536 34 618 79 q 344 -11 454 -11 q 222 10 278 -11 q 124 72 165 32 q 60 167 83 111 q 37 294 37 224 q 65 445 37 376 q 143 566 94 515 q 260 647 193 617 q 403 676 327 676 q 511 657 467 676 q 587 604 556 638 l 587 629 q 576 730 587 687 q 545 801 565 773 q 498 843 525 829 q 438 857 470 857 q 393 850 415 857 q 351 835 371 843 q 315 819 331 826 q 285 813 298 813 q 262 819 274 813 q 238 846 251 826 l 191 926 z "},"∫":{"ha":690,"x_min":-3,"x_max":695,"o":"m 288 854 q 321 980 297 927 q 383 1068 346 1033 q 470 1120 421 1103 q 578 1137 519 1137 q 636 1131 605 1137 q 695 1111 667 1125 l 684 1024 q 681 1005 683 1013 q 673 992 678 997 q 657 983 667 986 q 630 980 647 980 q 565 973 590 980 q 525 951 540 966 q 503 914 510 937 q 492 860 496 892 l 404 50 q 370 -76 394 -23 q 308 -165 346 -130 q 222 -217 271 -200 q 113 -233 172 -233 q 56 -227 87 -233 q -3 -207 25 -222 l 8 -119 q 11 -101 8 -109 q 19 -87 13 -93 q 35 -79 25 -82 q 62 -76 45 -76 q 126 -69 101 -76 q 167 -48 151 -62 q 189 -11 182 -33 q 199 44 196 12 l 288 854 z "},"√":{"ha":857,"x_min":14,"x_max":864,"o":"m 864 1181 l 485 0 l 303 0 l 145 433 l 94 433 q 64 438 78 433 q 38 452 49 442 q 20 478 27 463 q 14 517 14 494 l 14 584 l 269 584 q 308 573 292 584 q 329 547 324 563 l 369 386 q 388 318 381 353 q 399 249 395 284 q 410 303 404 276 q 425 360 417 331 l 664 1144 q 685 1170 669 1160 q 721 1181 700 1181 l 864 1181 z "},"∏":{"ha":997,"x_min":49,"x_max":949,"o":"m 949 838 l 844 838 l 844 -228 l 622 -228 l 622 838 l 375 838 l 375 -228 l 153 -228 l 153 838 l 49 838 l 49 1012 l 949 1012 l 949 838 z "},"∑":{"ha":949,"x_min":48,"x_max":892,"o":"m 892 838 l 377 838 l 699 422 l 699 361 l 377 -55 l 892 -55 l 892 -228 l 48 -228 l 48 -157 q 53 -125 48 -142 q 70 -95 58 -109 l 462 394 l 70 878 q 53 908 58 892 q 48 940 48 925 l 48 1012 l 892 1012 l 892 838 z "},"◊":{"ha":806,"x_min":42,"x_max":764,"o":"m 558 510 l 447 757 q 421 818 431 788 q 403 881 410 849 q 386 819 396 849 q 361 759 376 789 l 251 510 l 356 272 q 384 204 372 238 q 403 135 395 170 q 422 203 410 170 q 451 272 434 237 l 558 510 m 764 510 l 478 -49 l 328 -49 l 42 510 l 328 1068 l 478 1068 l 764 510 z "},"←":{"ha":1389,"x_min":59,"x_max":1319,"o":"m 59 452 l 476 866 l 551 792 q 569 749 574 771 q 545 707 565 726 l 451 603 q 407 562 428 581 q 367 529 387 544 q 484 540 424 536 q 606 544 544 544 l 1319 544 l 1319 358 l 606 358 q 483 363 544 358 q 365 374 422 367 q 406 341 385 359 q 451 301 427 323 l 545 196 q 570 154 566 176 q 551 111 574 132 l 476 37 l 59 452 z "},"→":{"ha":1389,"x_min":69,"x_max":1330,"o":"m 1330 451 l 913 37 l 838 111 q 819 155 815 133 q 844 196 824 176 l 938 300 q 1022 374 983 343 q 905 363 966 367 q 783 358 844 358 l 69 358 l 69 544 l 783 544 q 906 540 844 544 q 1023 529 967 536 q 982 562 1003 544 q 938 602 961 580 l 844 707 q 819 749 823 726 q 838 792 815 771 l 913 866 l 1330 451 z "},"↑":{"ha":1042,"x_min":104,"x_max":938,"o":"m 938 686 l 860 614 q 815 596 838 592 q 772 619 792 600 l 678 724 q 602 804 633 768 q 614 692 610 750 q 618 576 618 634 l 618 -157 l 424 -157 l 424 576 q 428 693 424 635 q 440 805 432 751 q 406 767 424 787 q 365 724 387 747 l 270 619 q 227 596 250 599 q 182 613 204 592 l 104 686 l 522 1101 l 938 686 z "},"↓":{"ha":1042,"x_min":103,"x_max":937,"o":"m 937 169 l 519 -246 l 103 169 l 181 242 q 226 259 203 263 q 269 235 249 255 l 363 131 q 405 89 386 108 q 439 51 423 69 q 427 163 431 105 q 423 279 423 221 l 423 1012 l 617 1012 l 617 279 q 613 163 617 221 q 601 50 609 104 q 635 88 617 68 q 676 131 654 108 l 771 235 q 814 259 791 256 q 859 242 837 263 l 937 169 z "},"↗":{"ha":1042,"x_min":19,"x_max":979,"o":"m 979 944 l 979 358 l 870 360 q 826 378 839 360 q 813 424 813 397 l 813 572 q 814 630 813 603 q 818 681 815 657 q 743 593 783 638 q 661 508 703 549 l 156 -10 l 19 122 l 524 640 q 613 720 567 681 q 704 792 659 758 q 591 785 655 786 l 458 785 q 410 798 428 785 q 391 841 391 811 l 390 945 l 979 944 z "},"↖":{"ha":1042,"x_min":63,"x_max":1023,"o":"m 1023 122 l 885 -10 l 381 508 q 298 593 338 549 q 224 681 258 638 q 228 630 226 657 q 229 572 229 603 l 229 424 q 216 378 229 397 q 172 360 203 360 l 63 358 l 63 944 l 652 945 l 651 841 q 632 798 651 811 q 584 785 613 785 l 451 785 q 338 792 387 786 q 429 720 383 758 q 518 640 475 681 l 1023 122 z "},"↘":{"ha":1042,"x_min":19,"x_max":979,"o":"m 979 587 l 979 1 l 390 0 l 391 104 q 410 147 391 134 q 458 160 428 160 l 591 160 q 704 153 655 159 q 613 225 659 187 q 524 306 567 264 l 19 824 l 156 956 l 661 438 q 743 352 703 396 q 818 265 783 308 q 814 315 815 289 q 813 373 813 342 l 813 522 q 826 567 813 549 q 870 585 839 585 l 979 587 z "},"↙":{"ha":1042,"x_min":63,"x_max":1023,"o":"m 63 0 l 63 586 l 172 585 q 216 566 203 585 q 229 521 229 548 l 229 372 q 228 314 229 341 q 224 264 226 288 q 298 351 258 307 q 381 437 338 395 l 885 955 l 1023 823 l 518 305 q 429 225 475 263 q 338 153 383 186 q 451 159 387 158 l 584 159 q 632 147 613 160 q 651 103 651 133 l 652 -1 l 63 0 z "},"↔":{"ha":1389,"x_min":59,"x_max":1330,"o":"m 1330 451 l 913 37 l 838 111 q 819 155 815 133 q 844 196 824 176 l 938 300 q 1022 374 983 343 q 905 363 966 367 q 783 358 844 358 l 385 358 q 417 332 401 346 q 451 301 433 317 l 545 196 q 570 154 566 176 q 551 111 574 132 l 476 37 l 59 452 l 476 866 l 551 792 q 569 749 574 771 q 545 707 565 726 l 451 603 q 386 544 416 569 l 783 544 q 906 540 844 544 q 1023 529 967 536 q 982 562 1003 544 q 938 602 961 580 l 844 707 q 819 749 823 726 q 838 792 815 771 l 913 866 l 1330 451 z "},"↕":{"ha":1042,"x_min":104,"x_max":938,"o":"m 520 -246 l 104 169 l 182 242 q 227 259 204 263 q 270 235 250 255 l 364 131 q 424 69 398 98 l 424 576 q 428 692 424 634 q 440 805 432 751 q 405 767 424 787 q 365 724 387 747 l 270 619 q 227 596 250 599 q 182 613 204 592 l 104 686 l 522 1101 l 938 686 l 860 614 q 815 596 838 592 q 772 619 792 600 l 678 724 q 636 766 655 746 q 602 803 617 785 q 614 692 609 750 q 618 576 618 634 l 618 69 q 645 98 631 83 q 677 131 660 114 l 772 235 q 815 259 792 256 q 860 242 838 263 l 938 169 l 520 -246 z "},"Ơ":{"ha":1213,"x_min":40,"x_max":1197,"o":"m 566 183 q 686 205 633 183 q 775 269 739 227 q 831 370 812 310 q 851 506 851 431 q 831 641 851 581 q 775 743 812 701 q 686 807 739 785 q 566 829 633 829 q 445 807 498 829 q 355 743 392 785 q 299 641 319 701 q 280 506 280 581 q 299 370 280 431 q 355 269 319 310 q 445 205 392 227 q 566 183 498 183 m 1188 1115 q 1194 1079 1192 1101 q 1197 1034 1197 1057 q 1187 954 1197 992 q 1154 882 1176 915 q 1098 824 1132 849 q 1017 783 1064 799 q 1072 654 1053 724 q 1091 506 1091 584 q 1053 302 1091 397 q 947 138 1015 208 q 781 28 878 68 q 566 -11 684 -11 q 351 28 448 -11 q 184 138 253 68 q 77 302 115 208 q 40 506 40 397 q 77 710 40 616 q 184 874 115 805 q 351 983 253 944 q 566 1023 448 1023 q 778 984 683 1023 q 943 878 874 946 q 979 902 967 887 q 991 935 991 917 q 987 957 991 947 q 978 978 983 967 q 969 1002 973 989 q 965 1033 965 1015 q 991 1095 965 1074 q 1076 1115 1018 1115 l 1188 1115 z "},"Ư":{"ha":1245,"x_min":85,"x_max":1267,"o":"m 1257 1115 q 1264 1079 1261 1101 q 1267 1034 1267 1057 q 1249 931 1267 980 q 1193 846 1231 883 q 1097 787 1156 809 q 955 764 1038 765 l 955 413 q 925 242 955 319 q 838 108 894 164 q 701 20 782 51 q 520 -11 621 -11 q 338 20 419 -11 q 201 108 258 51 q 115 242 145 164 q 85 413 85 319 l 85 1012 l 320 1012 l 320 413 q 334 318 320 360 q 373 246 347 276 q 436 201 399 217 q 520 185 473 185 q 605 201 567 185 q 667 246 642 217 q 707 317 693 275 q 720 413 720 359 l 720 1012 l 955 1012 l 955 868 q 1035 889 1010 869 q 1060 935 1060 909 q 1056 957 1060 947 q 1047 978 1052 967 q 1038 1002 1042 989 q 1034 1033 1034 1015 q 1061 1095 1034 1074 q 1146 1115 1088 1115 l 1257 1115 z "},"ơ":{"ha":886,"x_min":35,"x_max":922,"o":"m 405 149 q 514 201 479 149 q 549 360 549 253 q 514 519 549 467 q 405 572 479 572 q 293 519 328 572 q 258 360 258 467 q 293 201 258 253 q 405 149 328 149 m 913 831 q 919 797 916 817 q 922 753 922 776 q 911 677 922 714 q 880 609 901 640 q 825 555 858 578 q 744 518 791 531 q 765 444 758 483 q 772 362 772 406 q 745 207 772 276 q 670 89 718 138 q 554 15 622 41 q 405 -11 487 -11 q 255 15 322 -11 q 138 89 187 41 q 62 207 89 138 q 35 362 35 276 q 62 516 35 447 q 138 632 89 584 q 255 706 187 680 q 405 731 322 731 q 571 699 498 731 q 693 606 644 667 q 726 632 715 616 q 737 665 737 647 q 732 684 737 675 q 722 703 727 693 q 711 726 716 713 q 706 756 706 738 q 731 812 706 792 q 810 831 756 831 l 913 831 z "},"ư":{"ha":940,"x_min":66,"x_max":980,"o":"m 971 831 q 977 797 974 817 q 980 753 980 776 q 966 663 980 706 q 920 586 951 619 q 839 531 889 552 q 719 506 790 510 l 719 0 l 585 0 q 533 36 545 0 l 520 78 q 477 41 499 58 q 430 14 455 25 q 375 -5 404 2 q 310 -11 345 -11 q 206 9 251 -11 q 129 67 160 30 q 82 153 98 103 q 66 263 66 203 l 66 720 l 281 720 l 281 263 q 306 181 281 210 q 377 151 330 151 q 443 166 413 151 q 503 207 474 181 l 503 720 l 719 720 l 719 597 q 777 623 758 603 q 795 665 795 642 q 790 684 795 675 q 780 703 785 693 q 769 726 774 713 q 765 756 765 738 q 789 812 765 792 q 868 831 814 831 l 971 831 z "},"₫":{"ha":877,"x_min":45,"x_max":819,"o":"m 55 -53 l 801 -53 l 801 -181 l 55 -181 l 55 -53 m 517 497 q 465 535 493 524 q 407 546 436 546 q 351 535 376 546 q 307 499 325 524 q 278 435 288 474 q 267 340 267 396 q 276 254 267 290 q 300 197 284 219 q 339 164 316 174 q 392 154 363 154 q 461 172 433 154 q 517 222 490 189 l 517 497 m 819 907 l 819 779 l 733 779 l 733 0 l 599 0 q 547 36 559 0 l 530 91 q 486 49 509 68 q 436 17 463 31 q 381 -4 410 3 q 319 -11 352 -11 q 207 14 258 -11 q 121 84 157 39 q 65 193 85 130 q 45 334 45 257 q 68 483 45 415 q 131 600 90 551 q 229 677 172 649 q 356 704 286 704 q 448 688 410 704 q 517 645 486 672 l 517 779 l 356 779 l 356 907 l 517 907 l 517 1040 l 733 1040 l 733 907 l 819 907 z "},"○":{"ha":920,"x_min":79,"x_max":840,"o":"m 79 450 q 109 598 79 528 q 191 719 139 667 q 312 801 242 771 q 460 831 381 831 q 608 801 538 831 q 729 719 677 771 q 810 598 781 667 q 840 450 840 528 q 810 302 840 372 q 729 181 781 233 q 608 99 677 129 q 460 69 538 69 q 312 99 381 69 q 191 181 242 129 q 109 302 139 233 q 79 450 79 372 m 269 450 q 284 373 269 409 q 325 310 299 337 q 386 268 351 283 q 460 252 420 252 q 534 268 499 252 q 595 310 569 283 q 636 373 621 337 q 651 450 651 409 q 636 528 651 492 q 595 592 621 565 q 534 634 569 619 q 460 650 499 650 q 386 634 420 650 q 325 592 351 619 q 284 528 299 565 q 269 450 269 492 z "},"◌":{"ha":920,"x_min":70,"x_max":851,"o":"m 403 783 q 408 805 403 794 q 420 822 413 815 q 438 834 428 829 q 460 838 449 838 q 483 834 472 838 q 501 822 493 829 q 513 805 508 815 q 517 783 517 794 q 501 744 517 760 q 460 728 484 728 q 420 744 437 728 q 403 783 403 760 m 530 758 q 547 797 530 781 q 587 813 563 813 q 627 797 610 813 q 644 758 644 781 q 639 736 644 747 q 627 719 635 726 q 609 707 619 712 q 587 703 599 703 q 565 707 575 703 q 547 719 554 712 q 534 736 539 726 q 530 758 530 747 m 638 687 q 655 726 638 710 q 695 742 672 742 q 735 726 719 742 q 752 687 752 710 q 748 666 752 676 q 735 648 743 656 q 717 636 728 641 q 695 632 707 632 q 673 636 683 632 q 655 648 663 641 q 643 666 647 656 q 638 687 638 676 m 708 578 q 725 618 708 601 q 765 634 742 634 q 806 618 789 634 q 822 578 822 601 q 818 557 822 567 q 806 540 813 547 q 788 528 798 533 q 765 524 777 524 q 743 528 753 524 q 725 540 733 533 q 713 557 717 547 q 708 578 708 567 m 738 449 q 754 489 738 472 q 794 505 771 505 q 835 489 818 505 q 851 449 851 472 q 847 428 851 438 q 835 411 842 418 q 817 399 827 403 q 794 394 806 394 q 772 399 783 394 q 754 411 762 403 q 742 428 747 418 q 738 449 738 438 m 274 758 q 291 797 274 781 q 331 813 308 813 q 372 797 355 813 q 388 758 388 781 q 384 736 388 747 q 372 719 379 726 q 353 707 364 712 q 331 703 343 703 q 309 707 319 703 q 291 719 299 712 q 279 736 283 726 q 274 758 274 747 m 166 687 q 183 726 166 710 q 223 742 199 742 q 263 726 247 742 q 280 687 280 710 q 275 666 280 676 q 263 648 271 656 q 245 636 256 641 q 223 632 235 632 q 201 636 211 632 q 183 648 190 641 q 170 666 175 656 q 166 687 166 676 m 95 578 q 112 618 95 601 q 152 634 128 634 q 192 618 176 634 q 209 578 209 601 q 205 557 209 567 q 192 540 200 547 q 174 528 185 533 q 152 524 164 524 q 130 528 140 524 q 112 540 119 533 q 100 557 104 547 q 95 578 95 567 m 70 449 q 87 489 70 472 q 127 505 103 505 q 167 489 151 505 q 184 449 184 472 q 180 428 184 438 q 167 411 175 418 q 149 399 160 403 q 127 394 139 394 q 105 399 115 394 q 87 411 94 403 q 75 428 79 418 q 70 449 70 438 m 708 323 q 725 362 708 346 q 765 378 742 378 q 806 362 789 378 q 822 323 822 346 q 818 302 822 312 q 806 284 813 292 q 788 273 798 277 q 765 268 777 268 q 743 273 753 268 q 725 284 733 277 q 713 302 717 292 q 708 323 708 312 m 95 323 q 112 362 95 346 q 152 378 128 378 q 192 362 176 378 q 209 323 209 346 q 205 302 209 312 q 192 284 200 292 q 174 273 185 277 q 152 268 164 268 q 130 273 140 268 q 112 284 119 277 q 100 302 104 292 q 95 323 95 312 m 638 215 q 655 254 638 238 q 695 270 672 270 q 735 254 719 270 q 752 215 752 238 q 748 193 752 203 q 735 176 743 183 q 717 164 728 169 q 695 160 707 160 q 673 164 683 160 q 655 176 663 169 q 643 193 647 183 q 638 215 638 203 m 166 215 q 183 254 166 238 q 223 270 199 270 q 263 254 247 270 q 280 215 280 238 q 275 193 280 203 q 263 176 271 183 q 245 164 256 169 q 223 160 235 160 q 201 164 211 160 q 183 176 190 169 q 170 193 175 183 q 166 215 166 203 m 530 144 q 547 184 530 167 q 587 200 563 200 q 627 184 610 200 q 644 144 644 167 q 639 123 644 133 q 627 106 635 113 q 609 94 619 99 q 587 90 599 90 q 565 94 575 90 q 547 106 554 99 q 534 123 539 113 q 530 144 530 133 m 274 144 q 291 184 274 167 q 331 200 308 200 q 372 184 355 200 q 388 144 388 167 q 384 123 388 133 q 372 106 379 113 q 353 94 364 99 q 331 90 343 90 q 309 94 319 90 q 291 106 299 99 q 279 123 283 113 q 274 144 274 133 m 403 115 q 420 155 403 138 q 460 171 437 171 q 501 155 484 171 q 517 115 517 138 q 513 94 517 104 q 501 77 508 84 q 483 65 493 69 q 460 60 472 60 q 438 65 449 60 q 420 77 428 69 q 408 94 413 84 q 403 115 403 104 z "},"͏":{"ha":0,"x_min":0,"x_max":0,"o":""},"᷂":{"ha":0,"x_min":-118,"x_max":139,"o":"m -118 -61 q -106 -50 -118 -56 q -76 -37 -93 -43 q -40 -26 -58 -31 q -8 -22 -21 -22 q 13 -25 3 -22 q 32 -33 22 -28 q 52 -43 42 -37 q 76 -54 63 -49 q 120 -78 101 -62 q 139 -117 139 -93 q 131 -144 139 -133 q 110 -163 122 -156 q 82 -176 97 -171 q 55 -184 67 -181 q 34 -189 42 -187 q 26 -193 26 -191 q 39 -197 26 -196 q 68 -204 52 -199 q 97 -220 83 -209 q 110 -255 110 -232 q 96 -290 110 -278 q 65 -307 82 -301 q 34 -317 48 -312 q 20 -331 20 -322 q 25 -340 20 -336 q 42 -346 29 -343 q 44 -351 44 -346 q 43 -356 44 -353 q 40 -359 42 -359 q -15 -342 5 -354 q -34 -308 -34 -329 q -22 -280 -34 -290 q 6 -266 -9 -271 q 33 -260 20 -262 q 45 -256 45 -259 q 37 -253 45 -254 q 17 -250 29 -252 q -9 -244 5 -248 q -35 -234 -23 -240 q -55 -217 -47 -227 q -63 -190 -63 -206 q -47 -153 -63 -167 q -11 -133 -31 -140 q 25 -122 8 -125 q 41 -114 41 -118 q 29 -108 41 -108 q 16 -110 21 -108 q 7 -115 11 -112 q -2 -118 3 -117 q -17 -119 -8 -119 q -47 -111 -30 -117 q -80 -97 -65 -106 q -107 -80 -96 -89 q -118 -61 -118 -70 z "},"Ɓ":{"ha":1174,"x_min":15,"x_max":1125,"o":"m 742 177 q 818 189 788 177 q 864 219 847 201 q 887 262 881 238 q 893 310 893 285 q 886 360 893 338 q 861 397 878 382 q 814 421 843 413 q 740 429 785 429 l 576 429 l 576 177 l 742 177 m 576 836 l 576 586 l 699 586 q 769 592 738 586 q 822 611 800 597 q 855 649 844 625 q 867 710 867 674 q 858 770 867 747 q 830 809 849 794 q 782 830 811 824 q 714 836 753 836 l 576 836 m 714 1012 q 892 992 819 1012 q 1013 938 966 973 q 1080 851 1059 902 q 1101 738 1101 801 q 1092 673 1101 704 q 1061 614 1082 641 q 1008 563 1040 586 q 929 524 975 540 q 1077 445 1029 499 q 1125 305 1125 391 q 1100 185 1125 240 q 1027 88 1075 129 q 908 23 978 47 q 746 0 837 0 l 342 0 l 342 848 l 339 848 q 279 841 303 848 q 240 822 255 835 q 219 789 226 808 q 213 742 213 769 q 216 710 213 724 q 221 690 219 695 q 224 670 224 680 q 220 652 224 660 q 207 636 216 643 q 182 625 198 629 l 45 596 q 23 667 31 633 q 15 744 15 701 q 36 855 15 806 q 99 939 58 904 q 201 993 140 974 q 339 1012 261 1012 l 714 1012 z "},"Ƅ":{"ha":1010,"x_min":2,"x_max":993,"o":"m 610 177 q 686 194 656 177 q 732 237 715 211 q 755 291 749 263 q 761 344 761 320 q 754 400 761 372 q 729 450 747 428 q 682 485 711 472 q 608 499 653 499 l 431 499 l 431 177 l 610 177 m 597 676 q 773 649 699 676 q 897 575 848 622 q 969 468 946 529 q 993 340 993 407 q 968 205 993 267 q 895 98 943 143 q 776 26 847 52 q 614 0 705 0 l 196 0 l 196 576 l 2 708 l 258 1012 l 430 1012 l 430 676 l 597 676 z "},"Ɔ":{"ha":912,"x_min":6,"x_max":870,"o":"m 132 262 q 152 257 142 262 q 170 246 162 253 q 211 215 191 227 q 254 195 231 203 q 303 185 277 188 q 362 182 329 182 q 466 203 417 182 q 551 266 515 225 q 609 368 588 308 q 630 506 630 428 q 611 643 630 583 q 557 745 592 703 q 473 808 522 786 q 367 829 425 829 q 277 818 311 829 q 219 793 242 806 q 180 768 196 779 q 144 756 163 756 q 115 764 126 756 q 97 782 105 772 l 18 888 q 83 942 47 917 q 163 985 119 967 q 258 1013 207 1003 q 365 1023 308 1023 q 570 985 477 1023 q 730 878 663 947 q 833 714 797 809 q 870 506 870 619 q 836 300 870 395 q 739 136 802 206 q 584 28 675 67 q 377 -11 492 -11 q 159 30 251 -11 q 6 150 67 70 l 99 248 q 115 259 107 256 q 132 262 124 262 z "},"Ƈ":{"ha":919,"x_min":43,"x_max":1113,"o":"m 702 1008 q 714 1094 702 1051 q 753 1172 725 1138 q 828 1227 781 1206 q 948 1249 876 1249 q 997 1247 975 1249 q 1039 1241 1019 1244 q 1076 1231 1058 1237 q 1113 1219 1094 1226 l 1083 1101 q 1071 1077 1078 1086 q 1055 1065 1064 1069 q 1036 1062 1046 1062 q 1015 1064 1026 1062 q 996 1067 1008 1065 q 972 1069 984 1069 q 913 1040 930 1069 q 895 956 895 1012 l 895 888 l 816 782 q 798 764 808 772 q 769 756 788 756 q 745 762 756 756 q 722 775 734 767 q 694 793 709 783 q 659 810 679 802 q 611 824 638 818 q 547 829 583 829 q 440 808 488 829 q 357 745 392 786 q 302 643 322 703 q 283 506 283 583 q 305 368 283 428 q 362 266 326 308 q 447 203 399 225 q 551 182 496 182 q 610 185 583 182 q 659 195 636 188 q 702 215 682 203 q 743 246 722 227 q 761 257 751 253 q 781 262 771 262 q 798 259 790 262 q 814 248 806 256 l 907 150 q 754 30 846 70 q 536 -11 662 -11 q 330 28 421 -11 q 175 136 238 67 q 77 300 111 206 q 43 506 43 395 q 80 714 43 619 q 183 878 117 809 q 343 985 250 947 q 548 1023 436 1023 q 628 1017 590 1023 q 702 1001 667 1012 l 702 1008 z "},"Ɗ":{"ha":1301,"x_min":15,"x_max":1260,"o":"m 735 181 q 855 203 802 181 q 944 268 908 226 q 1000 370 981 310 q 1019 506 1019 431 q 1000 642 1019 581 q 944 744 981 702 q 855 809 908 786 q 735 831 802 831 l 578 831 l 578 181 l 735 181 m 735 1012 q 950 974 853 1012 q 1115 868 1047 935 q 1222 708 1184 801 q 1260 506 1260 615 q 1222 304 1260 397 q 1115 143 1184 211 q 950 38 1047 76 q 735 0 853 0 l 342 0 l 342 848 l 339 848 q 279 841 303 848 q 240 822 255 835 q 219 789 226 808 q 213 742 213 769 q 216 710 213 724 q 221 690 219 695 q 224 670 224 680 q 220 652 224 660 q 207 636 216 643 q 182 625 198 629 l 45 596 q 23 667 31 633 q 15 744 15 701 q 36 855 15 806 q 99 939 58 904 q 201 993 140 974 q 339 1012 261 1012 l 735 1012 z "},"Ƌ":{"ha":887,"x_min":33,"x_max":789,"o":"m 554 177 l 554 430 l 418 430 q 341 420 371 430 q 295 394 312 411 q 272 353 278 377 q 265 302 265 330 q 272 256 265 278 q 295 216 278 233 q 341 188 312 198 q 418 177 371 177 l 554 177 m 789 1012 l 789 0 l 418 0 q 256 24 327 0 q 135 90 184 47 q 59 193 85 133 q 33 326 33 253 q 54 433 33 382 q 121 523 75 484 q 240 584 167 561 q 418 607 313 607 l 554 607 l 554 836 l 72 836 l 72 1012 l 789 1012 z "},"Ǝ":{"ha":790,"x_min":41,"x_max":692,"o":"m 692 0 l 41 0 l 41 181 l 456 181 l 456 422 l 138 422 l 138 595 l 456 595 l 456 831 l 41 831 l 41 1012 l 692 1012 l 692 0 z "},"Ə":{"ha":1030,"x_min":38,"x_max":988,"o":"m 266 407 q 280 316 266 358 q 323 242 294 274 q 393 193 351 211 q 492 176 435 176 q 589 192 547 176 q 663 239 631 208 q 713 311 694 269 q 741 407 733 354 l 266 407 m 44 854 q 145 941 91 907 q 256 994 199 974 q 369 1020 313 1013 q 477 1027 426 1027 q 676 993 583 1027 q 838 890 769 958 q 948 720 908 822 q 988 486 988 619 q 954 294 988 385 q 855 135 919 203 q 698 27 790 67 q 491 -12 606 -12 q 308 19 391 -12 q 165 109 225 50 q 72 255 105 169 q 38 450 38 340 q 41 505 38 483 q 51 539 44 526 q 72 556 59 551 q 106 561 85 561 l 742 561 q 653 763 727 697 q 450 828 578 828 q 357 815 397 828 q 285 786 317 802 q 225 756 253 769 q 171 743 198 743 q 139 750 153 743 q 116 769 125 757 l 44 854 z "},"Ɛ":{"ha":826,"x_min":48,"x_max":819,"o":"m 819 161 q 725 75 774 108 q 625 23 676 42 q 518 -3 573 4 q 409 -10 464 -10 q 326 -1 368 -10 q 243 24 283 7 q 167 67 203 41 q 106 128 132 93 q 64 207 79 163 q 48 304 48 251 q 60 381 48 345 q 94 448 72 417 q 145 503 115 478 q 211 544 176 527 q 141 582 169 560 q 96 631 113 605 q 72 686 79 657 q 64 744 64 715 q 90 848 64 798 q 167 938 117 899 q 291 1001 218 977 q 458 1024 364 1024 q 652 992 571 1024 q 794 907 734 960 l 741 818 q 710 786 726 792 q 683 781 695 781 q 648 790 666 781 q 605 809 631 799 q 543 829 580 820 q 451 838 506 838 q 387 830 413 838 q 344 806 360 821 q 320 773 328 792 q 313 733 313 753 q 350 647 313 677 q 469 616 387 616 l 638 616 l 638 454 l 448 454 q 374 442 404 454 q 324 411 343 430 q 297 369 306 392 q 288 325 288 347 q 299 269 288 296 q 333 223 310 243 q 391 192 356 203 q 472 181 425 181 q 541 187 513 181 q 590 205 569 194 q 628 229 612 215 q 663 256 645 242 q 681 268 671 264 q 701 273 690 273 q 717 269 709 273 q 733 258 726 266 l 819 161 z "},"Ƒ":{"ha":787,"x_min":-120,"x_max":749,"o":"m 334 831 l 334 575 l 680 575 l 680 394 l 334 394 l 334 46 q 318 -71 334 -17 q 268 -164 302 -124 q 181 -225 234 -203 q 55 -247 128 -247 q 0 -245 24 -247 q -45 -239 -24 -243 q -83 -230 -65 -235 q -120 -217 -101 -224 l -90 -100 q -78 -76 -85 -85 q -62 -64 -71 -67 q -43 -60 -53 -60 q -22 -62 -33 -60 q -3 -66 -15 -64 q 22 -67 9 -67 q 81 -39 63 -67 q 98 46 98 -10 l 98 1012 l 749 1012 l 749 831 l 334 831 z "},"Ɠ":{"ha":1009,"x_min":40,"x_max":1169,"o":"m 951 887 l 883 783 q 841 753 867 759 q 787 766 816 748 q 734 795 759 783 q 684 815 710 807 q 630 826 658 822 q 566 829 601 829 q 447 806 500 829 q 357 740 394 783 q 300 639 320 698 q 280 506 280 579 q 302 363 280 426 q 364 258 324 301 q 457 192 403 215 q 574 169 510 169 q 660 178 623 169 q 731 200 698 186 l 731 353 l 631 353 q 597 365 609 353 q 584 395 584 377 l 584 524 l 944 524 l 944 97 q 863 48 905 69 q 773 15 821 28 q 672 -5 726 1 q 556 -11 618 -11 q 351 28 445 -11 q 187 136 256 67 q 79 300 118 206 q 40 506 40 395 q 77 714 40 619 q 184 878 115 809 q 353 985 254 947 q 574 1023 452 1023 q 671 1016 626 1023 q 758 997 717 1009 l 758 1008 q 769 1094 758 1051 q 809 1172 781 1138 q 884 1227 837 1206 q 1003 1249 931 1249 q 1053 1247 1031 1249 q 1094 1241 1075 1244 q 1132 1231 1114 1237 q 1169 1219 1150 1226 l 1138 1101 q 1127 1077 1134 1086 q 1110 1065 1119 1069 q 1091 1062 1101 1062 q 1071 1064 1081 1062 q 1051 1067 1063 1065 q 1027 1069 1040 1069 q 968 1040 985 1069 q 951 956 951 1012 l 951 887 z "},"Ɣ":{"ha":989,"x_min":-38,"x_max":1028,"o":"m 411 191 q 385 170 402 181 l 615 170 q 599 183 607 176 q 585 198 592 190 l 490 328 q 470 283 482 305 q 443 243 459 262 l 411 191 m 635 447 l 967 0 l 23 0 l 361 458 l -38 1012 l 190 1012 q 223 1005 213 1012 q 247 982 234 999 l 510 599 l 756 982 q 776 1004 765 997 q 803 1011 787 1011 l 1028 1011 l 635 447 z "},"Ɩ":{"ha":496,"x_min":94,"x_max":474,"o":"m 94 1013 l 330 1013 l 330 244 q 344 182 330 201 q 397 163 358 163 l 474 163 l 474 89 q 459 43 474 62 q 420 13 444 24 q 365 -3 396 2 q 303 -8 335 -8 q 212 11 251 -8 q 147 61 173 29 q 107 138 120 94 q 94 231 94 181 l 94 1013 z "},"Ƙ":{"ha":1016,"x_min":98,"x_max":1017,"o":"m 333 602 l 370 602 q 416 610 397 602 q 450 640 436 619 l 572 861 q 630 937 598 906 q 699 986 662 967 q 781 1013 737 1005 q 875 1021 824 1021 q 961 1014 929 1021 q 1017 998 994 1008 l 995 882 q 984 858 991 867 q 968 847 977 850 q 950 843 960 843 q 933 843 941 842 q 912 846 925 844 q 888 847 899 847 q 826 831 853 847 q 785 791 799 815 l 691 617 q 654 572 675 590 q 608 542 633 553 q 698 469 660 524 l 1003 0 l 794 0 q 759 3 774 0 q 735 11 745 6 q 717 25 724 17 q 702 43 709 33 l 473 394 q 441 423 460 415 q 390 431 422 431 l 333 431 l 333 0 l 98 0 l 98 1012 l 333 1012 l 333 602 z "},"Ɯ":{"ha":1534,"x_min":89,"x_max":1436,"o":"m 1436 1012 l 1436 3 l 1313 3 q 1266 16 1285 3 q 1240 53 1248 29 l 1217 131 q 1172 71 1195 97 q 1119 26 1148 44 q 1054 -2 1090 8 q 974 -11 1018 -11 q 820 30 881 -11 q 726 141 760 72 q 666 71 700 100 q 593 24 631 42 q 513 -3 554 6 q 432 -11 472 -11 q 277 15 342 -11 q 170 89 213 40 q 109 209 128 138 q 89 372 89 281 l 89 1012 l 325 1012 l 325 372 q 337 280 325 319 q 369 214 349 240 q 419 175 390 188 q 481 163 447 163 q 602 215 560 163 q 644 372 644 267 l 644 1012 l 881 1012 l 881 372 q 888 285 881 324 q 911 219 894 246 q 955 177 927 192 q 1023 163 982 163 q 1077 172 1051 163 q 1125 203 1103 182 q 1167 257 1148 224 q 1200 336 1185 290 l 1200 1012 l 1436 1012 z "},"Ɲ":{"ha":1079,"x_min":-120,"x_max":981,"o":"m 981 1012 l 981 0 l 859 0 q 814 9 832 0 q 777 39 795 17 l 300 642 q 304 590 303 615 q 305 542 305 565 l 305 19 q 291 -98 305 -44 q 247 -191 278 -151 q 167 -252 217 -230 q 45 -274 117 -274 q -4 -272 18 -274 q -46 -266 -26 -270 q -83 -257 -65 -262 q -120 -244 -101 -251 l -90 -127 q -78 -103 -85 -112 q -62 -91 -71 -94 q -43 -87 -53 -87 q -22 -90 -33 -87 q -3 -93 -15 -91 q 22 -94 9 -94 q 81 -66 63 -94 q 98 19 98 -37 l 98 1012 l 222 1012 q 247 1010 237 1012 q 266 1005 258 1009 q 282 994 274 1001 q 299 976 290 988 l 781 368 q 776 425 777 397 q 774 476 774 452 l 774 1012 l 981 1012 z "},"Ɵ":{"ha":1131,"x_min":40,"x_max":1091,"o":"m 285 428 q 318 325 294 370 q 377 248 341 279 q 460 200 413 217 q 566 183 508 183 q 672 200 624 183 q 754 248 719 217 q 813 325 790 279 q 845 428 835 370 l 285 428 m 843 596 q 751 768 822 707 q 566 829 680 829 q 380 768 451 829 q 288 596 308 707 l 843 596 m 566 1023 q 781 983 684 1023 q 947 874 878 943 q 1053 710 1015 804 q 1091 506 1091 615 q 1053 302 1091 397 q 947 138 1015 208 q 781 28 878 68 q 566 -11 684 -11 q 351 28 448 -11 q 184 138 253 68 q 77 302 115 208 q 40 506 40 397 q 77 710 40 616 q 184 874 115 805 q 351 983 253 944 q 566 1023 448 1023 z "},"Ƣ":{"ha":1467,"x_min":42,"x_max":1375,"o":"m 536 176 q 645 200 597 176 q 725 266 692 223 q 774 369 757 308 q 790 506 790 431 q 774 642 790 581 q 725 746 757 703 q 645 812 692 789 q 536 835 597 835 q 427 812 474 835 q 348 746 380 789 q 299 642 315 703 q 282 506 282 581 q 299 369 282 431 q 348 266 315 308 q 427 200 380 223 q 536 176 474 176 m 1139 735 q 1133 775 1139 756 q 1117 809 1128 794 q 1089 831 1106 823 q 1051 839 1073 839 q 1000 830 1025 839 q 953 804 976 820 q 1011 666 991 741 q 1031 506 1031 591 q 997 302 1031 397 q 900 138 964 208 q 745 28 837 68 q 536 -11 653 -11 q 327 28 419 -11 q 172 138 235 68 q 75 302 108 208 q 42 506 42 397 q 75 710 42 616 q 172 874 108 805 q 327 983 235 944 q 536 1023 419 1023 q 712 996 633 1023 q 851 920 790 969 q 963 995 902 967 q 1103 1022 1024 1022 q 1220 1002 1169 1022 q 1305 945 1271 982 q 1357 855 1340 908 q 1375 735 1375 801 l 1375 -236 l 1139 -236 l 1139 735 z "},"Ƥ":{"ha":1127,"x_min":15,"x_max":1106,"o":"m 699 515 q 831 559 790 515 q 871 681 871 603 q 860 744 871 716 q 829 793 850 773 q 775 825 808 814 q 699 836 743 836 l 576 836 l 576 515 l 699 515 m 699 1012 q 882 986 806 1012 q 1009 917 959 961 q 1082 812 1058 872 q 1106 681 1106 751 q 1081 542 1106 606 q 1007 434 1057 479 q 880 364 957 389 q 699 338 803 338 l 576 338 l 576 0 l 342 0 l 342 848 l 339 848 q 279 841 303 848 q 240 822 255 835 q 219 789 226 808 q 213 742 213 769 q 216 710 213 724 q 221 690 219 695 q 224 670 224 680 q 220 652 224 660 q 207 636 216 643 q 182 625 198 629 l 45 596 q 23 667 31 633 q 15 744 15 701 q 36 855 15 806 q 99 939 58 904 q 201 993 140 974 q 339 1012 261 1012 l 699 1012 z "},"Ʀ":{"ha":875,"x_min":98,"x_max":926,"o":"m 427 398 q 509 410 475 398 q 564 444 542 422 q 595 494 585 465 q 605 556 605 523 q 561 660 605 623 q 427 698 518 698 l 333 698 l 333 398 l 427 398 m 926 -138 l 713 -138 q 663 -127 684 -138 q 628 -94 641 -115 l 460 200 q 434 227 449 219 q 392 236 419 236 l 333 236 l 333 0 l 98 0 l 98 1023 l 333 1023 l 333 874 l 427 874 q 614 851 537 874 q 741 788 692 828 q 812 693 790 748 q 834 574 834 638 q 821 481 834 524 q 782 400 808 437 q 718 333 756 363 q 631 285 681 304 q 674 256 654 274 q 710 214 694 238 l 926 -138 z "},"Ƨ":{"ha":764,"x_min":31,"x_max":740,"o":"m 58 915 q 120 960 85 940 q 194 994 154 980 q 277 1016 233 1008 q 368 1023 322 1023 q 516 998 451 1023 q 625 933 581 974 q 692 839 669 892 q 715 728 715 785 q 696 611 715 659 q 645 530 676 563 q 573 476 613 497 q 490 439 533 455 q 408 410 448 424 q 336 380 367 397 q 285 339 304 363 q 265 278 265 315 q 299 199 265 222 q 386 175 332 175 q 468 188 433 175 q 530 217 503 201 q 577 247 556 233 q 619 260 599 260 q 649 252 635 260 q 671 232 663 244 l 740 122 q 670 68 710 92 q 584 26 630 44 q 489 -1 538 8 q 393 -11 440 -11 q 239 12 306 -11 q 125 76 172 35 q 55 175 79 117 q 31 303 31 233 q 50 409 31 365 q 101 485 69 453 q 173 539 133 517 q 256 578 214 561 q 339 609 299 594 q 411 641 380 624 q 463 680 443 658 q 482 734 482 701 q 453 809 482 781 q 365 838 424 838 q 297 828 326 838 q 244 806 267 818 q 202 783 221 793 q 168 773 184 773 q 139 781 150 773 q 117 806 127 790 l 58 915 z "},"Ƭ":{"ha":969,"x_min":18,"x_max":948,"o":"m 948 826 l 663 826 l 663 0 l 428 0 l 428 826 l 343 826 q 278 821 303 826 q 240 806 253 817 q 222 780 226 796 q 217 740 217 763 q 220 709 217 724 q 224 690 223 695 q 227 670 227 680 q 223 652 227 660 q 210 636 219 643 q 185 625 201 629 l 49 596 q 26 667 34 633 q 18 744 18 701 q 40 855 18 806 q 103 939 61 904 q 205 993 144 974 q 343 1012 265 1012 l 948 1012 l 948 826 z "},"Ʈ":{"ha":846,"x_min":21,"x_max":825,"o":"m 540 -6 q 561 -89 540 -58 q 627 -121 582 -121 q 657 -117 644 -121 q 681 -114 669 -114 q 707 -122 694 -114 q 728 -153 721 -129 l 751 -244 q 679 -267 714 -260 q 601 -274 644 -274 q 464 -252 520 -274 q 373 -191 408 -230 q 322 -98 338 -152 q 306 19 306 -44 l 306 826 l 21 826 l 21 1012 l 825 1012 l 825 826 l 540 826 l 540 -6 z "}}}
